SplineFontDB: 3.0
FontName: Estedad-Bold
FullName: Estedad Bold
FamilyName: Estedad
Weight: Bold
Copyright: Copyright (c) 2017-2018 by Amin Abedi (aminabedi68---www.opentypeshop.com),\nwith Reserved Font Name Estedad.\n\nThis Font Software is licensed under the SIL Open Font License, Version 1.1.
Version: 1.00
StrokeWidth: 100
ItalicAngle: 0
UnderlinePosition: -500
UnderlineWidth: 100
Ascent: 1638
Descent: 410
InvalidEm: 0
sfntRevision: 0x00010000
LayerCount: 2
Layer: 0 0 "Back" 1
Layer: 1 0 "Fore" 0
XUID: [1021 89 1101065813 28845]
StyleMap: 0x0000
FSType: 0
OS2Version: 0
OS2_WeightWidthSlopeOnly: 0
OS2_UseTypoMetrics: 1
CreationTime: 1496828874
ModificationTime: 1535280106
PfmFamily: 17
TTFWeight: 700
TTFWidth: 5
LineGap: 0
VLineGap: 213
OS2TypoAscent: 450
OS2TypoAOffset: 1
OS2TypoDescent: -450
OS2TypoDOffset: 1
OS2TypoLinegap: 0
OS2WinAscent: 450
OS2WinAOffset: 1
OS2WinDescent: 450
OS2WinDOffset: 1
HheadAscent: 450
HheadAOffset: 1
HheadDescent: -450
HheadDOffset: 1
OS2CapHeight: 1400
OS2XHeight: 1012
OS2Vendor: 'AA68'
Lookup: 2 0 0 "Multiple substitution 0" { "Multiple substitution 0 subtable"  } []
Lookup: 2 0 0 "Multiple substitution 1" { "Multiple substitution 1 subtable"  } []
Lookup: 1 9 0 "'fina' Terminal Forms in Arabic lookup 2" { "'fina' Terminal Forms in Arabic lookup 2 subtable"  } ['fina' ('arab' <'FAR ' 'dflt' > ) ]
Lookup: 1 9 0 "'medi' Medial Forms in Arabic lookup 3" { "'medi' Medial Forms in Arabic lookup 3 subtable"  } ['medi' ('arab' <'FAR ' 'dflt' > ) ]
Lookup: 1 9 0 "'init' Initial Forms in Arabic lookup 4" { "'init' Initial Forms in Arabic lookup 4 subtable"  } ['init' ('arab' <'FAR ' 'dflt' > ) ]
Lookup: 4 9 1 "'rlig' Required Ligatures in Arabic lookup 5" { "'rlig' Required Ligatures in Arabic lookup 5 subtable"  } ['rlig' ('arab' <'FAR ' 'dflt' > ) ]
Lookup: 4 0 1 "'ccmp' Glyph Composition/Decomposition lookup 6" { "'ccmp' Glyph Composition/Decomposition lookup 6 subtable"  } ['rlig' ('arab' <'FAR ' 'dflt' > ) ]

StartChar: period
Encoding: 46 46 0
Width: 453
VWidth: 1647
Flags: HMW
LayerCount: 2
Fore
SplineSet
98.7001953125 106.099609375 m 0
 98.7001953125 176.900390625 156.299804688 232.099609375 227.099609375 232.099609375 c 0
 297.900390625 232.099609375 354.299804688 176.900390625 354.299804688 106.099609375 c 0
 354.299804688 35.2998046875 297.900390625 -21.099609375 227.099609375 -21.099609375 c 0
 156.299804688 -21.099609375 98.7001953125 35.2998046875 98.7001953125 106.099609375 c 0
EndSplineSet
Colour: ff0000
EndChar

StartChar: slash
Encoding: 47 47 1
Width: 1050
VWidth: 1647
Flags: HMW
LayerCount: 2
Fore
SplineSet
759 1453 m 1
 941 1369 l 1
 291 -42 l 1
 109 42 l 1
 759 1453 l 1
EndSplineSet
Colour: ffff
EndChar

StartChar: asterisk
Encoding: 42 42 2
Width: 1133
VWidth: 1647
Flags: HMW
LayerCount: 2
Fore
SplineSet
177 1074 m 1
 223 1216 l 1
 491 1129 l 1
 491 1411 l 1
 641 1411 l 1
 641 1128 l 1
 910 1216 l 1
 956 1074 l 1
 688 986 l 1
 855 757 l 1
 733 669 l 1
 566 898 l 1
 400 669 l 1
 278 757 l 1
 445 986 l 1
 177 1074 l 1
EndSplineSet
Colour: ff00ff
EndChar

StartChar: parenleft
Encoding: 40 40 3
Width: 598
VWidth: 1647
Flags: HMW
LayerCount: 2
Fore
SplineSet
482 54 m 1
 314 -54 l 1
 175 163 100 410 100 706 c 0
 100 1002 175 1248 314 1465 c 1
 482 1357 l 1
 363 1170 300 968 300 706 c 0
 300 444 363 241 482 54 c 1
EndSplineSet
Colour: ffff
EndChar

StartChar: parenright
Encoding: 41 41 4
Width: 598
VWidth: 1647
Flags: HMW
LayerCount: 2
Fore
SplineSet
116 1357 m 1
 284 1465 l 1
 423 1248 498 1001 498 705 c 0
 498 409 423 163 284 -54 c 1
 116 54 l 1
 235 241 298 443 298 705 c 0
 298 967 235 1170 116 1357 c 1
EndSplineSet
Colour: ffff
EndChar

StartChar: uni0660
Encoding: 1632 1632 5
Width: 845
VWidth: 1854
Flags: HMW
LayerCount: 2
Fore
SplineSet
422 673 m 0
 600 673 745 530 745 351 c 0
 745 172 602 27 422 27 c 0
 242 27 100 173 100 351 c 0
 100 530 243 673 422 673 c 0
422 473 m 0
 353 473 300 420 300 351 c 0
 300 281 354 227 422 227 c 0
 490 227 545 282 545 351 c 0
 545 420 492 473 422 473 c 0
EndSplineSet
PairPos2: "'kern' Horizontal Kerning in Arabic lookup 3 per glyph data 0" uni0667 dx=-100 dy=0 dh=-100 dv=0 dx=0 dy=0 dh=0 dv=0
PairPos2: "'kern' Horizontal Kerning in Arabic lookup 3 per glyph data 0" uni0666 dx=-100 dy=0 dh=-100 dv=0 dx=0 dy=0 dh=0 dv=0
PairPos2: "'kern' Horizontal Kerning in Arabic lookup 3 per glyph data 0" uni0662 dx=-125 dy=0 dh=-125 dv=0 dx=0 dy=0 dh=0 dv=0
Colour: ffff
EndChar

StartChar: uni0661
Encoding: 1633 1633 6
Width: 618
VWidth: 1854
Flags: HMW
LayerCount: 2
Fore
SplineSet
518 0 m 1
 318 0 l 1
 318 453 235 962 105 1381 c 1
 296 1441 l 1
 432 1002 518 477 518 0 c 1
EndSplineSet
Colour: ffff
EndChar

StartChar: uni0662
Encoding: 1634 1634 7
Width: 1086
VWidth: 1854
Flags: HMW
LayerCount: 2
Fore
SplineSet
357 1237 m 2
 398 1096 454 975 587 975 c 0
 658 975 705 1007 735 1066 c 0
 777 1147 786 1279 786 1444 c 1
 986 1444 l 1
 986 1307 985 1089 895 940 c 0
 837 843 743 775 587 775 c 0
 541 775 494 781 448 797 c 1
 493 532 518 258 518 0 c 1
 318 0 l 1
 318 430 236 932 126 1311 c 1
 104 1382 l 1
 296 1441 l 1
 357 1237 l 2
EndSplineSet
Colour: ffff
EndChar

StartChar: uni0663
Encoding: 1635 1635 8
Width: 1473
VWidth: 1854
Flags: HMW
LayerCount: 2
Fore
SplineSet
1373 1209 m 0
 1373 980 1277 780 1031 780 c 0
 925 780 834 821 778 894 c 1
 724 825 639 780 538 780 c 0
 508 780 478 784 449 791 c 1
 493 528 518 256 518 0 c 1
 318 0 l 1
 318 459 225 991 104 1382 c 1
 296 1441 l 1
 357 1237 l 2
 377 1172 394 1120 412 1082 c 0
 455 989 475 980 538 980 c 0
 610 980 646 1019 677 1158 c 0
 693 1233 704 1331 714 1422 c 1
 913 1404 l 1
 906 1335 899 1265 899 1196 c 0
 899 1067 912 980 1031 980 c 0
 1157 980 1173 1061 1173 1209 c 0
 1173 1273 1166 1339 1156 1392 c 1
 1352 1430 l 1
 1365 1363 1373 1287 1373 1209 c 0
EndSplineSet
Colour: ffff
EndChar

StartChar: uni0664
Encoding: 1636 1636 9
Width: 1057
VWidth: 1854
Flags: HMW
LayerCount: 2
Fore
SplineSet
724 1212 m 1
 567 1212 421 1189 421 1070 c 0
 421 1018 436 982 475 959 c 0
 522 931 602 921 731 921 c 1
 731 721 l 1
 502 721 300 604 300 377 c 0
 300 234 389 175 533 175 c 2
 857 175 l 1
 857 -25 l 1
 533 -25 l 2
 299 -25 100 121 100 377 c 0
 100 571 198 722 338 813 c 1
 263 871 221 962 221 1070 c 0
 221 1329 474 1412 724 1412 c 1
 724 1212 l 1
EndSplineSet
Colour: ffff
EndChar

StartChar: uni0665
Encoding: 1637 1637 10
Width: 1196
VWidth: 1854
Flags: HMW
LayerCount: 2
Fore
SplineSet
530 1472 m 1
 795 1227 1096 872 1096 403 c 0
 1096 123 879 -25 601 -25 c 0
 327 -25 100 130 100 443 c 0
 100 752 225 1013 458 1265 c 1
 437 1286 415 1307 394 1326 c 1
 530 1472 l 1
594 1118 m 1
 390 894 300 690 300 443 c 0
 300 252 401 175 601 175 c 0
 813 175 896 255 896 403 c 0
 896 676 761 919 594 1118 c 1
EndSplineSet
PairPos2: "'kern' Horizontal Kerning in Arabic lookup 3 per glyph data 0" uni0667 dx=-100 dy=0 dh=-100 dv=0 dx=0 dy=0 dh=0 dv=0
PairPos2: "'kern' Horizontal Kerning in Arabic lookup 3 per glyph data 0" uni0666 dx=-50 dy=0 dh=-50 dv=0 dx=0 dy=0 dh=0 dv=0
Colour: ffff
EndChar

StartChar: uni0666
Encoding: 1638 1638 11
Width: 1168
VWidth: 1854
Flags: HMW
LayerCount: 2
Fore
SplineSet
179 1262 m 1
 221 1458 l 1
 340 1432 485 1418 618 1418 c 0
 701 1418 781 1425 844 1435 c 2
 965 1454 l 1
 960 1332 l 2
 956 1239 954 1152 954 1068 c 0
 954 707 991 402 1066 19 c 1
 870 -19 l 1
 793 372 754 693 754 1068 c 0
 754 1119 754 1169 756 1223 c 1
 713 1220 665 1218 618 1218 c 0
 471 1218 316 1232 179 1262 c 1
EndSplineSet
PairPos2: "'kern' Horizontal Kerning in Arabic lookup 3 per glyph data 0" uni0660 dx=-100 dy=0 dh=-100 dv=0 dx=0 dy=0 dh=0 dv=0
PairPos2: "'kern' Horizontal Kerning in Arabic lookup 3 per glyph data 0" uni066B dx=-150 dy=0 dh=-150 dv=0 dx=0 dy=0 dh=0 dv=0
PairPos2: "'kern' Horizontal Kerning in Arabic lookup 3 per glyph data 0" uni0668 dx=-100 dy=0 dh=-100 dv=0 dx=0 dy=0 dh=0 dv=0
Colour: ffff
EndChar

StartChar: uni0667
Encoding: 1639 1639 12
Width: 1315
VWidth: 1854
Flags: HMW
LayerCount: 2
Fore
SplineSet
1033 1428 m 1
 1197 1314 l 1
 972 989 865 686 762 59 c 2
 748 -25 l 1
 568 -25 l 1
 554 59 l 2
 451 686 343 989 118 1314 c 1
 282 1428 l 1
 457 1175 571 923 658 565 c 1
 745 921 857 1175 1033 1428 c 1
EndSplineSet
PairPos2: "'kern' Horizontal Kerning in Arabic lookup 3 per glyph data 0" uni0660 dx=-100 dy=0 dh=-100 dv=0 dx=0 dy=0 dh=0 dv=0
PairPos2: "'kern' Horizontal Kerning in Arabic lookup 3 per glyph data 0" uni0665 dx=-100 dy=0 dh=-100 dv=0 dx=0 dy=0 dh=0 dv=0
PairPos2: "'kern' Horizontal Kerning in Arabic lookup 3 per glyph data 0" uni0668 dx=-150 dy=0 dh=-150 dv=0 dx=0 dy=0 dh=0 dv=0
PairPos2: "'kern' Horizontal Kerning in Arabic lookup 3 per glyph data 0" uni066B dx=-125 dy=0 dh=-125 dv=0 dx=0 dy=0 dh=0 dv=0
Colour: ffff
EndChar

StartChar: uni0668
Encoding: 1640 1640 13
Width: 1315
VWidth: 1854
Flags: HMW
LayerCount: 2
Fore
SplineSet
282 -17 m 1
 118 97 l 1
 343 422 450 725 553 1352 c 2
 567 1436 l 1
 747 1436 l 1
 761 1352 l 2
 864 725 972 422 1197 97 c 1
 1033 -17 l 1
 857 236 744 488 657 846 c 1
 570 490 458 236 282 -17 c 1
EndSplineSet
PairPos2: "'kern' Horizontal Kerning in Arabic lookup 3 per glyph data 0" uni0663 dx=-100 dy=0 dh=-100 dv=0 dx=0 dy=0 dh=0 dv=0
PairPos2: "'kern' Horizontal Kerning in Arabic lookup 3 per glyph data 0" uni0662 dx=-100 dy=0 dh=-100 dv=0 dx=0 dy=0 dh=0 dv=0
PairPos2: "'kern' Horizontal Kerning in Arabic lookup 3 per glyph data 0" uni0667 dx=-150 dy=0 dh=-150 dv=0 dx=0 dy=0 dh=0 dv=0
Colour: ffff
EndChar

StartChar: uni0669
Encoding: 1641 1641 14
Width: 1095
VWidth: 1854
Flags: HMW
LayerCount: 2
Fore
SplineSet
627 869 m 1
 620 1082 555 1232 467 1232 c 0
 409 1232 300 1129 300 981 c 0
 300 892 343 855 501 855 c 0
 546 855 586 860 627 869 c 1
828 828 m 0
 828 498 881 218 981 51 c 1
 809 -51 l 1
 699 134 646 380 632 666 c 1
 590 659 547 655 501 655 c 0
 311 655 100 736 100 981 c 0
 100 1195 247 1432 467 1432 c 0
 801 1432 828 1002 828 828 c 0
EndSplineSet
PairPos2: "'kern' Horizontal Kerning in Arabic lookup 3 per glyph data 0" uni066B dx=-75 dy=0 dh=-75 dv=0 dx=0 dy=0 dh=0 dv=0
PairPos2: "'kern' Horizontal Kerning in Arabic lookup 3 per glyph data 0" uni0668 dx=-150 dy=0 dh=-150 dv=0 dx=0 dy=0 dh=0 dv=0
PairPos2: "'kern' Horizontal Kerning in Arabic lookup 3 per glyph data 0" uni0665 dx=-50 dy=0 dh=-50 dv=0 dx=0 dy=0 dh=0 dv=0
Colour: ffff
EndChar

StartChar: uni06F4
Encoding: 1780 1780 19
Width: 1179
VWidth: 1854
Flags: HMW
LayerCount: 2
Fore
SplineSet
978 701 m 1
 912 695 827 689 761 689 c 0
 643 689 542 704 456 750 c 1
 496 499 518 243 518 0 c 1
 318 -0 l 1
 318 456 228 989 107 1380 c 1
 297 1441 l 1
 368 1224 l 1
 440 1369 590 1449 742 1449 c 0
 816 1449 878 1441 948 1425 c 1
 904 1231 l 1
 844 1245 804 1249 742 1249 c 0
 624 1249 523 1176 523 1024 c 0
 523 956 539 918 609 901 c 0
 648 892 698 889 761 889 c 0
 814 889 902 896 960 901 c 1
 978 701 l 1
EndSplineSet
PairPos2: "'kern' Horizontal Kerning in Arabic lookup 3 per glyph data 1" uni06F0 dx=-25 dy=0 dh=-25 dv=0 dx=0 dy=0 dh=0 dv=0
PairPos2: "'kern' Horizontal Kerning in Arabic lookup 3 per glyph data 1" uni06F8 dx=-125 dy=0 dh=-125 dv=0 dx=0 dy=0 dh=0 dv=0
Colour: ffff
EndChar

StartChar: uni06F5
Encoding: 1781 1781 20
Width: 1276
VWidth: 1854
Flags: HMW
LayerCount: 2
Fore
SplineSet
490 1268 m 1
 469 1286 449 1303 427 1320 c 1
 549 1478 l 1
 603 1436 656 1390 704 1343 c 0
 996 1057 1176 697 1176 404 c 0
 1176 139 1033 -25 852 -25 c 0
 775 -25 702 5 646 58 c 1
 587 4 513 -25 434 -25 c 0
 248 -25 100 143 100 420 c 0
 100 648 198 988 490 1268 c 1
548 291 m 2
 548 346 l 1
 748 346 l 1
 748 291 l 2
 748 222 798 175 852 175 c 0
 891 175 976 203 976 404 c 0
 976 598 854 884 633 1128 c 1
 381 888 300 596 300 420 c 0
 300 207 390 175 434 175 c 0
 492 175 548 221 548 291 c 2
EndSplineSet
PairPos2: "'kern' Horizontal Kerning in Arabic lookup 3 per glyph data 1" uni06F2 dx=-25 dy=0 dh=-25 dv=0 dx=0 dy=0 dh=0 dv=0
PairPos2: "'kern' Horizontal Kerning in Arabic lookup 3 per glyph data 1" uni06F3 dx=-25 dy=0 dh=-25 dv=0 dx=0 dy=0 dh=0 dv=0
PairPos2: "'kern' Horizontal Kerning in Arabic lookup 3 per glyph data 1" uni06F7 dx=-100 dy=0 dh=-100 dv=0 dx=0 dy=0 dh=0 dv=0
PairPos2: "'kern' Horizontal Kerning in Arabic lookup 3 per glyph data 1" uni06F9 dx=-75 dy=0 dh=-75 dv=0 dx=0 dy=0 dh=0 dv=0
Colour: ffff
EndChar

StartChar: uni06F6
Encoding: 1782 1782 21
Width: 1034
VWidth: 1854
Flags: HMW
LayerCount: 2
Fore
SplineSet
811 1320 m 1
 673 1174 l 1
 637 1208 584 1237 514 1237 c 0
 396 1237 306 1156 306 1015 c 0
 306 912 402 846 565 846 c 0
 646 846 727 867 777 898 c 2
 850 944 l 1
 981 786 l 1
 890 724 l 2
 658 566 380 275 296 -27 c 1
 104 27 l 1
 171 267 323 479 492 650 c 1
 315 670 106 776 106 1015 c 0
 106 1258 286 1437 514 1437 c 0
 642 1437 745 1382 811 1320 c 1
EndSplineSet
Colour: ffff
EndChar

StartChar: uni0654
Encoding: 1620 1620 25
Width: 0
VWidth: 1854
Flags: HMW
AnchorPoint: "Anchor-1" 0 1598 basemark 0
AnchorPoint: "Anchor-1" 1 1209 mark 0
AnchorPoint: "Anchor-4" 1 1209 mark 0
AnchorPoint: "Anchor-5" 1 1209 mark 0
LayerCount: 2
Fore
SplineSet
-200 1517 m 1
 -242 1609 l 1
 -157 1647 l 1
 -194 1696 -213 1752 -213 1806 c 0
 -213 1911 -134 2002 0 2002 c 2
 82 2002 l 1
 82 1902 l 1
 0 1902 l 2
 -84 1902 -113 1857 -113 1806 c 0
 -113 1771 -97 1726 -62 1690 c 1
 155 1789 l 1
 197 1697 l 1
 -200 1517 l 1
EndSplineSet
Colour: ff00
EndChar

StartChar: uni0653
Encoding: 1619 1619 27
Width: 0
VWidth: 1854
Flags: HMW
AnchorPoint: "Anchor-1" 0 1598 basemark 0
AnchorPoint: "Anchor-1" 1 1209 mark 0
AnchorPoint: "Anchor-4" 1 1209 mark 0
AnchorPoint: "Anchor-5" 1 1209 mark 0
LayerCount: 2
Fore
SplineSet
-257 1561 m 1
 -228 1620 -168 1689 -79 1689 c 0
 -40 1689 0 1674 37 1646 c 0
 61 1627 80 1622 94 1622 c 0
 125 1622 160 1650 180 1697 c 1
 272 1659 l 1
 244 1592 183 1522 94 1522 c 0
 54 1522 13 1537 -25 1566 c 0
 -48 1584 -66 1589 -79 1589 c 0
 -110 1589 -146 1560 -167 1517 c 1
 -257 1561 l 1
EndSplineSet
Colour: ff00
EndChar

StartChar: uni0652
Encoding: 1618 1618 28
Width: 0
VWidth: 1854
Flags: HMW
AnchorPoint: "Anchor-1" 0 1598 basemark 0
AnchorPoint: "Anchor-1" 1 1209 mark 0
AnchorPoint: "Anchor-4" 1 1209 mark 0
AnchorPoint: "Anchor-5" 1 1209 mark 0
LayerCount: 2
Fore
SplineSet
0 1902 m 0
 112 1902 204 1812 204 1699 c 0
 204 1586 113 1495 0 1495 c 0
 -114 1495 -203 1587 -203 1699 c 0
 -203 1811 -114 1902 0 1902 c 0
0 1802 m 0
 -58 1802 -103 1757 -103 1699 c 0
 -103 1641 -58 1595 0 1595 c 0
 57 1595 104 1642 104 1699 c 0
 104 1756 58 1802 0 1802 c 0
EndSplineSet
Colour: ff00
EndChar

StartChar: uni0651
Encoding: 1617 1617 29
Width: 0
VWidth: 1854
Flags: HMW
AnchorPoint: "Anchor-1" 0 1598 basemark 0
AnchorPoint: "Anchor-1" 0 1209 mark 0
AnchorPoint: "Anchor-4" 0 1209 mark 0
AnchorPoint: "Anchor-5" 0 1209 mark 0
LayerCount: 2
Fore
SplineSet
138 1870 m 1
 232 1904 l 1
 252 1849 266 1795 266 1726 c 0
 266 1626 205 1554 124 1554 c 0
 77 1554 32 1579 0 1619 c 1
 -33 1577 -77 1554 -124 1554 c 0
 -205 1554 -266 1626 -266 1726 c 0
 -266 1795 -252 1849 -232 1904 c 1
 -138 1870 l 1
 -156 1821 -166 1781 -166 1726 c 0
 -166 1662 -139 1654 -124 1654 c 0
 -106 1654 -75 1669 -59 1720 c 0
 -54 1737 -50 1757 -50 1782 c 2
 -50 1857 l 1
 50 1857 l 1
 50 1782 l 2
 50 1757 54 1736 59 1719 c 0
 75 1668 106 1654 124 1654 c 0
 139 1654 166 1662 166 1726 c 0
 166 1781 156 1821 138 1870 c 1
EndSplineSet
Colour: ff00
EndChar

StartChar: uni064E
Encoding: 1614 1614 30
Width: 0
VWidth: 1854
Flags: HMW
AnchorPoint: "Anchor-1" 0 1598 basemark 0
AnchorPoint: "Anchor-1" 1 1209 mark 0
AnchorPoint: "Anchor-4" 1 1209 mark 0
AnchorPoint: "Anchor-5" 1 1209 mark 0
LayerCount: 2
Fore
SplineSet
155 1789 m 1
 197 1697 l 1
 -200 1517 l 1
 -242 1609 l 1
 155 1789 l 1
EndSplineSet
Colour: ff00
EndChar

StartChar: uni064F
Encoding: 1615 1615 31
Width: 0
VWidth: 1854
Flags: HMW
AnchorPoint: "Anchor-1" 0 1598 basemark 0
AnchorPoint: "Anchor-1" 1 1209 mark 0
AnchorPoint: "Anchor-4" 1 1209 mark 0
AnchorPoint: "Anchor-5" 1 1209 mark 0
LayerCount: 2
Fore
SplineSet
51 1750 m 1
 68 1780 77 1812 77 1845 c 0
 77 1878 54 1909 26 1909 c 0
 -5 1909 -48 1872 -48 1836 c 0
 -48 1809 -18 1775 51 1750 c 1
-17 1670 m 1
 -79 1699 -148 1751 -148 1836 c 0
 -148 1936 -59 2009 26 2009 c 0
 132 2009 177 1910 177 1845 c 0
 177 1768 145 1699 98 1644 c 0
 23 1556 -91 1496 -200 1477 c 1
 -218 1575 l 1
 -149 1587 -73 1622 -17 1670 c 1
EndSplineSet
Colour: ff00
EndChar

StartChar: uni064C
Encoding: 1612 1612 34
Width: 0
VWidth: 1854
Flags: HMW
AnchorPoint: "Anchor-1" 0 1598 basemark 0
AnchorPoint: "Anchor-1" 1 1209 mark 0
AnchorPoint: "Anchor-4" 1 1209 mark 0
AnchorPoint: "Anchor-5" 1 1209 mark 0
LayerCount: 2
Fore
SplineSet
-171 1710 m 1
 -253 1654 l 1
 -291 1711 -314 1779 -314 1852 c 0
 -314 2049 -155 2208 42 2208 c 1
 42 2108 l 1
 -100 2108 -214 1993 -214 1852 c 0
 -214 1799 -199 1751 -171 1710 c 1
EndSplineSet
Refer: 31 1615 N 1 0 0 1 0 0 2
Colour: ff00
EndChar

StartChar: GAFbar
Encoding: 1114122 -1 44
Width: 999
VWidth: 1854
Flags: HMW
LayerCount: 2
Fore
SplineSet
814 1871 m 1
 844 1725 l 1
 591 1673 332 1570 116 1432 c 1
 35 1558 l 1
 269 1708 543 1815 814 1871 c 1
EndSplineSet
Colour: ff00ff
EndChar

StartChar: dotlessfinalBEH
Encoding: 1114123 -1 45
Width: 1973
VWidth: 1854
Flags: HMW
AnchorPoint: "Anchor-5" 944 823 basechar 0
AnchorPoint: "Anchor-3" 767 -4 basechar 0
LayerCount: 2
Fore
SplineSet
143 717 m 1
 329 641 l 1
 298 566 277 466 277 413 c 0
 277 260 406 177 767 177 c 0
 1238 177 1522 278 1581 520 c 2
 1606 619 l 1
 1800 570 l 1
 1776 472 l 2
 1761 410 1751 354 1751 310 c 0
 1751 233 1753 175 1973 175 c 1
 1973 -25 l 1
 1774 -25 1634 36 1577 169 c 1
 1380 18 1089 -23 767 -23 c 0
 412 -23 77 70 77 413 c 0
 77 505 103 618 143 717 c 1
EndSplineSet
Colour: ffff
EndChar

StartChar: dotlessinitialFEH
Encoding: 1114124 -1 46
Width: 871
VWidth: 1854
Flags: HMW
AnchorPoint: "Anchor-5" 413 1073 basechar 0
AnchorPoint: "Anchor-3" 372 -4 basechar 0
LayerCount: 2
Fore
SplineSet
589 544 m 1
 571 752 497 898 413 898 c 0
 357 898 255 797 255 651 c 0
 255 553 294 522 431 522 c 0
 489 522 539 530 589 544 c 1
0 -25 m 0
 -55 -25 -100 20 -100 75 c 0
 -100 130 -55 177 0 177 c 0
 357 177 532 206 577 336 c 1
 531 327 483 322 431 322 c 0
 246 322 55 413 55 651 c 0
 55 855 189 1098 413 1098 c 0
 765 1098 793 611 793 446 c 0
 793 -8 378 -25 0 -25 c 0
EndSplineSet
Colour: ffff
EndChar

StartChar: dotlessfinalFEH
Encoding: 1114125 -1 47
Width: 1876
VWidth: 2374
Flags: HMW
AnchorPoint: "Anchor-5" 1406 887 basechar 0
AnchorPoint: "Anchor-3" 891 0 basechar 0
LayerCount: 2
Fore
SplineSet
1419 256 m 1
 1521 303 1582 370 1582 489 c 0
 1582 619 1521 665 1422 665 c 0
 1321 665 1262 620 1262 489 c 0
 1262 373 1322 304 1419 256 c 1
1417 40 m 1
 1268 -8 1088 -25 891 -25 c 0
 509 -25 79 11 79 400 c 0
 79 519 114 626 142 710 c 1
 332 648 l 1
 305 565 279 479 279 400 c 0
 279 235 457 175 891 175 c 0
 993 175 1089 180 1174 191 c 1
 1103 268 1062 371 1062 489 c 0
 1062 718 1217 865 1422 865 c 0
 1623 865 1782 719 1782 489 c 0
 1782 370 1741 266 1667 188 c 1
 1733 179 1803 175 1876 175 c 1
 1876 -25 l 1
 1712 -25 1548 -6 1417 40 c 1
EndSplineSet
Colour: ffff
EndChar

StartChar: dotlessmedialFEH
Encoding: 1114126 -1 48
Width: 908
VWidth: 1870
Flags: HMW
LayerCount: 2
Fore
SplineSet
454 254 m 1
 553 302 614 372 614 489 c 0
 614 619 553 665 454 665 c 0
 353 665 294 620 294 489 c 0
 294 372 355 302 454 254 c 1
0 175 m 0
 73 175 143 179 209 188 c 1
 136 266 94 369 94 489 c 0
 94 718 249 865 454 865 c 0
 655 865 814 719 814 489 c 0
 814 369 772 266 699 188 c 1
 765 179 835 175 908 175 c 1
 908 -25 l 1
 746 -25 584 -6 454 39 c 1
 324 -6 162 -25 0 -25 c 0
 -55 -25 -100 20 -100 75 c 0
 -100 130 -55 175 0 175 c 0
EndSplineSet
Colour: ffff
EndChar

StartChar: dotlessfinalQAF
Encoding: 1114127 -1 49
Width: 1505
VWidth: 1854
Flags: HMW
AnchorPoint: "Anchor-3" 728 -504 basechar 0
AnchorPoint: "Anchor-5" 1047 726 basechar 0
LayerCount: 2
Fore
SplineSet
1224 175 m 1
 1209 388 1136 551 1047 551 c 0
 991 551 889 450 889 304 c 0
 889 206 928 175 1065 175 c 2
 1224 175 l 1
1505 175 m 1
 1505 -25 l 1
 1416 -25 l 1
 1354 -369 1039 -529 728 -529 c 0
 417 -529 78 -360 78 -3 c 0
 78 244 201 459 312 612 c 1
 474 494 l 1
 373 355 278 176 278 -3 c 0
 278 -200 465 -329 728 -329 c 0
 968 -329 1158 -220 1211 -25 c 1
 1065 -25 l 2
 880 -25 689 66 689 304 c 0
 689 508 823 751 1047 751 c 0
 1362 751 1414 354 1425 175 c 1
 1505 175 l 1
EndSplineSet
Colour: ffff
EndChar

StartChar: dotlessinitialNOON
Encoding: 1114128 -1 50
Width: 1740
VWidth: 1854
Flags: HMW
AnchorPoint: "Anchor-3" 758 -502 basechar 0
AnchorPoint: "Anchor-5" 877 773 basechar 0
LayerCount: 2
Fore
SplineSet
285 604 m 1
 455 498 l 1
 342 316 278 137 278 1 c 0
 278 -194 483 -328 759 -328 c 0
 1056 -328 1314 -173 1314 86 c 0
 1314 151 1300 226 1266 315 c 2
 1176 547 l 1
 1362 620 l 1
 1478 324 l 2
 1520 217 1554 174 1740 174 c 1
 1740 -26 l 1
 1654 -26 1577 -15 1509 12 c 1
 1462 -362 1084 -528 759 -528 c 0
 443 -528 78 -364 78 1 c 0
 78 195 160 404 285 604 c 1
EndSplineSet
Colour: ffff
EndChar

StartChar: uniFEFB
Encoding: 65275 65275 51
Width: 959
VWidth: 1854
Flags: HMW
AnchorPoint: "Anchor-4" 41 1346 baselig 1
AnchorPoint: "Anchor-4" 844 1411 baselig 0
AnchorPoint: "Anchor-2" 178 0 baselig 1
AnchorPoint: "Anchor-2" 832 0 baselig 0
LayerCount: 2
Fore
SplineSet
609 508 m 1
 514 385 410 280 316 198 c 1
 365 183 421 175 477 175 c 0
 630 175 681 201 681 296 c 0
 681 329 658 411 609 508 c 1
500 697 m 1
 360 912 158 1143 -16 1264 c 1
 98 1428 l 1
 283 1300 468 1093 613 886 c 1
 692 1044 744 1219 744 1411 c 1
 944 1411 l 1
 944 1139 856 896 736 694 c 1
 820 547 881 413 881 296 c 0
 881 29 640 -25 477 -25 c 0
 343 -25 215 9 125 65 c 2
 78 94 l 1
 78 261 l 1
 115 291 l 2
 235 387 380 526 500 697 c 1
EndSplineSet
PairPos2: "'kern' Horizontal Kerning in Arabic lookup 2 per glyph data 0" uni0686 dx=-150 dy=0 dh=-150 dv=0 dx=0 dy=0 dh=0 dv=0
PairPos2: "'kern' Horizontal Kerning in Arabic lookup 2 per glyph data 0" uni063A dx=-350 dy=0 dh=-350 dv=0 dx=0 dy=0 dh=0 dv=0
PairPos2: "'kern' Horizontal Kerning in Arabic lookup 2 per glyph data 0" uni0639 dx=-350 dy=0 dh=-350 dv=0 dx=0 dy=0 dh=0 dv=0
PairPos2: "'kern' Horizontal Kerning in Arabic lookup 2 per glyph data 0" uni062E dx=-150 dy=0 dh=-150 dv=0 dx=0 dy=0 dh=0 dv=0
PairPos2: "'kern' Horizontal Kerning in Arabic lookup 2 per glyph data 0" uni062D dx=-150 dy=0 dh=-150 dv=0 dx=0 dy=0 dh=0 dv=0
PairPos2: "'kern' Horizontal Kerning in Arabic lookup 2 per glyph data 0" uni062C dx=-150 dy=0 dh=-150 dv=0 dx=0 dy=0 dh=0 dv=0
LCarets2: 1 0
Ligature2: "'rlig' Required Ligatures in Arabic lookup 5 subtable" uniFEDF uniFE8E
Colour: ffff
EndChar

StartChar: uniFEFC
Encoding: 65276 65276 52
Width: 1450
VWidth: 1854
Flags: HMW
AnchorPoint: "Anchor-2" 1054 0 baselig 0
AnchorPoint: "Anchor-2" 344 0 baselig 1
AnchorPoint: "Anchor-4" 1066 1411 baselig 0
AnchorPoint: "Anchor-4" 229 1411 baselig 1
LayerCount: 2
Fore
SplineSet
707 400 m 1
 509 373 l 1
 465 691 339 1049 157 1285 c 1
 315 1407 l 1
 527 1132 659 747 707 400 c 1
1450 -25 m 1
 1266 -25 1113 34 1037 169 c 1
 881 20 588 -25 178 -25 c 1
 178 175 l 1
 832 175 966 267 966 516 c 2
 966 1411 l 1
 1166 1411 l 1
 1166 517 l 2
 1166 378 1189 292 1225 247 c 0
 1258 206 1317 175 1450 175 c 1
 1450 -25 l 1
EndSplineSet
PairPos2: "'kern' Horizontal Kerning in Arabic lookup 2 per glyph data 0" uni0686 dx=-150 dy=0 dh=-150 dv=0 dx=0 dy=0 dh=0 dv=0
PairPos2: "'kern' Horizontal Kerning in Arabic lookup 2 per glyph data 0" uni063A dx=-350 dy=0 dh=-350 dv=0 dx=0 dy=0 dh=0 dv=0
PairPos2: "'kern' Horizontal Kerning in Arabic lookup 2 per glyph data 0" uni0639 dx=-350 dy=0 dh=-350 dv=0 dx=0 dy=0 dh=0 dv=0
PairPos2: "'kern' Horizontal Kerning in Arabic lookup 2 per glyph data 0" uni062E dx=-150 dy=0 dh=-150 dv=0 dx=0 dy=0 dh=0 dv=0
PairPos2: "'kern' Horizontal Kerning in Arabic lookup 2 per glyph data 0" uni062D dx=-150 dy=0 dh=-150 dv=0 dx=0 dy=0 dh=0 dv=0
PairPos2: "'kern' Horizontal Kerning in Arabic lookup 2 per glyph data 0" uni062C dx=-150 dy=0 dh=-150 dv=0 dx=0 dy=0 dh=0 dv=0
LCarets2: 1 0
Ligature2: "'rlig' Required Ligatures in Arabic lookup 5 subtable" uniFEE0 uniFE8E
Colour: ffff
EndChar

StartChar: uni060C
Encoding: 1548 1548 59
Width: 558
VWidth: 1854
Flags: HMW
LayerCount: 2
Fore
SplineSet
276 635 m 1
 353 581 l 1
 300 520 235 390 235 295 c 1
 338 295 438 253 438 151 c 0
 438 81 399 0 286 0 c 0
 177 0 120 77 120 190 c 0
 120 392 196 537 276 635 c 1
EndSplineSet
EndChar

StartChar: uni0615
Encoding: 1557 1557 61
Width: 0
VWidth: 1854
Flags: HMW
AnchorPoint: "Anchor-5" 1 1209 mark 0
AnchorPoint: "Anchor-4" 1 1209 mark 0
AnchorPoint: "Anchor-1" 1 1209 mark 0
AnchorPoint: "Anchor-1" 0 1598 basemark 0
LayerCount: 2
Fore
SplineSet
215 1426 m 1
 404 1434 452 1464 452 1516 c 0
 452 1552 433 1570 394 1570 c 0
 350 1570 278 1533 215 1426 c 1
552 1516 m 0
 552 1332 329 1326 119 1324 c 2
 0 1324 l 1
 0 1424 l 1
 100 1424 l 1
 100 1837 l 1
 200 1837 l 1
 200 1573 l 1
 260 1636 327 1670 394 1670 c 0
 479 1670 552 1610 552 1516 c 0
EndSplineSet
Colour: ff00
EndChar

StartChar: less
Encoding: 60 60 63
Width: 775
VWidth: 1819
Flags: HMW
LayerCount: 2
Fore
SplineSet
545 1179 m 1
 649 1071 l 1
 287 728 l 1
 649 384 l 1
 545 276 l 1
 69 728 l 1
 545 1179 l 1
EndSplineSet
Colour: ff00ff
EndChar

StartChar: greater
Encoding: 62 62 65
Width: 775
VWidth: 1819
Flags: HMW
LayerCount: 2
Fore
SplineSet
173 276 m 1
 69 384 l 1
 431 727 l 1
 69 1071 l 1
 173 1179 l 1
 649 727 l 1
 173 276 l 1
EndSplineSet
Colour: ff00
EndChar

StartChar: braceleft
Encoding: 123 123 66
Width: 656
VWidth: 1647
Flags: HMW
LayerCount: 2
Fore
SplineSet
556 152 m 1
 556 94 556 36 556 -22 c 1
 422 -22 l 2
 288 -22 185 69 185 189 c 2
 185 465 l 2
 185 547 133 599 69 617 c 2
 0 637 l 1
 0 773 l 1
 69 793 l 2
 133 811 185 863 185 945 c 2
 185 1221 l 2
 185 1340 287 1434 422 1434 c 2
 556 1434 l 1
 556 1258 l 1
 422 1258 l 2
 395 1258 385 1254 385 1221 c 2
 385 945 l 2
 385 849 344 765 276 705 c 1
 343 646 385 561 385 465 c 2
 385 189 l 2
 385 157 394 152 422 152 c 2
 556 152 l 1
EndSplineSet
Colour: ffff00
EndChar

StartChar: braceright
Encoding: 125 125 67
Width: 656
VWidth: 1647
Flags: HMW
LayerCount: 2
Fore
SplineSet
100 1258 m 1
 100 1434 l 1
 234 1434 l 2
 368 1434 471 1342 471 1222 c 2
 471 946 l 2
 471 864 523 812 587 794 c 2
 656 774 l 1
 656 638 l 1
 587 618 l 2
 523 600 471 548 471 466 c 2
 471 190 l 2
 471 71 369 -22 234 -22 c 2
 100 -22 l 1
 100 152 l 1
 234 152 l 2
 261 152 271 157 271 190 c 2
 271 466 l 2
 271 562 312 646 380 706 c 1
 313 765 271 850 271 946 c 2
 271 1222 l 2
 271 1254 262 1258 234 1258 c 2
 100 1258 l 1
EndSplineSet
Colour: ffff00
EndChar

StartChar: uni061F
Encoding: 1567 1567 70
Width: 1067
VWidth: 1854
Flags: HMW
LayerCount: 2
Fore
SplineSet
961 936 m 1
 763 960 l 1
 766 981 767 1001 767 1024 c 0
 767 1174 693 1258 539 1258 c 0
 400 1258 300 1159 300 983 c 0
 300 893 339 861 416 810 c 0
 518 742 654 631 654 405 c 1
 454 405 l 1
 454 563 383 612 296 670 c 0
 204 730 100 821 100 983 c 0
 100 1215 256 1434 539 1434 c 0
 825 1434 967 1236 967 1024 c 0
 967 997 966 967 961 936 c 1
EndSplineSet
Refer: 0 46 N 1 0 0 1 325 0 2
Colour: ffff00
EndChar

StartChar: uni0621
Encoding: 1569 1569 71
Width: 878
VWidth: 1854
Flags: HMW
AnchorPoint: "Anchor-5" 431 831 basechar 0
AnchorPoint: "Anchor-3" 431 65 basechar 0
LayerCount: 2
Fore
SplineSet
697 631 m 1
 583 535 l 1
 551 573 504 606 431 606 c 0
 348 606 259 539 259 410 c 0
 259 335 330 296 505 295 c 1
 718 383 l 1
 776 245 l 1
 161 -9 l 1
 103 129 l 1
 251 190 l 1
 170 228 109 295 109 410 c 0
 109 617 264 756 431 756 c 0
 556 756 645 693 697 631 c 1
EndSplineSet
Colour: ff00ff
EndChar

StartChar: uni0627
Encoding: 1575 1575 72
Width: 500
VWidth: 1854
Flags: HMW
AnchorPoint: "Anchor-5" 251 1411 basechar 0
AnchorPoint: "Anchor-3" 251 0 basechar 0
LayerCount: 2
Fore
SplineSet
350 0 m 1
 150 0 l 1
 150 1411 l 1
 350 1411 l 1
 350 0 l 1
EndSplineSet
PairPos2: "'kern' Horizontal Kerning in Arabic lookup 2 per glyph data 1" uni063A dx=-225 dy=0 dh=-225 dv=0 dx=0 dy=0 dh=0 dv=0
PairPos2: "'kern' Horizontal Kerning in Arabic lookup 2 per glyph data 1" uni0639 dx=-225 dy=0 dh=-225 dv=0 dx=0 dy=0 dh=0 dv=0
PairPos2: "'kern' Horizontal Kerning in Arabic lookup 2 per glyph data 0" uni0639 dx=-300 dy=0 dh=-300 dv=0 dx=0 dy=0 dh=0 dv=0
PairPos2: "'kern' Horizontal Kerning in Arabic lookup 2 per glyph data 0" uni063A dx=-300 dy=0 dh=-300 dv=0 dx=0 dy=0 dh=0 dv=0
Substitution2: "'medi' Medial Forms in Arabic lookup 3 subtable" uniFE8E
Substitution2: "'fina' Terminal Forms in Arabic lookup 2 subtable" uniFE8E
Colour: ffff
EndChar

StartChar: uni062D
Encoding: 1581 1581 73
Width: 1464
VWidth: 1854
Flags: HMW
AnchorPoint: "Anchor-3" 775 -860 basechar 0
AnchorPoint: "Anchor-5" 513 815 basechar 0
LayerCount: 2
Fore
SplineSet
384 454 m 1
 192 398 l 1
 179 443 174 485 174 524 c 0
 174 727 331 866 522 866 c 0
 587 866 655 852 724 819 c 2
 1340 523 l 1
 1340 329 l 1
 1262 311 l 1
 702 188 278 30 278 -320 c 0
 278 -562 492 -686 775 -686 c 0
 948 -686 1122 -632 1222 -549 c 1
 1350 -703 l 1
 1200 -828 984 -886 775 -886 c 0
 450 -886 78 -724 78 -320 c 0
 78 158 561 343 1013 458 c 1
 638 639 l 2
 595 659 557 666 522 666 c 0
 429 666 374 615 374 524 c 0
 374 503 377 477 384 454 c 1
EndSplineSet
Substitution2: "'init' Initial Forms in Arabic lookup 4 subtable" uniFEA3
Substitution2: "'medi' Medial Forms in Arabic lookup 3 subtable" uniFEA4
Substitution2: "'fina' Terminal Forms in Arabic lookup 2 subtable" uniFEA2
Colour: ffff
EndChar

StartChar: uni062F
Encoding: 1583 1583 74
Width: 936
VWidth: 1854
Flags: HMW
AnchorPoint: "Anchor-5" 485 904 basechar 0
AnchorPoint: "Anchor-3" 469 0 basechar 0
LayerCount: 2
Fore
SplineSet
361 781 m 1
 503 923 l 1
 707 718 858 509 858 287 c 0
 858 -8 493 -25 320 -25 c 0
 263 -25 157 -13 99 -2 c 1
 137 194 l 1
 173 187 291 175 320 175 c 0
 545 175 658 228 658 287 c 0
 658 413 557 584 361 781 c 1
EndSplineSet
PairPos2: "'kern' Horizontal Kerning in Arabic lookup 2 per glyph data 3" uniFEDB dx=-300 dy=0 dh=-300 dv=0 dx=0 dy=0 dh=0 dv=0
PairPos2: "'kern' Horizontal Kerning in Arabic lookup 2 per glyph data 3" uniFB94 dx=-300 dy=0 dh=-300 dv=0 dx=0 dy=0 dh=0 dv=0
PairPos2: "'kern' Horizontal Kerning in Arabic lookup 2 per glyph data 3" uniFB90 dx=-300 dy=0 dh=-300 dv=0 dx=0 dy=0 dh=0 dv=0
PairPos2: "'kern' Horizontal Kerning in Arabic lookup 2 per glyph data 3" uni06AF dx=-300 dy=0 dh=-300 dv=0 dx=0 dy=0 dh=0 dv=0
PairPos2: "'kern' Horizontal Kerning in Arabic lookup 2 per glyph data 3" uni06A9 dx=-300 dy=0 dh=-300 dv=0 dx=0 dy=0 dh=0 dv=0
PairPos2: "'kern' Horizontal Kerning in Arabic lookup 2 per glyph data 1" uni063A dx=-375 dy=0 dh=-375 dv=0 dx=0 dy=0 dh=0 dv=0
PairPos2: "'kern' Horizontal Kerning in Arabic lookup 2 per glyph data 1" uni0639 dx=-375 dy=0 dh=-375 dv=0 dx=0 dy=0 dh=0 dv=0
Substitution2: "'fina' Terminal Forms in Arabic lookup 2 subtable" uniFEAA
Colour: ffff
EndChar

StartChar: uni0631
Encoding: 1585 1585 75
Width: 784
VWidth: 1854
Flags: HMW
AnchorPoint: "Anchor-3" 488 -402 basechar 0
AnchorPoint: "Anchor-5" 506 571 basechar 0
LayerCount: 2
Fore
SplineSet
413 534 m 1
 599 608 l 1
 666 440 706 281 706 131 c 0
 706 -175 531 -413 184 -540 c 1
 116 -352 l 1
 405 -247 506 -87 506 131 c 0
 506 245 474 382 413 534 c 1
EndSplineSet
PairPos2: "'kern' Horizontal Kerning in Arabic lookup 2 per glyph data 2" uni0621 dx=-200 dy=0 dh=-200 dv=0 dx=0 dy=0 dh=0 dv=0
PairPos2: "'kern' Horizontal Kerning in Arabic lookup 2 per glyph data 4" parenleft dx=-300 dy=0 dh=-300 dv=0 dx=0 dy=0 dh=0 dv=0
PairPos2: "'kern' Horizontal Kerning in Arabic lookup 2 per glyph data 4" less dx=-420 dy=0 dh=-420 dv=0 dx=0 dy=0 dh=0 dv=0
PairPos2: "'kern' Horizontal Kerning in Arabic lookup 2 per glyph data 4" guillemotleft dx=-420 dy=0 dh=-420 dv=0 dx=0 dy=0 dh=0 dv=0
PairPos2: "'kern' Horizontal Kerning in Arabic lookup 2 per glyph data 4" bracketleft dx=-300 dy=0 dh=-300 dv=0 dx=0 dy=0 dh=0 dv=0
PairPos2: "'kern' Horizontal Kerning in Arabic lookup 2 per glyph data 3" uniFEDB dx=-300 dy=0 dh=-300 dv=0 dx=0 dy=0 dh=0 dv=0
PairPos2: "'kern' Horizontal Kerning in Arabic lookup 2 per glyph data 3" uniFB94 dx=-300 dy=0 dh=-300 dv=0 dx=0 dy=0 dh=0 dv=0
PairPos2: "'kern' Horizontal Kerning in Arabic lookup 2 per glyph data 3" uniFB90 dx=-300 dy=0 dh=-300 dv=0 dx=0 dy=0 dh=0 dv=0
PairPos2: "'kern' Horizontal Kerning in Arabic lookup 2 per glyph data 3" uni06AF dx=-300 dy=0 dh=-300 dv=0 dx=0 dy=0 dh=0 dv=0
PairPos2: "'kern' Horizontal Kerning in Arabic lookup 2 per glyph data 3" uni06A9 dx=-300 dy=0 dh=-300 dv=0 dx=0 dy=0 dh=0 dv=0
PairPos2: "'kern' Horizontal Kerning in Arabic lookup 2 per glyph data 2" uni064A dx=-100 dy=0 dh=-100 dv=0 dx=0 dy=0 dh=0 dv=0
PairPos2: "'kern' Horizontal Kerning in Arabic lookup 2 per glyph data 2" uni0649 dx=-100 dy=0 dh=-100 dv=0 dx=0 dy=0 dh=0 dv=0
PairPos2: "'kern' Horizontal Kerning in Arabic lookup 2 per glyph data 2" uni06CC dx=-100 dy=0 dh=-100 dv=0 dx=0 dy=0 dh=0 dv=0
PairPos2: "'kern' Horizontal Kerning in Arabic lookup 2 per glyph data 2" space dx=-300 dy=0 dh=-300 dv=0 dx=0 dy=0 dh=0 dv=0
PairPos2: "'kern' Horizontal Kerning in Arabic lookup 2 per glyph data 2" uniFEFB dx=-325 dy=0 dh=-325 dv=0 dx=0 dy=0 dh=0 dv=0
PairPos2: "'kern' Horizontal Kerning in Arabic lookup 2 per glyph data 2" uniFEF9 dx=-325 dy=0 dh=-325 dv=0 dx=0 dy=0 dh=0 dv=0
PairPos2: "'kern' Horizontal Kerning in Arabic lookup 2 per glyph data 2" uniFEF7 dx=-325 dy=0 dh=-325 dv=0 dx=0 dy=0 dh=0 dv=0
PairPos2: "'kern' Horizontal Kerning in Arabic lookup 2 per glyph data 2" uniFEF5 dx=-325 dy=0 dh=-325 dv=0 dx=0 dy=0 dh=0 dv=0
PairPos2: "'kern' Horizontal Kerning in Arabic lookup 2 per glyph data 2" uniFEEB dx=-250 dy=0 dh=-250 dv=0 dx=0 dy=0 dh=0 dv=0
PairPos2: "'kern' Horizontal Kerning in Arabic lookup 2 per glyph data 2" uniFEE7 dx=-225 dy=0 dh=-225 dv=0 dx=0 dy=0 dh=0 dv=0
PairPos2: "'kern' Horizontal Kerning in Arabic lookup 2 per glyph data 2" uniFEE3 dx=-300 dy=0 dh=-300 dv=0 dx=0 dy=0 dh=0 dv=0
PairPos2: "'kern' Horizontal Kerning in Arabic lookup 2 per glyph data 2" uniFEDF dx=-325 dy=0 dh=-325 dv=0 dx=0 dy=0 dh=0 dv=0
PairPos2: "'kern' Horizontal Kerning in Arabic lookup 2 per glyph data 2" uniFEDB dx=-500 dy=0 dh=-500 dv=0 dx=0 dy=0 dh=0 dv=0
PairPos2: "'kern' Horizontal Kerning in Arabic lookup 2 per glyph data 2" uniFED7 dx=-250 dy=0 dh=-250 dv=0 dx=0 dy=0 dh=0 dv=0
PairPos2: "'kern' Horizontal Kerning in Arabic lookup 2 per glyph data 2" uniFED3 dx=-250 dy=0 dh=-250 dv=0 dx=0 dy=0 dh=0 dv=0
PairPos2: "'kern' Horizontal Kerning in Arabic lookup 2 per glyph data 2" uniFECF dx=-300 dy=0 dh=-300 dv=0 dx=0 dy=0 dh=0 dv=0
PairPos2: "'kern' Horizontal Kerning in Arabic lookup 2 per glyph data 2" uniFECB dx=-300 dy=0 dh=-300 dv=0 dx=0 dy=0 dh=0 dv=0
PairPos2: "'kern' Horizontal Kerning in Arabic lookup 2 per glyph data 2" uniFEC7 dx=-300 dy=0 dh=-300 dv=0 dx=0 dy=0 dh=0 dv=0
PairPos2: "'kern' Horizontal Kerning in Arabic lookup 2 per glyph data 2" uniFEC3 dx=-300 dy=0 dh=-300 dv=0 dx=0 dy=0 dh=0 dv=0
PairPos2: "'kern' Horizontal Kerning in Arabic lookup 2 per glyph data 2" uniFEBF dx=-300 dy=0 dh=-300 dv=0 dx=0 dy=0 dh=0 dv=0
PairPos2: "'kern' Horizontal Kerning in Arabic lookup 2 per glyph data 2" uniFEBB dx=-300 dy=0 dh=-300 dv=0 dx=0 dy=0 dh=0 dv=0
PairPos2: "'kern' Horizontal Kerning in Arabic lookup 2 per glyph data 2" uniFEB7 dx=-200 dy=0 dh=-200 dv=0 dx=0 dy=0 dh=0 dv=0
PairPos2: "'kern' Horizontal Kerning in Arabic lookup 2 per glyph data 2" uniFEB3 dx=-200 dy=0 dh=-200 dv=0 dx=0 dy=0 dh=0 dv=0
PairPos2: "'kern' Horizontal Kerning in Arabic lookup 2 per glyph data 2" uniFEA7 dx=-250 dy=0 dh=-250 dv=0 dx=0 dy=0 dh=0 dv=0
PairPos2: "'kern' Horizontal Kerning in Arabic lookup 2 per glyph data 2" uniFEA3 dx=-250 dy=0 dh=-250 dv=0 dx=0 dy=0 dh=0 dv=0
PairPos2: "'kern' Horizontal Kerning in Arabic lookup 2 per glyph data 2" uniFE9F dx=-250 dy=0 dh=-250 dv=0 dx=0 dy=0 dh=0 dv=0
PairPos2: "'kern' Horizontal Kerning in Arabic lookup 2 per glyph data 2" uniFE9B dx=-225 dy=0 dh=-225 dv=0 dx=0 dy=0 dh=0 dv=0
PairPos2: "'kern' Horizontal Kerning in Arabic lookup 2 per glyph data 2" uniFE97 dx=-225 dy=0 dh=-225 dv=0 dx=0 dy=0 dh=0 dv=0
PairPos2: "'kern' Horizontal Kerning in Arabic lookup 2 per glyph data 2" uniFE91 dx=-225 dy=0 dh=-225 dv=0 dx=0 dy=0 dh=0 dv=0
PairPos2: "'kern' Horizontal Kerning in Arabic lookup 2 per glyph data 2" uniFE8B dx=-225 dy=0 dh=-225 dv=0 dx=0 dy=0 dh=0 dv=0
PairPos2: "'kern' Horizontal Kerning in Arabic lookup 2 per glyph data 2" uniFB94 dx=-400 dy=0 dh=-400 dv=0 dx=0 dy=0 dh=0 dv=0
PairPos2: "'kern' Horizontal Kerning in Arabic lookup 2 per glyph data 2" uniFB90 dx=-400 dy=0 dh=-400 dv=0 dx=0 dy=0 dh=0 dv=0
PairPos2: "'kern' Horizontal Kerning in Arabic lookup 2 per glyph data 2" uniFB7C dx=-250 dy=0 dh=-250 dv=0 dx=0 dy=0 dh=0 dv=0
PairPos2: "'kern' Horizontal Kerning in Arabic lookup 2 per glyph data 2" uni06CA dx=-150 dy=0 dh=-150 dv=0 dx=0 dy=0 dh=0 dv=0
PairPos2: "'kern' Horizontal Kerning in Arabic lookup 2 per glyph data 2" uni06C0 dx=-300 dy=0 dh=-300 dv=0 dx=0 dy=0 dh=0 dv=0
PairPos2: "'kern' Horizontal Kerning in Arabic lookup 2 per glyph data 2" uni06AF dx=-400 dy=0 dh=-400 dv=0 dx=0 dy=0 dh=0 dv=0
PairPos2: "'kern' Horizontal Kerning in Arabic lookup 2 per glyph data 2" uni06A9 dx=-400 dy=0 dh=-400 dv=0 dx=0 dy=0 dh=0 dv=0
PairPos2: "'kern' Horizontal Kerning in Arabic lookup 2 per glyph data 2" uni0698 dx=-150 dy=0 dh=-150 dv=0 dx=0 dy=0 dh=0 dv=0
PairPos2: "'kern' Horizontal Kerning in Arabic lookup 2 per glyph data 2" uni0686 dx=-125 dy=0 dh=-125 dv=0 dx=0 dy=0 dh=0 dv=0
PairPos2: "'kern' Horizontal Kerning in Arabic lookup 2 per glyph data 2" uni067E dx=-300 dy=0 dh=-300 dv=0 dx=0 dy=0 dh=0 dv=0
PairPos2: "'kern' Horizontal Kerning in Arabic lookup 2 per glyph data 2" uni0648 dx=-150 dy=0 dh=-150 dv=0 dx=0 dy=0 dh=0 dv=0
PairPos2: "'kern' Horizontal Kerning in Arabic lookup 2 per glyph data 2" uni0647 dx=-300 dy=0 dh=-300 dv=0 dx=0 dy=0 dh=0 dv=0
PairPos2: "'kern' Horizontal Kerning in Arabic lookup 2 per glyph data 2" uni0646 dx=-150 dy=0 dh=-150 dv=0 dx=0 dy=0 dh=0 dv=0
PairPos2: "'kern' Horizontal Kerning in Arabic lookup 2 per glyph data 2" uni0645 dx=-300 dy=0 dh=-300 dv=0 dx=0 dy=0 dh=0 dv=0
PairPos2: "'kern' Horizontal Kerning in Arabic lookup 2 per glyph data 2" uni0644 dx=-112 dy=0 dh=-112 dv=0 dx=0 dy=0 dh=0 dv=0
PairPos2: "'kern' Horizontal Kerning in Arabic lookup 2 per glyph data 2" uni0643 dx=-300 dy=0 dh=-300 dv=0 dx=0 dy=0 dh=0 dv=0
PairPos2: "'kern' Horizontal Kerning in Arabic lookup 2 per glyph data 2" uni0642 dx=-150 dy=0 dh=-150 dv=0 dx=0 dy=0 dh=0 dv=0
PairPos2: "'kern' Horizontal Kerning in Arabic lookup 2 per glyph data 2" uni0641 dx=-250 dy=0 dh=-250 dv=0 dx=0 dy=0 dh=0 dv=0
PairPos2: "'kern' Horizontal Kerning in Arabic lookup 2 per glyph data 2" uni0638 dx=-300 dy=0 dh=-300 dv=0 dx=0 dy=0 dh=0 dv=0
PairPos2: "'kern' Horizontal Kerning in Arabic lookup 2 per glyph data 2" uni0637 dx=-300 dy=0 dh=-300 dv=0 dx=0 dy=0 dh=0 dv=0
PairPos2: "'kern' Horizontal Kerning in Arabic lookup 2 per glyph data 2" uni0636 dx=-300 dy=0 dh=-300 dv=0 dx=0 dy=0 dh=0 dv=0
PairPos2: "'kern' Horizontal Kerning in Arabic lookup 2 per glyph data 2" uni0635 dx=-300 dy=0 dh=-300 dv=0 dx=0 dy=0 dh=0 dv=0
PairPos2: "'kern' Horizontal Kerning in Arabic lookup 2 per glyph data 2" uni0634 dx=-200 dy=0 dh=-200 dv=0 dx=0 dy=0 dh=0 dv=0
PairPos2: "'kern' Horizontal Kerning in Arabic lookup 2 per glyph data 2" uni0633 dx=-200 dy=0 dh=-200 dv=0 dx=0 dy=0 dh=0 dv=0
PairPos2: "'kern' Horizontal Kerning in Arabic lookup 2 per glyph data 2" uni0632 dx=-150 dy=0 dh=-150 dv=0 dx=0 dy=0 dh=0 dv=0
PairPos2: "'kern' Horizontal Kerning in Arabic lookup 2 per glyph data 2" uni0631 dx=-150 dy=0 dh=-150 dv=0 dx=0 dy=0 dh=0 dv=0
PairPos2: "'kern' Horizontal Kerning in Arabic lookup 2 per glyph data 2" uni0630 dx=-250 dy=0 dh=-250 dv=0 dx=0 dy=0 dh=0 dv=0
PairPos2: "'kern' Horizontal Kerning in Arabic lookup 2 per glyph data 2" uni062F dx=-250 dy=0 dh=-250 dv=0 dx=0 dy=0 dh=0 dv=0
PairPos2: "'kern' Horizontal Kerning in Arabic lookup 2 per glyph data 2" uni062E dx=-125 dy=0 dh=-125 dv=0 dx=0 dy=0 dh=0 dv=0
PairPos2: "'kern' Horizontal Kerning in Arabic lookup 2 per glyph data 2" uni062D dx=-125 dy=0 dh=-125 dv=0 dx=0 dy=0 dh=0 dv=0
PairPos2: "'kern' Horizontal Kerning in Arabic lookup 2 per glyph data 2" uni062C dx=-125 dy=0 dh=-125 dv=0 dx=0 dy=0 dh=0 dv=0
PairPos2: "'kern' Horizontal Kerning in Arabic lookup 2 per glyph data 2" uni062B dx=-300 dy=0 dh=-300 dv=0 dx=0 dy=0 dh=0 dv=0
PairPos2: "'kern' Horizontal Kerning in Arabic lookup 2 per glyph data 2" uni062A dx=-300 dy=0 dh=-300 dv=0 dx=0 dy=0 dh=0 dv=0
PairPos2: "'kern' Horizontal Kerning in Arabic lookup 2 per glyph data 2" uni0629 dx=-300 dy=0 dh=-300 dv=0 dx=0 dy=0 dh=0 dv=0
PairPos2: "'kern' Horizontal Kerning in Arabic lookup 2 per glyph data 2" uni0628 dx=-300 dy=0 dh=-300 dv=0 dx=0 dy=0 dh=0 dv=0
PairPos2: "'kern' Horizontal Kerning in Arabic lookup 2 per glyph data 2" uni0627 dx=-250 dy=0 dh=-250 dv=0 dx=0 dy=0 dh=0 dv=0
PairPos2: "'kern' Horizontal Kerning in Arabic lookup 2 per glyph data 2" uni0624 dx=-150 dy=0 dh=-150 dv=0 dx=0 dy=0 dh=0 dv=0
PairPos2: "'kern' Horizontal Kerning in Arabic lookup 2 per glyph data 2" uni0623 dx=-250 dy=0 dh=-250 dv=0 dx=0 dy=0 dh=0 dv=0
PairPos2: "'kern' Horizontal Kerning in Arabic lookup 2 per glyph data 2" uni0622 dx=-250 dy=0 dh=-250 dv=0 dx=0 dy=0 dh=0 dv=0
PairPos2: "'kern' Horizontal Kerning in Arabic lookup 2 per glyph data 2" uniFB58 dx=-150 dy=0 dh=-150 dv=0 dx=0 dy=0 dh=0 dv=0
PairPos2: "'kern' Horizontal Kerning in Arabic lookup 2 per glyph data 2" uniFEF3 dx=-150 dy=0 dh=-150 dv=0 dx=0 dy=0 dh=0 dv=0
PairPos2: "'kern' Horizontal Kerning in Arabic lookup 2 per glyph data 2" uniFBFE dx=-150 dy=0 dh=-150 dv=0 dx=0 dy=0 dh=0 dv=0
PairPos2: "'kern' Horizontal Kerning in Arabic lookup 2 per glyph data 1" uni063A dx=-350 dy=0 dh=-350 dv=0 dx=0 dy=0 dh=0 dv=0
PairPos2: "'kern' Horizontal Kerning in Arabic lookup 2 per glyph data 1" uni0639 dx=-350 dy=0 dh=-350 dv=0 dx=0 dy=0 dh=0 dv=0
Substitution2: "'fina' Terminal Forms in Arabic lookup 2 subtable" uniFEAE
Colour: ffff
EndChar

StartChar: uni0633
Encoding: 1587 1587 76
Width: 2498
VWidth: 1854
Flags: HMW
AnchorPoint: "Anchor-5" 1870 574 basechar 0
AnchorPoint: "Anchor-3" 751 -502 basechar 0
LayerCount: 2
Fore
SplineSet
1126 535 m 1
 1312 607 l 1
 1402 373 l 2
 1462 215 1547 175 1593 175 c 0
 1638 175 1711 215 1735 364 c 2
 1771 590 l 1
 1969 558 l 1
 1942 392 l 2
 1940 375 1939 358 1939 337 c 0
 1939 206 2009 175 2083 175 c 0
 2179 175 2220 232 2220 387 c 0
 2220 477 2199 584 2170 676 c 1
 2360 736 l 1
 2395 628 2420 505 2420 387 c 0
 2420 202 2341 -25 2083 -25 c 0
 1992 -25 1895 12 1827 88 c 1
 1767 18 1687 -25 1593 -25 c 0
 1546 -25 1501 -15 1459 5 c 1
 1419 -362 1059 -526 749 -526 c 0
 438 -526 78 -361 78 11 c 0
 78 194 168 403 366 636 c 1
 518 506 l 1
 338 293 278 126 278 11 c 0
 278 -195 482 -326 749 -326 c 0
 1026 -326 1263 -183 1263 74 c 0
 1263 139 1250 213 1215 302 c 2
 1126 535 l 1
EndSplineSet
Substitution2: "'init' Initial Forms in Arabic lookup 4 subtable" uniFEB3
Substitution2: "'medi' Medial Forms in Arabic lookup 3 subtable" uniFEB4
Substitution2: "'fina' Terminal Forms in Arabic lookup 2 subtable" uniFEB2
Colour: ffff
EndChar

StartChar: uni0635
Encoding: 1589 1589 77
Width: 2458
VWidth: 1854
Flags: HMW
AnchorPoint: "Anchor-3" 749 -502 basechar 0
AnchorPoint: "Anchor-5" 1983 695 basechar 0
LayerCount: 2
Fore
SplineSet
1571 203 m 1
 1641 184 1717 175 1791 175 c 0
 2032 175 2163 267 2163 367 c 0
 2163 463 2099 524 1984 524 c 0
 1875 524 1713 453 1571 203 c 1
1126 535 m 1
 1312 607 l 1
 1417 335 l 1
 1581 604 1791 724 1984 724 c 0
 2186 724 2363 586 2363 367 c 0
 2363 71 2040 -25 1791 -25 c 0
 1681 -25 1565 -7 1462 28 c 1
 1435 -355 1067 -526 750 -526 c 0
 439 -526 79 -361 79 11 c 0
 79 194 169 403 367 636 c 1
 519 506 l 1
 339 293 279 126 279 11 c 0
 279 -195 483 -326 750 -326 c 0
 1027 -326 1264 -183 1264 74 c 0
 1264 139 1251 213 1216 302 c 2
 1126 535 l 1
EndSplineSet
Substitution2: "'init' Initial Forms in Arabic lookup 4 subtable" uniFEBB
Substitution2: "'medi' Medial Forms in Arabic lookup 3 subtable" uniFEBC
Substitution2: "'fina' Terminal Forms in Arabic lookup 2 subtable" uniFEBA
Colour: ffff
EndChar

StartChar: uni0637
Encoding: 1591 1591 78
Width: 1515
VWidth: 1854
Flags: HMW
AnchorPoint: "Anchor-5" 1088 764 basechar 0
AnchorPoint: "Anchor-3" 768 0 basechar 0
LayerCount: 2
Fore
SplineSet
592 176 m 1
 1183 192 1215 317 1215 434 c 0
 1215 514 1157 565 1060 565 c 0
 948 565 719 467 592 176 c 1
378 175 m 1
 378 1411 l 1
 578 1411 l 1
 578 522 l 1
 730 689 917 765 1060 765 c 0
 1235 765 1415 648 1415 434 c 0
 1415 134 1170 -25 478 -25 c 2
 105 -25 l 1
 105 175 l 1
 378 175 l 1
EndSplineSet
Substitution2: "'init' Initial Forms in Arabic lookup 4 subtable" uniFEC3
Substitution2: "'medi' Medial Forms in Arabic lookup 3 subtable" uniFEC4
Substitution2: "'fina' Terminal Forms in Arabic lookup 2 subtable" uniFEC2
Colour: ffff
EndChar

StartChar: uni0639
Encoding: 1593 1593 79
Width: 1299
VWidth: 1854
Flags: HMW
AnchorPoint: "Anchor-5" 596 1127 basechar 0
AnchorPoint: "Anchor-3" 775 -860 basechar 0
LayerCount: 2
Fore
SplineSet
965 982 m 1
 811 854 l 1
 767 906 698 954 596 954 c 0
 479 954 354 858 354 677 c 0
 354 580 471 510 696 510 c 0
 766 510 831 517 897 528 c 2
 993 544 l 1
 1034 339 l 1
 928 325 l 2
 517 271 278 -2 278 -320 c 0
 278 -562 492 -686 775 -686 c 0
 892 -686 1012 -662 1108 -619 c 1
 1190 -801 l 1
 1064 -858 918 -886 775 -886 c 0
 450 -886 78 -724 78 -320 c 0
 78 -51 209 191 431 347 c 1
 292 390 154 494 154 677 c 0
 154 962 365 1154 596 1154 c 0
 768 1154 893 1068 965 982 c 1
EndSplineSet
Substitution2: "'init' Initial Forms in Arabic lookup 4 subtable" uniFECB
Substitution2: "'medi' Medial Forms in Arabic lookup 3 subtable" uniFECC
Substitution2: "'fina' Terminal Forms in Arabic lookup 2 subtable" uniFECA
Colour: ffff
EndChar

StartChar: uni0640
Encoding: 1600 1600 80
Width: 811
VWidth: 1854
Flags: HMW
AnchorPoint: "Anchor-5" 406 904 basechar 0
AnchorPoint: "Anchor-3" 406 0 basechar 0
LayerCount: 2
Fore
SplineSet
0 175 m 2
 811 175 l 1
 811 -25 l 1
 0 -25 l 2
 -55 -25 -100 20 -100 75 c 0
 -100 130 -55 175 0 175 c 2
EndSplineSet
Colour: ffff
EndChar

StartChar: uni0644
Encoding: 1604 1604 81
Width: 1378
VWidth: 1854
Flags: HMW
AnchorPoint: "Anchor-5" 731 712 basechar 0
AnchorPoint: "Anchor-3" 663 -502 basechar 0
LayerCount: 2
Fore
SplineSet
1067 1411 m 1
 1267 1411 l 1
 1267 126 l 2
 1267 -316 961 -528 663 -528 c 0
 383 -528 78 -341 78 -5 c 0
 78 147 129 321 234 510 c 1
 408 412 l 1
 315 245 278 103 278 -5 c 0
 278 -197 455 -328 663 -328 c 0
 865 -328 1067 -206 1067 126 c 2
 1067 1411 l 1
EndSplineSet
Substitution2: "'init' Initial Forms in Arabic lookup 4 subtable" uniFEDF
Substitution2: "'medi' Medial Forms in Arabic lookup 3 subtable" uniFEE0
Substitution2: "'fina' Terminal Forms in Arabic lookup 2 subtable" uniFEDE
Colour: ffff
EndChar

StartChar: uni0645
Encoding: 1605 1605 82
Width: 1199
VWidth: 2374
Flags: HMW
AnchorPoint: "Anchor-5" 750 696 basechar 0
AnchorPoint: "Anchor-3" 668 -50 basechar 0
LayerCount: 2
Fore
SplineSet
553 203 m 1
 617 192 725 175 778 175 c 0
 912 175 921 205 921 227 c 0
 921 440 832 521 750 521 c 0
 637 521 569 403 553 203 c 1
778 -25 m 0
 675 -25 526 13 422 13 c 0
 336 13 278 -24 278 -149 c 2
 278 -883 l 1
 78 -883 l 1
 78 -149 l 2
 78 45 194 179 353 207 c 1
 368 411 449 721 750 721 c 0
 998 721 1121 480 1121 227 c 0
 1121 17 912 -25 778 -25 c 0
EndSplineSet
Substitution2: "'init' Initial Forms in Arabic lookup 4 subtable" uniFEE3
Substitution2: "'medi' Medial Forms in Arabic lookup 3 subtable" uniFEE4
Substitution2: "'fina' Terminal Forms in Arabic lookup 2 subtable" uniFEE2
Colour: ffff
EndChar

StartChar: uni0647
Encoding: 1607 1607 83
Width: 869
VWidth: 1854
Flags: HMW
AnchorPoint: "Anchor-5" 435 872 basechar 0
AnchorPoint: "Anchor-3" 435 75 basechar 0
LayerCount: 2
Fore
SplineSet
435 -25 m 0
 234 -25 91 114 91 306 c 0
 91 506 224 687 369 814 c 2
 435 872 l 1
 501 814 l 2
 646 687 778 506 778 306 c 0
 778 115 637 -25 435 -25 c 0
435 175 m 0
 539 175 578 221 578 306 c 0
 578 393 524 503 435 600 c 1
 347 504 291 392 291 306 c 0
 291 222 330 175 435 175 c 0
EndSplineSet
Substitution2: "'init' Initial Forms in Arabic lookup 4 subtable" uniFEEB
Substitution2: "'medi' Medial Forms in Arabic lookup 3 subtable" uniFEEC
Substitution2: "'fina' Terminal Forms in Arabic lookup 2 subtable" uniFEEA
Colour: ffff
EndChar

StartChar: uni0648
Encoding: 1608 1608 84
Width: 888
VWidth: 1854
Flags: HMW
AnchorPoint: "Anchor-5" 440 725 basechar 0
AnchorPoint: "Anchor-3" 444 -502 basechar 0
LayerCount: 2
Fore
SplineSet
616 196 m 1
 598 404 524 550 440 550 c 0
 384 550 282 449 282 303 c 0
 282 205 321 174 458 174 c 0
 517 174 564 182 616 196 c 1
604 -12 m 1
 558 -21 510 -26 458 -26 c 0
 273 -26 82 65 82 303 c 0
 82 507 216 750 440 750 c 0
 792 750 820 263 820 98 c 0
 820 -241 561 -432 148 -538 c 1
 98 -344 l 1
 416 -263 560 -146 604 -12 c 1
EndSplineSet
PairPos2: "'kern' Horizontal Kerning in Arabic lookup 2 per glyph data 1" uni063A dx=-200 dy=0 dh=-200 dv=0 dx=0 dy=0 dh=0 dv=0
PairPos2: "'kern' Horizontal Kerning in Arabic lookup 2 per glyph data 1" uni0639 dx=-200 dy=0 dh=-200 dv=0 dx=0 dy=0 dh=0 dv=0
PairPos2: "'kern' Horizontal Kerning in Arabic lookup 2 per glyph data 3" uniFEDB dx=-262 dy=0 dh=-262 dv=0 dx=0 dy=0 dh=0 dv=0
PairPos2: "'kern' Horizontal Kerning in Arabic lookup 2 per glyph data 3" uniFB94 dx=-262 dy=0 dh=-262 dv=0 dx=0 dy=0 dh=0 dv=0
PairPos2: "'kern' Horizontal Kerning in Arabic lookup 2 per glyph data 3" uniFB90 dx=-262 dy=0 dh=-262 dv=0 dx=0 dy=0 dh=0 dv=0
PairPos2: "'kern' Horizontal Kerning in Arabic lookup 2 per glyph data 3" uni06AF dx=-262 dy=0 dh=-262 dv=0 dx=0 dy=0 dh=0 dv=0
PairPos2: "'kern' Horizontal Kerning in Arabic lookup 2 per glyph data 3" uni06A9 dx=-262 dy=0 dh=-262 dv=0 dx=0 dy=0 dh=0 dv=0
Substitution2: "'fina' Terminal Forms in Arabic lookup 2 subtable" uniFEEE
Colour: ffff
EndChar

StartChar: uni065A
Encoding: 1626 1626 86
Width: 0
VWidth: 1854
Flags: HMW
AnchorPoint: "Anchor-1" 0 1598 basemark 0
AnchorPoint: "Anchor-1" 1 1209 mark 0
AnchorPoint: "Anchor-4" 1 1209 mark 0
AnchorPoint: "Anchor-5" 1 1209 mark 0
LayerCount: 2
Fore
SplineSet
-246 1810 m 1
 -166 1870 l 1
 -0 1648 l 1
 166 1870 l 1
 246 1810 l 1
 -0 1482 l 1
 -246 1810 l 1
EndSplineSet
Colour: ff00
EndChar

StartChar: uni066C
Encoding: 1644 1644 88
Width: 587
VWidth: 1854
Flags: HMW
LayerCount: 2
Fore
SplineSet
179 760 m 1
 121 829 l 1
 193 887 271 994 301 1065 c 1
 228 1065 120 1128 120 1237 c 0
 120 1329 189 1411 283 1411 c 0
 379 1411 467 1350 467 1202 c 0
 467 1046 293 851 179 760 c 1
EndSplineSet
EndChar

StartChar: uni066D
Encoding: 1645 1645 89
Width: 910
VWidth: 1854
Flags: HMW
LayerCount: 2
Fore
SplineSet
530 601 m 1
 380 601 l 1
 380 876 l 1
 143 739 l 1
 67 869 l 1
 305 1006 l 1
 67 1144 l 1
 143 1274 l 1
 380 1137 l 1
 380 1411 l 1
 530 1411 l 1
 530 1137 l 1
 767 1274 l 1
 843 1144 l 1
 605 1006 l 1
 843 869 l 1
 767 739 l 1
 530 876 l 1
 530 601 l 1
EndSplineSet
Colour: ff00ff
EndChar

StartChar: uni066E
Encoding: 1646 1646 90
Width: 1782
VWidth: 1854
Flags: HMW
AnchorPoint: "Anchor-5" 892 528 basechar 0
AnchorPoint: "Anchor-3" 892 0 basechar 0
LayerCount: 2
Fore
SplineSet
1451 653 m 1
 1645 705 l 1
 1687 547 l 2
 1703 489 1705 440 1705 400 c 0
 1705 11 1274 -25 892 -25 c 0
 510 -25 78 10 78 400 c 0
 78 441 82 493 97 547 c 2
 139 705 l 1
 333 653 l 1
 289 494 l 2
 280 462 278 431 278 400 c 0
 278 236 458 175 892 175 c 0
 1326 175 1505 235 1505 400 c 0
 1505 433 1504 463 1495 494 c 2
 1451 653 l 1
EndSplineSet
Substitution2: "'fina' Terminal Forms in Arabic lookup 2 subtable" dotlessfinalBEH
Substitution2: "'medi' Medial Forms in Arabic lookup 3 subtable" uniFBE9
Substitution2: "'init' Initial Forms in Arabic lookup 4 subtable" uniFBE8
Colour: ffff
EndChar

StartChar: uni066F
Encoding: 1647 1647 91
Width: 1505
VWidth: 1854
Flags: HMW
AnchorPoint: "Anchor-5" 1047 726 basechar 0
AnchorPoint: "Anchor-3" 728 -504 basechar 0
LayerCount: 2
Fore
SplineSet
1223 197 m 1
 1205 405 1131 551 1047 551 c 0
 991 551 889 450 889 304 c 0
 889 206 928 175 1065 175 c 0
 1124 175 1171 183 1223 197 c 1
1215 -11 m 1
 1168 -20 1118 -25 1065 -25 c 0
 880 -25 689 66 689 304 c 0
 689 508 823 751 1047 751 c 0
 1399 751 1427 264 1427 99 c 0
 1427 -324 1078 -529 728 -529 c 0
 417 -529 78 -360 78 -3 c 0
 78 244 201 459 312 612 c 1
 474 494 l 1
 373 355 278 176 278 -3 c 0
 278 -200 465 -329 728 -329 c 0
 974 -329 1167 -216 1215 -11 c 1
EndSplineSet
Substitution2: "'init' Initial Forms in Arabic lookup 4 subtable" dotlessinitialFEH
Substitution2: "'medi' Medial Forms in Arabic lookup 3 subtable" dotlessmedialFEH
Substitution2: "'fina' Terminal Forms in Arabic lookup 2 subtable" dotlessfinalQAF
Colour: ffff
EndChar

StartChar: uni0670
Encoding: 1648 1648 92
Width: 0
VWidth: 1854
Flags: HMW
AnchorPoint: "Anchor-1" 0 1598 basemark 0
AnchorPoint: "Anchor-1" 1 1209 mark 0
AnchorPoint: "Anchor-4" 1 1209 mark 0
AnchorPoint: "Anchor-5" 1 1209 mark 0
LayerCount: 2
Fore
SplineSet
-50 1834 m 1
 50 1834 l 1
 50 1505 l 1
 -50 1505 l 1
 -50 1834 l 1
EndSplineSet
Colour: ff00
EndChar

StartChar: uni06A1
Encoding: 1697 1697 93
Width: 1752
VWidth: 1854
Flags: HMW
AnchorPoint: "Anchor-3" 892 0 basechar 0
AnchorPoint: "Anchor-5" 1313 1111 basechar 0
LayerCount: 2
Fore
SplineSet
1470 544 m 1
 1452 752 1378 898 1294 898 c 0
 1238 898 1136 797 1136 651 c 0
 1136 553 1175 522 1312 522 c 0
 1371 522 1418 530 1470 544 c 1
1674 446 m 0
 1674 48 1284 -25 891 -25 c 0
 509 -25 79 11 79 400 c 0
 79 519 113 625 142 710 c 1
 332 648 l 1
 305 565 279 479 279 400 c 0
 279 235 457 175 891 175 c 0
 1213 175 1395 235 1449 334 c 1
 1406 326 1360 322 1312 322 c 0
 1127 322 936 413 936 651 c 0
 936 855 1070 1098 1294 1098 c 0
 1646 1098 1674 611 1674 446 c 0
EndSplineSet
Substitution2: "'init' Initial Forms in Arabic lookup 4 subtable" dotlessinitialFEH
Substitution2: "'medi' Medial Forms in Arabic lookup 3 subtable" dotlessmedialFEH
Substitution2: "'fina' Terminal Forms in Arabic lookup 2 subtable" dotlessfinalFEH
Colour: ffff
EndChar

StartChar: uni06A9
Encoding: 1705 1705 94
Width: 1848
VWidth: 1854
Flags: HMW
AnchorPoint: "Anchor-5" 1304 1258 basechar 0
AnchorPoint: "Anchor-3" 868 0 basechar 0
LayerCount: 2
Fore
SplineSet
142 710 m 1
 332 648 l 1
 305 565 279 479 279 400 c 0
 279 235 457 175 891 175 c 0
 1179 175 1293 211 1293 298 c 0
 1293 408 1091 672 884 827 c 2
 844 857 l 1
 844 1048 l 1
 890 1077 l 2
 1127 1228 1404 1338 1678 1394 c 1
 1718 1198 l 1
 1491 1151 1258 1063 1057 945 c 1
 1260 779 1493 527 1493 298 c 0
 1493 -27 1111 -25 891 -25 c 0
 509 -25 79 11 79 400 c 0
 79 519 114 626 142 710 c 1
EndSplineSet
Substitution2: "'init' Initial Forms in Arabic lookup 4 subtable" uniFB90
Substitution2: "'medi' Medial Forms in Arabic lookup 3 subtable" uniFB91
Substitution2: "'fina' Terminal Forms in Arabic lookup 2 subtable" uniFB8F
Colour: ffff
EndChar

StartChar: uni06BA
Encoding: 1722 1722 95
Width: 1592
VWidth: 1854
Flags: HMW
AnchorPoint: "Anchor-5" 792 539 basechar 0
AnchorPoint: "Anchor-3" 734 -502 basechar 0
LayerCount: 2
Fore
SplineSet
1177 543 m 1
 1361 623 l 1
 1424 485 1514 284 1514 86 c 0
 1514 -337 1103 -528 759 -528 c 0
 443 -528 78 -364 78 1 c 0
 78 195 160 404 285 604 c 1
 455 498 l 1
 342 316 278 137 278 1 c 0
 278 -194 483 -328 759 -328 c 0
 1057 -328 1314 -173 1314 86 c 0
 1314 221 1238 405 1177 543 c 1
EndSplineSet
Substitution2: "'init' Initial Forms in Arabic lookup 4 subtable" uniFBE8
Substitution2: "'medi' Medial Forms in Arabic lookup 3 subtable" uniFBE9
Substitution2: "'fina' Terminal Forms in Arabic lookup 2 subtable" dotlessinitialNOON
Colour: ffff
EndChar

StartChar: uni06CC
Encoding: 1740 1740 96
Width: 1449
VWidth: 1854
Flags: HMW
AnchorPoint: "Anchor-3" 775 -502 basechar 0
AnchorPoint: "Anchor-5" 463 696 basechar 0
LayerCount: 2
Fore
SplineSet
1331 740 m 1
 1257 554 l 1
 1204 575 l 2
 1151 596 1096 609 1044 609 c 0
 879 609 781 501 781 387 c 0
 781 266 858 245 1013 226 c 0
 1147 210 1362 161 1362 -86 c 0
 1362 -388 1043 -528 775 -528 c 0
 401 -528 78 -348 78 -5 c 0
 78 132 103 283 152 434 c 2
 163 469 l 1
 353 409 l 1
 342 374 l 2
 299 239 278 108 278 -5 c 0
 278 -186 445 -328 775 -328 c 0
 1007 -328 1162 -212 1162 -86 c 0
 1162 -1 1131 10 989 28 c 0
 850 45 581 94 581 387 c 0
 581 627 787 809 1044 809 c 0
 1130 809 1209 788 1278 761 c 2
 1331 740 l 1
EndSplineSet
Substitution2: "'init' Initial Forms in Arabic lookup 4 subtable" uniFEF3
Substitution2: "'medi' Medial Forms in Arabic lookup 3 subtable" uniFEF4
Substitution2: "'fina' Terminal Forms in Arabic lookup 2 subtable" uniFBFD
Colour: ffff
EndChar

StartChar: uniFBE8
Encoding: 64488 64488 100
Width: 547
VWidth: 1854
Flags: HMW
AnchorPoint: "Anchor-5" 303 791 basechar 0
AnchorPoint: "Anchor-3" 274 0 basechar 0
LayerCount: 2
Fore
SplineSet
0 175 m 0
 118 175 197 210 218 235 c 0
 249 272 269 344 269 443 c 0
 269 525 244 650 208 760 c 1
 398 822 l 1
 440 696 469 559 469 443 c 0
 469 326 452 203 372 107 c 0
 287 6 142 -25 0 -25 c 0
 -55 -25 -100 20 -100 75 c 0
 -100 130 -55 175 0 175 c 0
EndSplineSet
Colour: ffff
EndChar

StartChar: uniFBE9
Encoding: 64489 64489 101
Width: 767
VWidth: 1854
Flags: HMW
AnchorPoint: "Anchor-5" 384 594 basechar 0
AnchorPoint: "Anchor-3" 184 0 basechar 0
LayerCount: 2
Fore
SplineSet
0 175 m 0
 120 175 180 202 214 236 c 0
 256 278 284 365 284 517 c 2
 284 594 l 1
 484 594 l 1
 484 517 l 2
 484 370 510 284 550 240 c 0
 584 203 642 175 767 175 c 1
 767 -25 l 1
 597 -25 474 22 384 127 c 1
 298 22 167 -25 0 -25 c 0
 -55 -25 -100 20 -100 75 c 0
 -100 130 -55 175 0 175 c 0
EndSplineSet
Colour: ffff
EndChar

StartChar: uniFBFD
Encoding: 64509 64509 102
Width: 1473
VWidth: 1854
Flags: HMW
AnchorPoint: "Anchor-5" 883 149 basechar 0
AnchorPoint: "Anchor-3" 739 -553 basechar 0
LayerCount: 2
Fore
SplineSet
1473 175 m 1
 1473 -25 l 1
 1348 -25 l 1
 1377 -70 1391 -121 1391 -172 c 0
 1391 -458 1070 -578 739 -578 c 0
 445 -578 78 -416 78 -52 c 0
 78 120 141 322 286 557 c 1
 456 453 l 1
 324 240 278 70 278 -52 c 0
 278 -246 487 -378 739 -378 c 0
 1064 -378 1191 -260 1191 -172 c 0
 1191 -134 1141 -26 812 -26 c 2
 712 -26 l 1
 712 175 l 1
 1473 175 l 1
EndSplineSet
Colour: ffff
EndChar

StartChar: uniFE8E
Encoding: 65166 65166 109
Width: 596
VWidth: 1854
Flags: HMW
AnchorPoint: "Anchor-3" 346 0 basechar 0
AnchorPoint: "Anchor-5" 250 1411 basechar 0
LayerCount: 2
Fore
SplineSet
150 1411 m 1
 350 1411 l 1
 350 474 l 2
 350 346 372 273 403 235 c 0
 431 203 482 175 596 175 c 1
 596 -25 l 1
 451 -25 329 12 249 107 c 0
 169 204 150 330 150 474 c 2
 150 1411 l 1
EndSplineSet
PairPos2: "'kern' Horizontal Kerning in Arabic lookup 2 per glyph data 1" uni063A dx=-225 dy=0 dh=-225 dv=0 dx=0 dy=0 dh=0 dv=0
PairPos2: "'kern' Horizontal Kerning in Arabic lookup 2 per glyph data 1" uni0639 dx=-225 dy=0 dh=-225 dv=0 dx=0 dy=0 dh=0 dv=0
Colour: ffff
EndChar

StartChar: uniFEA2
Encoding: 65186 65186 110
Width: 1398
VWidth: 1854
Flags: HMW
AnchorPoint: "Anchor-3" 775 -860 basechar 0
AnchorPoint: "Anchor-5" 513 815 basechar 0
LayerCount: 2
Fore
SplineSet
1141 284 m 1
 1205 220 1254 175 1398 175 c 1
 1398 -25 l 1
 1164 -25 1028 90 927 227 c 1
 541 113 278 -44 278 -320 c 0
 278 -562 492 -686 775 -686 c 0
 948 -686 1122 -632 1222 -549 c 1
 1350 -703 l 1
 1200 -828 984 -886 775 -886 c 0
 450 -886 78 -724 78 -320 c 0
 78 158 561 343 1013 458 c 1
 638 639 l 2
 595 659 557 666 522 666 c 0
 429 666 374 615 374 524 c 0
 374 503 377 477 384 454 c 1
 192 398 l 1
 179 443 174 485 174 524 c 0
 174 727 331 866 522 866 c 0
 587 866 655 852 724 819 c 2
 1340 523 l 1
 1340 329 l 1
 1262 311 l 2
 1221 302 1180 293 1141 284 c 1
EndSplineSet
Colour: ffff
EndChar

StartChar: uniFEA3
Encoding: 65187 65187 111
Width: 1316
VWidth: 1854
Flags: HMW
AnchorPoint: "Anchor-5" 430 852 basechar 0
AnchorPoint: "Anchor-3" 658 0 basechar 0
LayerCount: 2
Fore
SplineSet
0 175 m 0
 412 175 557 261 739 371 c 0
 793 403 850 433 909 457 c 1
 557 644 l 2
 510 669 476 677 430 677 c 0
 341 677 286 629 286 530 c 0
 286 510 286 466 292 425 c 1
 98 425 l 1
 88 464 86 500 86 530 c 0
 86 737 241 877 430 877 c 0
 506 877 577 859 651 820 c 2
 1207 525 l 1
 1207 334 l 1
 1129 316 l 2
 1019 292 933 253 841 199 c 0
 653 87 444 -25 0 -25 c 0
 -55 -25 -100 20 -100 75 c 0
 -100 130 -55 175 0 175 c 0
EndSplineSet
Colour: ffff
EndChar

StartChar: uniFEA4
Encoding: 65188 65188 112
Width: 1316
VWidth: 1854
Flags: HMW
AnchorPoint: "Anchor-5" 430 852 basechar 0
AnchorPoint: "Anchor-3" 658 0 basechar 0
LayerCount: 2
Fore
SplineSet
86 530 m 0
 86 737 241 877 430 877 c 0
 506 877 578 860 651 820 c 2
 1207 525 l 1
 1207 334 l 1
 1129 316 l 2
 1101 310 1074 303 1048 295 c 1
 1069 272 1093 250 1119 230 c 0
 1162 197 1216 175 1316 175 c 1
 1316 -25 l 1
 1184 -25 1078 9 997 72 c 0
 944 113 897 159 858 209 c 1
 659 89 444 -25 0 -25 c 0
 -55 -25 -100 20 -100 75 c 0
 -100 130 -55 175 0 175 c 0
 412 175 557 261 739 371 c 0
 793 403 850 433 909 457 c 1
 557 644 l 2
 510 669 476 677 430 677 c 0
 341 677 286 629 286 530 c 0
 286 510 286 466 292 425 c 1
 98 425 l 1
 88 464 86 500 86 530 c 0
EndSplineSet
Colour: ffff
EndChar

StartChar: uniFEAA
Encoding: 65194 65194 113
Width: 1180
VWidth: 1854
Flags: HMW
AnchorPoint: "Anchor-3" 421 0 basechar 0
AnchorPoint: "Anchor-5" 570 857 basechar 0
LayerCount: 2
Fore
SplineSet
1180 175 m 1
 1180 -25 l 1
 1032 -25 898 8 796 137 c 1
 698 16 533 -25 368 -25 c 0
 272 -25 172 -11 73 19 c 1
 131 211 l 1
 210 187 292 175 368 175 c 0
 575 175 665 252 665 336 c 0
 665 361 659 393 641 435 c 2
 478 818 l 1
 662 896 l 1
 861 429 l 2
 965 184 1012 175 1180 175 c 1
EndSplineSet
PairPos2: "'kern' Horizontal Kerning in Arabic lookup 2 per glyph data 3" uniFEDB dx=-300 dy=0 dh=-300 dv=0 dx=0 dy=0 dh=0 dv=0
PairPos2: "'kern' Horizontal Kerning in Arabic lookup 2 per glyph data 3" uniFB94 dx=-300 dy=0 dh=-300 dv=0 dx=0 dy=0 dh=0 dv=0
PairPos2: "'kern' Horizontal Kerning in Arabic lookup 2 per glyph data 3" uniFB90 dx=-300 dy=0 dh=-300 dv=0 dx=0 dy=0 dh=0 dv=0
PairPos2: "'kern' Horizontal Kerning in Arabic lookup 2 per glyph data 3" uni06AF dx=-300 dy=0 dh=-300 dv=0 dx=0 dy=0 dh=0 dv=0
PairPos2: "'kern' Horizontal Kerning in Arabic lookup 2 per glyph data 3" uni06A9 dx=-300 dy=0 dh=-300 dv=0 dx=0 dy=0 dh=0 dv=0
PairPos2: "'kern' Horizontal Kerning in Arabic lookup 2 per glyph data 1" uni063A dx=-375 dy=0 dh=-375 dv=0 dx=0 dy=0 dh=0 dv=0
PairPos2: "'kern' Horizontal Kerning in Arabic lookup 2 per glyph data 1" uni0639 dx=-375 dy=0 dh=-375 dv=0 dx=0 dy=0 dh=0 dv=0
Colour: ffff
EndChar

StartChar: uniFEAE
Encoding: 65198 65198 114
Width: 910
VWidth: 1854
Flags: HMW
AnchorPoint: "Anchor-5" 506 571 basechar 0
AnchorPoint: "Anchor-3" 488 -402 basechar 0
LayerCount: 2
Fore
SplineSet
413 534 m 1
 599 608 l 1
 642 501 674 398 691 298 c 1
 726 208 760 175 910 175 c 1
 910 -25 l 1
 827 -25 756 -11 697 16 c 1
 658 -235 486 -430 184 -540 c 1
 116 -352 l 1
 405 -247 506 -87 506 131 c 0
 506 245 474 382 413 534 c 1
EndSplineSet
PairPos2: "'kern' Horizontal Kerning in Arabic lookup 2 per glyph data 2" uni0621 dx=-200 dy=0 dh=-200 dv=0 dx=0 dy=0 dh=0 dv=0
PairPos2: "'kern' Horizontal Kerning in Arabic lookup 2 per glyph data 4" parenleft dx=-300 dy=0 dh=-300 dv=0 dx=0 dy=0 dh=0 dv=0
PairPos2: "'kern' Horizontal Kerning in Arabic lookup 2 per glyph data 4" less dx=-420 dy=0 dh=-420 dv=0 dx=0 dy=0 dh=0 dv=0
PairPos2: "'kern' Horizontal Kerning in Arabic lookup 2 per glyph data 4" guillemotleft dx=-420 dy=0 dh=-420 dv=0 dx=0 dy=0 dh=0 dv=0
PairPos2: "'kern' Horizontal Kerning in Arabic lookup 2 per glyph data 4" bracketleft dx=-300 dy=0 dh=-300 dv=0 dx=0 dy=0 dh=0 dv=0
PairPos2: "'kern' Horizontal Kerning in Arabic lookup 2 per glyph data 3" uniFEDB dx=-300 dy=0 dh=-300 dv=0 dx=0 dy=0 dh=0 dv=0
PairPos2: "'kern' Horizontal Kerning in Arabic lookup 2 per glyph data 3" uniFB94 dx=-300 dy=0 dh=-300 dv=0 dx=0 dy=0 dh=0 dv=0
PairPos2: "'kern' Horizontal Kerning in Arabic lookup 2 per glyph data 3" uniFB90 dx=-300 dy=0 dh=-300 dv=0 dx=0 dy=0 dh=0 dv=0
PairPos2: "'kern' Horizontal Kerning in Arabic lookup 2 per glyph data 3" uni06AF dx=-300 dy=0 dh=-300 dv=0 dx=0 dy=0 dh=0 dv=0
PairPos2: "'kern' Horizontal Kerning in Arabic lookup 2 per glyph data 3" uni06A9 dx=-300 dy=0 dh=-300 dv=0 dx=0 dy=0 dh=0 dv=0
PairPos2: "'kern' Horizontal Kerning in Arabic lookup 2 per glyph data 2" uni064A dx=-100 dy=0 dh=-100 dv=0 dx=0 dy=0 dh=0 dv=0
PairPos2: "'kern' Horizontal Kerning in Arabic lookup 2 per glyph data 2" uni0649 dx=-100 dy=0 dh=-100 dv=0 dx=0 dy=0 dh=0 dv=0
PairPos2: "'kern' Horizontal Kerning in Arabic lookup 2 per glyph data 2" uni06CC dx=-100 dy=0 dh=-100 dv=0 dx=0 dy=0 dh=0 dv=0
PairPos2: "'kern' Horizontal Kerning in Arabic lookup 2 per glyph data 2" space dx=-300 dy=0 dh=-300 dv=0 dx=0 dy=0 dh=0 dv=0
PairPos2: "'kern' Horizontal Kerning in Arabic lookup 2 per glyph data 2" uniFEFB dx=-325 dy=0 dh=-325 dv=0 dx=0 dy=0 dh=0 dv=0
PairPos2: "'kern' Horizontal Kerning in Arabic lookup 2 per glyph data 2" uniFEF9 dx=-325 dy=0 dh=-325 dv=0 dx=0 dy=0 dh=0 dv=0
PairPos2: "'kern' Horizontal Kerning in Arabic lookup 2 per glyph data 2" uniFEF7 dx=-325 dy=0 dh=-325 dv=0 dx=0 dy=0 dh=0 dv=0
PairPos2: "'kern' Horizontal Kerning in Arabic lookup 2 per glyph data 2" uniFEF5 dx=-325 dy=0 dh=-325 dv=0 dx=0 dy=0 dh=0 dv=0
PairPos2: "'kern' Horizontal Kerning in Arabic lookup 2 per glyph data 2" uniFEEB dx=-250 dy=0 dh=-250 dv=0 dx=0 dy=0 dh=0 dv=0
PairPos2: "'kern' Horizontal Kerning in Arabic lookup 2 per glyph data 2" uniFEE7 dx=-225 dy=0 dh=-225 dv=0 dx=0 dy=0 dh=0 dv=0
PairPos2: "'kern' Horizontal Kerning in Arabic lookup 2 per glyph data 2" uniFEE3 dx=-300 dy=0 dh=-300 dv=0 dx=0 dy=0 dh=0 dv=0
PairPos2: "'kern' Horizontal Kerning in Arabic lookup 2 per glyph data 2" uniFEDF dx=-325 dy=0 dh=-325 dv=0 dx=0 dy=0 dh=0 dv=0
PairPos2: "'kern' Horizontal Kerning in Arabic lookup 2 per glyph data 2" uniFEDB dx=-400 dy=0 dh=-400 dv=0 dx=0 dy=0 dh=0 dv=0
PairPos2: "'kern' Horizontal Kerning in Arabic lookup 2 per glyph data 2" uniFED7 dx=-250 dy=0 dh=-250 dv=0 dx=0 dy=0 dh=0 dv=0
PairPos2: "'kern' Horizontal Kerning in Arabic lookup 2 per glyph data 2" uniFED3 dx=-250 dy=0 dh=-250 dv=0 dx=0 dy=0 dh=0 dv=0
PairPos2: "'kern' Horizontal Kerning in Arabic lookup 2 per glyph data 2" uniFECF dx=-300 dy=0 dh=-300 dv=0 dx=0 dy=0 dh=0 dv=0
PairPos2: "'kern' Horizontal Kerning in Arabic lookup 2 per glyph data 2" uniFECB dx=-300 dy=0 dh=-300 dv=0 dx=0 dy=0 dh=0 dv=0
PairPos2: "'kern' Horizontal Kerning in Arabic lookup 2 per glyph data 2" uniFEC7 dx=-300 dy=0 dh=-300 dv=0 dx=0 dy=0 dh=0 dv=0
PairPos2: "'kern' Horizontal Kerning in Arabic lookup 2 per glyph data 2" uniFEC3 dx=-300 dy=0 dh=-300 dv=0 dx=0 dy=0 dh=0 dv=0
PairPos2: "'kern' Horizontal Kerning in Arabic lookup 2 per glyph data 2" uniFEBF dx=-300 dy=0 dh=-300 dv=0 dx=0 dy=0 dh=0 dv=0
PairPos2: "'kern' Horizontal Kerning in Arabic lookup 2 per glyph data 2" uniFEBB dx=-300 dy=0 dh=-300 dv=0 dx=0 dy=0 dh=0 dv=0
PairPos2: "'kern' Horizontal Kerning in Arabic lookup 2 per glyph data 2" uniFEB7 dx=-200 dy=0 dh=-200 dv=0 dx=0 dy=0 dh=0 dv=0
PairPos2: "'kern' Horizontal Kerning in Arabic lookup 2 per glyph data 2" uniFEB3 dx=-200 dy=0 dh=-200 dv=0 dx=0 dy=0 dh=0 dv=0
PairPos2: "'kern' Horizontal Kerning in Arabic lookup 2 per glyph data 2" uniFEA7 dx=-250 dy=0 dh=-250 dv=0 dx=0 dy=0 dh=0 dv=0
PairPos2: "'kern' Horizontal Kerning in Arabic lookup 2 per glyph data 2" uniFEA3 dx=-250 dy=0 dh=-250 dv=0 dx=0 dy=0 dh=0 dv=0
PairPos2: "'kern' Horizontal Kerning in Arabic lookup 2 per glyph data 2" uniFE9F dx=-250 dy=0 dh=-250 dv=0 dx=0 dy=0 dh=0 dv=0
PairPos2: "'kern' Horizontal Kerning in Arabic lookup 2 per glyph data 2" uniFE9B dx=-225 dy=0 dh=-225 dv=0 dx=0 dy=0 dh=0 dv=0
PairPos2: "'kern' Horizontal Kerning in Arabic lookup 2 per glyph data 2" uniFE97 dx=-225 dy=0 dh=-225 dv=0 dx=0 dy=0 dh=0 dv=0
PairPos2: "'kern' Horizontal Kerning in Arabic lookup 2 per glyph data 2" uniFE91 dx=-225 dy=0 dh=-225 dv=0 dx=0 dy=0 dh=0 dv=0
PairPos2: "'kern' Horizontal Kerning in Arabic lookup 2 per glyph data 2" uniFE8B dx=-225 dy=0 dh=-225 dv=0 dx=0 dy=0 dh=0 dv=0
PairPos2: "'kern' Horizontal Kerning in Arabic lookup 2 per glyph data 2" uniFB94 dx=-400 dy=0 dh=-400 dv=0 dx=0 dy=0 dh=0 dv=0
PairPos2: "'kern' Horizontal Kerning in Arabic lookup 2 per glyph data 2" uniFB90 dx=-400 dy=0 dh=-400 dv=0 dx=0 dy=0 dh=0 dv=0
PairPos2: "'kern' Horizontal Kerning in Arabic lookup 2 per glyph data 2" uniFB7C dx=-250 dy=0 dh=-250 dv=0 dx=0 dy=0 dh=0 dv=0
PairPos2: "'kern' Horizontal Kerning in Arabic lookup 2 per glyph data 2" uni06CA dx=-150 dy=0 dh=-150 dv=0 dx=0 dy=0 dh=0 dv=0
PairPos2: "'kern' Horizontal Kerning in Arabic lookup 2 per glyph data 2" uni06C0 dx=-300 dy=0 dh=-300 dv=0 dx=0 dy=0 dh=0 dv=0
PairPos2: "'kern' Horizontal Kerning in Arabic lookup 2 per glyph data 2" uni06AF dx=-400 dy=0 dh=-400 dv=0 dx=0 dy=0 dh=0 dv=0
PairPos2: "'kern' Horizontal Kerning in Arabic lookup 2 per glyph data 2" uni06A9 dx=-400 dy=0 dh=-400 dv=0 dx=0 dy=0 dh=0 dv=0
PairPos2: "'kern' Horizontal Kerning in Arabic lookup 2 per glyph data 2" uni0698 dx=-150 dy=0 dh=-150 dv=0 dx=0 dy=0 dh=0 dv=0
PairPos2: "'kern' Horizontal Kerning in Arabic lookup 2 per glyph data 2" uni0686 dx=-125 dy=0 dh=-125 dv=0 dx=0 dy=0 dh=0 dv=0
PairPos2: "'kern' Horizontal Kerning in Arabic lookup 2 per glyph data 2" uni067E dx=-300 dy=0 dh=-300 dv=0 dx=0 dy=0 dh=0 dv=0
PairPos2: "'kern' Horizontal Kerning in Arabic lookup 2 per glyph data 2" uni0648 dx=-150 dy=0 dh=-150 dv=0 dx=0 dy=0 dh=0 dv=0
PairPos2: "'kern' Horizontal Kerning in Arabic lookup 2 per glyph data 2" uni0647 dx=-300 dy=0 dh=-300 dv=0 dx=0 dy=0 dh=0 dv=0
PairPos2: "'kern' Horizontal Kerning in Arabic lookup 2 per glyph data 2" uni0646 dx=-150 dy=0 dh=-150 dv=0 dx=0 dy=0 dh=0 dv=0
PairPos2: "'kern' Horizontal Kerning in Arabic lookup 2 per glyph data 2" uni0645 dx=-300 dy=0 dh=-300 dv=0 dx=0 dy=0 dh=0 dv=0
PairPos2: "'kern' Horizontal Kerning in Arabic lookup 2 per glyph data 2" uni0644 dx=-112 dy=0 dh=-112 dv=0 dx=0 dy=0 dh=0 dv=0
PairPos2: "'kern' Horizontal Kerning in Arabic lookup 2 per glyph data 2" uni0643 dx=-300 dy=0 dh=-300 dv=0 dx=0 dy=0 dh=0 dv=0
PairPos2: "'kern' Horizontal Kerning in Arabic lookup 2 per glyph data 2" uni0642 dx=-150 dy=0 dh=-150 dv=0 dx=0 dy=0 dh=0 dv=0
PairPos2: "'kern' Horizontal Kerning in Arabic lookup 2 per glyph data 2" uni0641 dx=-250 dy=0 dh=-250 dv=0 dx=0 dy=0 dh=0 dv=0
PairPos2: "'kern' Horizontal Kerning in Arabic lookup 2 per glyph data 2" uni0638 dx=-300 dy=0 dh=-300 dv=0 dx=0 dy=0 dh=0 dv=0
PairPos2: "'kern' Horizontal Kerning in Arabic lookup 2 per glyph data 2" uni0637 dx=-300 dy=0 dh=-300 dv=0 dx=0 dy=0 dh=0 dv=0
PairPos2: "'kern' Horizontal Kerning in Arabic lookup 2 per glyph data 2" uni0636 dx=-300 dy=0 dh=-300 dv=0 dx=0 dy=0 dh=0 dv=0
PairPos2: "'kern' Horizontal Kerning in Arabic lookup 2 per glyph data 2" uni0635 dx=-300 dy=0 dh=-300 dv=0 dx=0 dy=0 dh=0 dv=0
PairPos2: "'kern' Horizontal Kerning in Arabic lookup 2 per glyph data 2" uni0634 dx=-200 dy=0 dh=-200 dv=0 dx=0 dy=0 dh=0 dv=0
PairPos2: "'kern' Horizontal Kerning in Arabic lookup 2 per glyph data 2" uni0633 dx=-200 dy=0 dh=-200 dv=0 dx=0 dy=0 dh=0 dv=0
PairPos2: "'kern' Horizontal Kerning in Arabic lookup 2 per glyph data 2" uni0632 dx=-150 dy=0 dh=-150 dv=0 dx=0 dy=0 dh=0 dv=0
PairPos2: "'kern' Horizontal Kerning in Arabic lookup 2 per glyph data 2" uni0631 dx=-150 dy=0 dh=-150 dv=0 dx=0 dy=0 dh=0 dv=0
PairPos2: "'kern' Horizontal Kerning in Arabic lookup 2 per glyph data 2" uni0630 dx=-250 dy=0 dh=-250 dv=0 dx=0 dy=0 dh=0 dv=0
PairPos2: "'kern' Horizontal Kerning in Arabic lookup 2 per glyph data 2" uni062F dx=-250 dy=0 dh=-250 dv=0 dx=0 dy=0 dh=0 dv=0
PairPos2: "'kern' Horizontal Kerning in Arabic lookup 2 per glyph data 2" uni062E dx=-125 dy=0 dh=-125 dv=0 dx=0 dy=0 dh=0 dv=0
PairPos2: "'kern' Horizontal Kerning in Arabic lookup 2 per glyph data 2" uni062D dx=-125 dy=0 dh=-125 dv=0 dx=0 dy=0 dh=0 dv=0
PairPos2: "'kern' Horizontal Kerning in Arabic lookup 2 per glyph data 2" uni062C dx=-125 dy=0 dh=-125 dv=0 dx=0 dy=0 dh=0 dv=0
PairPos2: "'kern' Horizontal Kerning in Arabic lookup 2 per glyph data 2" uni062B dx=-300 dy=0 dh=-300 dv=0 dx=0 dy=0 dh=0 dv=0
PairPos2: "'kern' Horizontal Kerning in Arabic lookup 2 per glyph data 2" uni062A dx=-300 dy=0 dh=-300 dv=0 dx=0 dy=0 dh=0 dv=0
PairPos2: "'kern' Horizontal Kerning in Arabic lookup 2 per glyph data 2" uni0629 dx=-300 dy=0 dh=-300 dv=0 dx=0 dy=0 dh=0 dv=0
PairPos2: "'kern' Horizontal Kerning in Arabic lookup 2 per glyph data 2" uni0628 dx=-300 dy=0 dh=-300 dv=0 dx=0 dy=0 dh=0 dv=0
PairPos2: "'kern' Horizontal Kerning in Arabic lookup 2 per glyph data 2" uni0627 dx=-250 dy=0 dh=-250 dv=0 dx=0 dy=0 dh=0 dv=0
PairPos2: "'kern' Horizontal Kerning in Arabic lookup 2 per glyph data 2" uni0624 dx=-150 dy=0 dh=-150 dv=0 dx=0 dy=0 dh=0 dv=0
PairPos2: "'kern' Horizontal Kerning in Arabic lookup 2 per glyph data 2" uni0623 dx=-250 dy=0 dh=-250 dv=0 dx=0 dy=0 dh=0 dv=0
PairPos2: "'kern' Horizontal Kerning in Arabic lookup 2 per glyph data 2" uni0622 dx=-250 dy=0 dh=-250 dv=0 dx=0 dy=0 dh=0 dv=0
PairPos2: "'kern' Horizontal Kerning in Arabic lookup 2 per glyph data 2" uniFB58 dx=-150 dy=0 dh=-150 dv=0 dx=0 dy=0 dh=0 dv=0
PairPos2: "'kern' Horizontal Kerning in Arabic lookup 2 per glyph data 2" uniFEF3 dx=-150 dy=0 dh=-150 dv=0 dx=0 dy=0 dh=0 dv=0
PairPos2: "'kern' Horizontal Kerning in Arabic lookup 2 per glyph data 2" uniFBFE dx=-150 dy=0 dh=-150 dv=0 dx=0 dy=0 dh=0 dv=0
PairPos2: "'kern' Horizontal Kerning in Arabic lookup 2 per glyph data 1" uni063A dx=-350 dy=0 dh=-350 dv=0 dx=0 dy=0 dh=0 dv=0
PairPos2: "'kern' Horizontal Kerning in Arabic lookup 2 per glyph data 1" uni0639 dx=-350 dy=0 dh=-350 dv=0 dx=0 dy=0 dh=0 dv=0
Colour: ffff
EndChar

StartChar: uniFEB2
Encoding: 65202 65202 115
Width: 2734
VWidth: 1854
Flags: HMW
AnchorPoint: "Anchor-3" 749 -502 basechar 0
AnchorPoint: "Anchor-5" 1818 594 basechar 0
LayerCount: 2
Fore
SplineSet
2176 685 m 1
 2372 725 l 1
 2429 446 l 2
 2470 241 2484 175 2734 175 c 1
 2734 -25 l 1
 2542 -25 2427 32 2354 120 c 1
 2303 36 2218 -25 2083 -25 c 0
 1992 -25 1895 12 1827 88 c 1
 1767 18 1687 -25 1593 -25 c 0
 1546 -25 1501 -15 1459 5 c 1
 1419 -362 1059 -526 749 -526 c 0
 438 -526 78 -361 78 11 c 0
 78 194 168 403 366 636 c 1
 518 506 l 1
 338 293 278 126 278 11 c 0
 278 -195 482 -326 749 -326 c 0
 1026 -326 1263 -183 1263 74 c 0
 1263 137 1250 210 1217 297 c 2
 1126 535 l 1
 1312 607 l 1
 1401 374 l 2
 1461 218 1534 175 1593 175 c 0
 1638 175 1711 215 1735 364 c 2
 1771 590 l 1
 1969 558 l 1
 1942 390 l 2
 1940 374 1940 357 1940 337 c 0
 1940 206 2009 175 2083 175 c 0
 2182 175 2219 233 2219 385 c 0
 2219 434 2215 485 2207 532 c 2
 2176 685 l 1
EndSplineSet
Colour: ffff
EndChar

StartChar: uniFEB3
Encoding: 65203 65203 116
Width: 1538
VWidth: 2374
Flags: HMW
AnchorPoint: "Anchor-5" 880 594 basechar 0
AnchorPoint: "Anchor-3" 881 0 basechar 0
LayerCount: 2
Fore
SplineSet
1460 343 m 0
 1460 138 1331 -25 1128 -25 c 0
 1026 -25 937 22 880 91 c 1
 823 22 734 -25 632 -25 c 0
 516 -25 421 33 366 115 c 1
 289 26 170 -25 0 -25 c 0
 -55 -25 -100 20 -100 75 c 0
 -100 130 -55 175 0 175 c 0
 245 175 284 263 284 517 c 2
 284 594 l 1
 484 594 l 1
 484 541 484 488 484 435 c 0
 484 333 508 254 540 216 c 0
 563 189 586 175 632 175 c 0
 678 175 701 189 724 216 c 0
 756 254 780 333 780 435 c 2
 780 594 l 1
 980 594 l 1
 980 435 l 2
 980 333 1004 254 1036 216 c 0
 1059 189 1082 175 1128 175 c 0
 1182 175 1208 193 1228 222 c 0
 1247 249 1260 293 1260 343 c 0
 1260 363 1258 386 1254 412 c 2
 1211 691 l 1
 1409 721 l 1
 1452 442 l 2
 1457 410 1460 378 1460 343 c 0
EndSplineSet
Colour: ffff
EndChar

StartChar: uniFEB4
Encoding: 65204 65204 117
Width: 1735
VWidth: 2374
Flags: HMW
AnchorPoint: "Anchor-3" 881 0 basechar 0
AnchorPoint: "Anchor-5" 880 594 basechar 0
LayerCount: 2
Fore
SplineSet
0 175 m 0
 245 175 284 263 284 517 c 2
 284 594 l 1
 484 594 l 1
 484 541 484 488 484 435 c 0
 484 333 508 254 540 216 c 0
 563 189 586 175 632 175 c 0
 756 175 780 312 780 435 c 2
 780 594 l 1
 980 594 l 1
 980 435 l 2
 980 346 999 261 1036 216 c 0
 1059 189 1082 175 1128 175 c 0
 1226 175 1256 246 1256 343 c 0
 1256 413 1245 487 1234 551 c 2
 1211 691 l 1
 1409 721 l 1
 1441 510 l 2
 1459 392 1480 277 1547 222 c 0
 1582 194 1638 175 1735 175 c 1
 1735 -25 l 1
 1594 -25 1469 12 1386 99 c 1
 1329 23 1237 -25 1128 -25 c 0
 1024 -25 937 21 880 91 c 1
 823 21 736 -25 632 -25 c 0
 516 -25 421 33 366 115 c 1
 289 26 170 -25 0 -25 c 0
 -55 -25 -100 20 -100 75 c 0
 -100 130 -55 175 0 175 c 0
EndSplineSet
Colour: ffff
EndChar

StartChar: uniFEBA
Encoding: 65210 65210 118
Width: 2530
VWidth: 1854
Flags: HMW
AnchorPoint: "Anchor-5" 2023 729 basechar 0
AnchorPoint: "Anchor-3" 749 -502 basechar 0
LayerCount: 2
Fore
SplineSet
2530 175 m 1
 2530 -25 l 1
 1791 -25 l 2
 1681 -25 1565 -7 1462 28 c 1
 1435 -355 1067 -526 750 -526 c 0
 439 -526 79 -361 79 11 c 0
 79 194 169 403 367 636 c 1
 519 506 l 1
 339 293 279 126 279 11 c 0
 279 -195 483 -326 750 -326 c 0
 1027 -326 1264 -183 1264 74 c 0
 1264 139 1251 213 1216 302 c 2
 1126 535 l 1
 1312 607 l 1
 1417 335 l 1
 1581 604 1791 724 1984 724 c 0
 2186 724 2363 586 2363 367 c 0
 2363 290 2341 227 2304 175 c 1
 2530 175 l 1
1791 175 m 0
 2032 175 2163 267 2163 367 c 0
 2163 463 2099 524 1984 524 c 0
 1875 524 1713 453 1571 203 c 1
 1641 184 1717 175 1791 175 c 0
EndSplineSet
Colour: ffff
EndChar

StartChar: uniFEBB
Encoding: 65211 65211 119
Width: 1612
VWidth: 1854
Flags: HMW
AnchorPoint: "Anchor-5" 1167 769 basechar 0
AnchorPoint: "Anchor-3" 821 0 basechar 0
LayerCount: 2
Fore
SplineSet
679 183 m 1
 721 178 772 175 829 175 c 0
 1085 175 1312 326 1312 434 c 0
 1312 514 1254 565 1157 565 c 0
 1043 565 847 482 679 183 c 1
0 175 m 0
 120 175 180 202 214 236 c 0
 254 277 282 359 284 502 c 2
 284 594 l 1
 484 594 l 1
 484 519 484 444 484 369 c 0
 484 324 491 293 500 272 c 1
 692 619 947 765 1157 765 c 0
 1332 765 1512 648 1512 434 c 0
 1512 120 1103 -25 829 -25 c 0
 634 -25 464 1 370 111 c 1
 291 12 151 -25 0 -25 c 0
 -55 -25 -100 20 -100 75 c 0
 -100 130 -55 175 0 175 c 0
EndSplineSet
Colour: ffff
EndChar

StartChar: uniFEBC
Encoding: 65212 65212 120
Width: 1621
VWidth: 1854
Flags: HMW
AnchorPoint: "Anchor-3" 821 0 basechar 0
AnchorPoint: "Anchor-5" 1167 769 basechar 0
LayerCount: 2
Fore
SplineSet
829 175 m 0
 1085 175 1312 326 1312 434 c 0
 1312 514 1254 565 1157 565 c 0
 1043 565 847 482 679 183 c 1
 721 178 772 175 829 175 c 0
0 175 m 0
 120 175 180 202 214 236 c 0
 268 290 284 395 284 517 c 2
 284 594 l 1
 484 594 l 1
 484 369 l 2
 484 331 490 295 500 272 c 1
 692 619 947 765 1157 765 c 0
 1332 765 1512 648 1512 434 c 0
 1512 329 1466 243 1395 175 c 1
 1621 175 l 1
 1621 -25 l 1
 829 -25 l 2
 633 -25 467 2 370 110 c 1
 285 14 155 -25 0 -25 c 0
 -55 -25 -100 20 -100 75 c 0
 -100 130 -55 175 0 175 c 0
EndSplineSet
Colour: ffff
EndChar

StartChar: uniFEC2
Encoding: 65218 65218 121
Width: 1537
VWidth: 1854
Flags: HMW
AnchorPoint: "Anchor-3" 768 0 basechar 0
AnchorPoint: "Anchor-5" 1088 764 basechar 0
LayerCount: 2
Fore
SplineSet
1537 175 m 1
 1537 -25 l 1
 105 -25 l 1
 105 175 l 1
 378 175 l 1
 378 1411 l 1
 578 1411 l 1
 578 522 l 1
 730 689 917 765 1060 765 c 0
 1235 765 1415 648 1415 434 c 0
 1415 331 1386 244 1320 175 c 1
 1537 175 l 1
592 176 m 1
 1183 192 1215 317 1215 434 c 0
 1215 514 1157 565 1060 565 c 0
 948 565 719 467 592 176 c 1
EndSplineSet
Colour: ffff
EndChar

StartChar: uniFEC3
Encoding: 65219 65219 122
Width: 1317
VWidth: 1854
Flags: HMW
AnchorPoint: "Anchor-3" 548 0 basechar 0
AnchorPoint: "Anchor-5" 868 764 basechar 0
LayerCount: 2
Fore
SplineSet
372 176 m 1
 963 192 995 317 995 434 c 0
 995 514 937 565 840 565 c 0
 728 565 498 466 372 176 c 1
0 175 m 2
 158 175 l 1
 158 1411 l 1
 358 1411 l 1
 358 522 l 1
 510 689 697 765 840 765 c 0
 1015 765 1195 648 1195 434 c 0
 1195 134 950 -25 258 -25 c 2
 0 -25 l 2
 -55 -25 -100 20 -100 75 c 0
 -100 130 -55 175 0 175 c 2
EndSplineSet
Colour: ffff
EndChar

StartChar: uniFEC4
Encoding: 65220 65220 123
Width: 1317
VWidth: 1854
Flags: HMW
AnchorPoint: "Anchor-5" 868 764 basechar 0
AnchorPoint: "Anchor-3" 548 0 basechar 0
LayerCount: 2
Fore
SplineSet
372 177 m 1
 963 193 995 318 995 434 c 0
 995 514 937 565 840 565 c 0
 728 565 499 467 372 177 c 1
0 175 m 2
 158 176 l 1
 158 1411 l 1
 358 1411 l 1
 358 522 l 1
 510 689 697 765 840 765 c 0
 1015 765 1195 648 1195 434 c 0
 1195 347 1172 251 1102 175 c 1
 1317 175 l 1
 1317 -25 l 1
 0 -25 l 2
 -55 -25 -100 20 -100 75 c 0
 -100 130 -55 175 0 175 c 2
EndSplineSet
Colour: ffff
EndChar

StartChar: uniFECA
Encoding: 65226 65226 124
Width: 1144
VWidth: 2374
Flags: HMW
AnchorPoint: "Anchor-5" 596 761 basechar 0
AnchorPoint: "Anchor-3" 789 -862 basechar 0
LayerCount: 2
Fore
SplineSet
320 520 m 1
 411 438 509 358 625 297 c 1
 749 359 806 428 806 478 c 0
 806 508 745 586 596 586 c 0
 491 586 380 558 320 520 c 1
631 73 m 1
 420 -49 278 -206 278 -408 c 0
 278 -583 505 -687 789 -687 c 0
 890 -687 985 -672 1044 -651 c 1
 1112 -839 l 1
 1021 -872 908 -887 789 -887 c 0
 507 -887 78 -787 78 -408 c 0
 78 -146 239 47 429 181 c 1
 303 263 206 351 110 441 c 1
 112 597 l 1
 228 727 403 786 596 786 c 0
 783 786 1006 686 1006 478 c 0
 1006 361 937 271 857 208 c 1
 941 187 1036 175 1144 175 c 1
 1144 -25 l 1
 943 -25 774 13 631 73 c 1
EndSplineSet
Colour: ffff
EndChar

StartChar: uniFECB
Encoding: 65227 65227 125
Width: 1083
VWidth: 1854
Flags: HMW
AnchorPoint: "Anchor-3" 468 0 basechar 0
AnchorPoint: "Anchor-5" 527 843 basechar 0
LayerCount: 2
Fore
SplineSet
0 175 m 0
 66 175 130 178 192 183 c 1
 137 242 103 322 103 411 c 0
 103 684 305 868 527 868 c 0
 690 868 811 789 881 705 c 1
 727 577 l 1
 687 625 624 668 527 668 c 0
 419 668 303 580 303 411 c 0
 303 338 348 288 449 262 c 0
 481 254 525 248 567 248 c 0
 583 248 599 249 614 251 c 2
 886 303 l 1
 924 107 l 1
 457 18 l 2
 314 -9 162 -25 0 -25 c 0
 -55 -25 -100 20 -100 75 c 0
 -100 130 -55 175 0 175 c 0
EndSplineSet
Colour: ffff
EndChar

StartChar: uniFECC
Encoding: 65228 65228 126
Width: 996
VWidth: 1853
Flags: HMW
AnchorPoint: "Anchor-5" 519 762 basechar 0
AnchorPoint: "Anchor-3" 488 0 basechar 0
LayerCount: 2
Fore
SplineSet
245 511 m 1
 348 417 451 336 573 274 c 1
 668 322 732 381 732 439 c 0
 732 526 655 586 519 586 c 0
 417 586 305 553 245 511 c 1
0 175 m 0
 108 175 215 183 311 199 c 1
 211 270 124 350 38 431 c 1
 38 586 l 1
 148 715 322 786 519 786 c 0
 701 786 932 686 932 439 c 0
 932 339 883 253 814 191 c 1
 870 180 930 175 996 175 c 1
 996 -25 l 1
 834 -25 689 7 567 57 c 1
 406 2 205 -25 0 -25 c 0
 -55 -25 -100 20 -100 75 c 0
 -100 130 -55 175 0 175 c 0
EndSplineSet
Colour: ffff
EndChar

StartChar: uniFEDB
Encoding: 65243 65243 127
Width: 999
VWidth: 1854
Flags: HMW
AnchorPoint: "Anchor-5" 455 1258 basechar 0
AnchorPoint: "Anchor-3" 355 0 basechar 0
LayerCount: 2
Fore
SplineSet
0 175 m 2
 92 175 l 2
 373 175 444 200 444 298 c 0
 444 408 242 672 35 827 c 2
 -5 857 l 1
 -5 1048 l 1
 41 1077 l 2
 278 1228 555 1338 829 1394 c 1
 869 1198 l 1
 642 1151 407 1062 208 945 c 1
 412 778 644 527 644 298 c 0
 644 -16 319 -25 92 -25 c 2
 0 -25 l 2
 -55 -25 -100 20 -100 75 c 0
 -100 130 -55 175 0 175 c 2
EndSplineSet
MultipleSubs2: "Multiple substitution 0 subtable" uniFEDB uniE000 uniE000
Colour: ffff
EndChar

StartChar: uniFEDC
Encoding: 65244 65244 128
Width: 900
VWidth: 1854
Flags: HMW
AnchorPoint: "Anchor-5" 455 1258 basechar 0
AnchorPoint: "Anchor-3" 355 0 basechar 0
LayerCount: 2
Fore
SplineSet
0 175 m 2
 92 175 l 2
 373 175 444 200 444 298 c 0
 444 408 242 672 35 827 c 2
 -5 857 l 1
 -5 1048 l 1
 41 1077 l 2
 278 1228 555 1338 829 1394 c 1
 869 1198 l 1
 642 1151 407 1062 208 945 c 1
 387 799 587 589 634 385 c 1
 687 240 719 175 900 175 c 1
 900 -25 l 1
 747 -25 646 25 575 97 c 1
 467 -20 255 -25 92 -25 c 2
 0 -25 l 2
 -55 -25 -100 20 -100 75 c 0
 -100 130 -55 175 0 175 c 2
EndSplineSet
MultipleSubs2: "Multiple substitution 0 subtable" uniFEDC uniE000 uniE000
Colour: ffff
EndChar

StartChar: uniFEDE
Encoding: 65246 65246 129
Width: 1549
VWidth: 1854
Flags: HMW
AnchorPoint: "Anchor-3" 663 -502 basechar 0
AnchorPoint: "Anchor-5" 731 712 basechar 0
LayerCount: 2
Fore
SplineSet
1067 1411 m 1
 1267 1411 l 1
 1267 517 l 2
 1267 377 1290 291 1325 247 c 0
 1358 206 1416 175 1549 175 c 1
 1549 -25 l 1
 1438 -25 1341 -5 1263 41 c 1
 1226 -343 941 -528 663 -528 c 0
 383 -528 78 -341 78 -5 c 0
 78 147 129 321 234 510 c 1
 408 412 l 1
 315 245 278 103 278 -5 c 0
 278 -197 455 -328 663 -328 c 0
 865 -328 1067 -206 1067 126 c 2
 1067 1411 l 1
EndSplineSet
Colour: ffff
EndChar

StartChar: uniFEDF
Encoding: 65247 65247 130
Width: 596
VWidth: 1854
Flags: HMW
AnchorPoint: "Anchor-5" 346 1411 basechar 0
AnchorPoint: "Anchor-3" 242 0 basechar 0
LayerCount: 2
Fore
SplineSet
0 175 m 0
 114 175 165 203 193 235 c 0
 224 273 246 346 246 474 c 2
 246 1411 l 1
 446 1411 l 1
 446 474 l 2
 446 330 427 204 347 107 c 0
 267 12 145 -25 0 -25 c 0
 -55 -25 -100 20 -100 75 c 0
 -100 130 -55 175 0 175 c 0
EndSplineSet
Colour: ffff
EndChar

StartChar: uniFEE0
Encoding: 65248 65248 131
Width: 692
VWidth: 1854
Flags: HMW
AnchorPoint: "Anchor-3" 346 0 basechar 0
AnchorPoint: "Anchor-5" 346 1411 basechar 0
LayerCount: 2
Fore
SplineSet
0 175 m 0
 114 175 165 203 193 235 c 0
 234 286 246 370 246 474 c 2
 246 1411 l 1
 446 1411 l 1
 446 474 l 2
 446 370 458 286 499 235 c 0
 526 203 577 175 692 175 c 1
 692 -25 l 1
 547 -25 425 13 346 106 c 1
 265 11 145 -25 0 -25 c 0
 -55 -25 -100 20 -100 75 c 0
 -100 130 -55 175 0 175 c 0
EndSplineSet
Colour: ffff
EndChar

StartChar: uniFEE2
Encoding: 65250 65250 132
Width: 1329
VWidth: 2374
Flags: HMW
AnchorPoint: "Anchor-3" 668 -50 basechar 0
AnchorPoint: "Anchor-5" 750 696 basechar 0
LayerCount: 2
Fore
SplineSet
553 203 m 1
 617 192 725 175 778 175 c 0
 912 175 921 205 921 227 c 0
 921 270 917 307 911 341 c 0
 885 470 815 521 750 521 c 0
 637 521 569 403 553 203 c 1
778 -25 m 0
 674 -25 526 13 422 13 c 0
 336 13 278 -24 278 -149 c 2
 278 -883 l 1
 78 -883 l 1
 78 -149 l 2
 78 45 194 179 353 207 c 1
 368 411 449 721 750 721 c 0
 948 721 1067 567 1106 375 c 1
 1108 375 l 1
 1135 219 1189 175 1329 175 c 1
 1329 -25 l 1
 1219 -25 1128 6 1058 64 c 1
 986 -7 865 -25 778 -25 c 0
EndSplineSet
Colour: ffff
EndChar

StartChar: uniFEE3
Encoding: 65251 65251 133
Width: 1046
VWidth: 1854
Flags: HMW
AnchorPoint: "Anchor-5" 590 744 basechar 0
AnchorPoint: "Anchor-3" 619 0 basechar 0
LayerCount: 2
Fore
SplineSet
400 314 m 1
 457 243 580 175 648 175 c 0
 699 175 768 232 768 322 c 0
 768 441 683 541 605 541 c 0
 528 541 464 485 416 354 c 1
 400 314 l 1
0 175 m 0
 96 175 129 203 178 303 c 0
 194 336 211 376 228 423 c 0
 286 583 404 741 605 741 c 0
 841 741 968 507 968 322 c 0
 968 138 829 -25 648 -25 c 0
 520 -25 395 45 305 125 c 1
 237 32 133 -25 0 -25 c 0
 -55 -25 -100 20 -100 75 c 0
 -100 130 -55 175 0 175 c 0
EndSplineSet
Colour: ffff
EndChar

StartChar: uniFEE4
Encoding: 65252 65252 134
Width: 1238
VWidth: 1854
Flags: HMW
AnchorPoint: "Anchor-5" 590 744 basechar 0
AnchorPoint: "Anchor-3" 619 0 basechar 0
LayerCount: 2
Fore
SplineSet
400 314 m 1
 457 243 580 175 648 175 c 0
 699 175 768 232 768 322 c 0
 768 441 683 541 605 541 c 0
 528 541 464 485 416 354 c 1
 400 314 l 1
0 175 m 0
 96 175 129 203 178 303 c 0
 194 336 211 376 228 423 c 0
 286 583 404 741 605 741 c 0
 820 741 945 546 965 371 c 0
 972 315 993 274 1014 247 c 0
 1047 206 1105 175 1238 175 c 1
 1238 -25 l 1
 1094 -25 971 8 886 91 c 1
 828 20 744 -25 648 -25 c 0
 520 -25 395 45 305 125 c 1
 237 32 133 -25 0 -25 c 0
 -55 -25 -100 20 -100 75 c 0
 -100 130 -55 175 0 175 c 0
EndSplineSet
Colour: ffff
EndChar

StartChar: uniFEEA
Encoding: 65258 65258 135
Width: 1041
VWidth: 2374
Flags: HMW
AnchorPoint: "Anchor-5" 493 1003 basechar 0
AnchorPoint: "Anchor-3" 513 0 basechar 0
LayerCount: 2
Fore
SplineSet
1041 175 m 1
 1041 -25 l 1
 896 -25 774 12 694 107 c 0
 670 136 653 167 640 199 c 1
 585 187 526 180 477 180 c 0
 303 180 80 261 80 497 c 0
 80 746 333 868 569 912 c 1
 563 1007 l 1
 763 1019 l 1
 795 480 l 2
 803 345 820 270 848 235 c 0
 875 203 926 175 1041 175 c 1
581 710 m 1
 389 668 280 574 280 497 c 0
 280 429 335 380 477 380 c 0
 505 380 557 389 600 398 c 1
 598 421 596 444 595 468 c 2
 581 710 l 1
EndSplineSet
Colour: ffff
EndChar

StartChar: uniFEEB
Encoding: 65259 65259 136
Width: 1293
VWidth: 1854
Flags: HMW
AnchorPoint: "Anchor-5" 578 952 basechar 0
AnchorPoint: "Anchor-3" 678 28 basechar 0
LayerCount: 2
Fore
SplineSet
481 263 m 1
 572 311 624 376 624 471 c 0
 624 533 615 581 595 612 c 0
 576 641 548 656 509 656 c 0
 465 656 409 636 366 600 c 0
 326 567 297 519 297 461 c 0
 297 393 352 333 448 280 c 0
 458 274 470 268 481 263 c 1
694 191 m 1
 754 180 819 175 854 175 c 0
 987 175 1015 229 1015 310 c 0
 1015 393 939 469 800 541 c 1
 803 517 804 494 804 471 c 0
 804 362 763 265 694 191 c 1
0 175 m 0
 79 175 154 180 222 190 c 1
 151 256 97 349 97 461 c 0
 97 623 193 740 300 801 c 1
 250 842 209 883 175 920 c 1
 323 1054 l 1
 395 974 519 871 673 816 c 0
 897 736 1215 606 1215 310 c 0
 1215 129 1085 -25 854 -25 c 0
 760 -25 589 4 473 46 c 1
 339 -3 175 -25 0 -25 c 0
 -55 -25 -100 20 -100 75 c 0
 -100 130 -55 175 0 175 c 0
EndSplineSet
Colour: ffff
EndChar

StartChar: uniFEEC
Encoding: 65260 65260 137
Width: 986
VWidth: 1854
Flags: HMW
AnchorPoint: "Anchor-5" 494 782 basechar 0
AnchorPoint: "Anchor-3" 494 -538 basechar 0
LayerCount: 2
Fore
SplineSet
330 203 m 1
 579 253 655 349 655 447 c 0
 655 570 613 592 544 592 c 0
 443 592 347 490 330 203 c 1
0 175 m 0
 45 175 88 177 129 179 c 1
 140 496 255 792 544 792 c 0
 727 792 855 674 855 467 c 0
 855 258 634 54 342 2 c 1
 378 -152 480 -273 580 -312 c 1
 601 -147 l 2
 629 70 775 175 986 175 c 1
 986 -25 l 1
 843 -25 815 -50 799 -173 c 0
 784 -291 769 -409 754 -527 c 1
 656 -527 l 2
 400 -527 196 -288 142 -21 c 1
 97 -24 49 -25 0 -25 c 0
 -55 -25 -100 20 -100 75 c 0
 -100 130 -55 175 0 175 c 0
EndSplineSet
Colour: ffff
EndChar

StartChar: zero
Encoding: 48 48 139
Width: 1119
VWidth: 1816
Flags: HMW
LayerCount: 2
Fore
SplineSet
560 -22 m 0
 118 -22 50 431 50 706 c 0
 50 981 118 1434 560 1434 c 0
 1002 1434 1069 981 1069 706 c 0
 1069 431 1002 -22 560 -22 c 0
560 152 m 0
 782 152 869 405 869 706 c 0
 869 1007 782 1258 560 1258 c 0
 338 1258 250 1007 250 706 c 0
 250 405 338 152 560 152 c 0
EndSplineSet
Colour: ffff00
EndChar

StartChar: one
Encoding: 49 49 140
Width: 721
VWidth: 1819
Flags: HMW
LayerCount: 2
Fore
SplineSet
121 1034 m 1
 119 1208 l 1
 211 1209 l 2
 384 1211 401 1219 401 1411 c 1
 601 1411 l 1
 601 0 l 1
 401 0 l 1
 401 1060 l 1
 345 1042 282 1036 213 1035 c 2
 121 1034 l 1
EndSplineSet
Colour: ffff00
EndChar

StartChar: two
Encoding: 50 50 141
Width: 1126
VWidth: 1816
Flags: HMW
LayerCount: 2
Fore
SplineSet
1006 152 m 1
 1006 -22 l 1
 50 -22 l 1
 50 195 l 1
 634 617 l 2
 765 712 831 822 831 960 c 0
 831 1175 683 1258 541 1258 c 0
 399 1258 251 1175 251 960 c 1
 51 960 l 1
 51 1265 293 1434 541 1434 c 0
 789 1434 1031 1265 1031 960 c 0
 1031 766 929 604 762 483 c 2
 305 152 l 1
 1006 152 l 1
EndSplineSet
Colour: ffff00
EndChar

StartChar: three
Encoding: 51 51 142
Width: 1079
VWidth: 1816
Flags: HMW
LayerCount: 2
Fore
SplineSet
309 1047 m 1
 109 1047 l 1
 109 1314 348 1434 561 1434 c 0
 778 1434 1010 1301 1010 1038 c 0
 1010 921 955 820 861 754 c 1
 975 681 1049 557 1049 396 c 0
 1049 95 772 -22 548 -22 c 0
 311 -22 50 116 50 408 c 1
 250 408 l 1
 250 228 391 152 548 152 c 0
 708 152 849 217 849 396 c 0
 849 595 712 663 539 663 c 2
 466 663 l 1
 466 838 l 1
 539 838 l 2
 712 838 810 913 810 1038 c 0
 810 1194 693 1259 561 1259 c 0
 423 1259 309 1200 309 1047 c 1
EndSplineSet
Colour: ffff00
EndChar

StartChar: four
Encoding: 52 52 143
Width: 1217
VWidth: 1816
Flags: HMW
LayerCount: 2
Fore
SplineSet
734 480 m 1
 734 1125 l 1
 275 480 l 1
 734 480 l 1
1097 480 m 1
 1097 304 l 1
 934 304 l 1
 934 0 l 1
 734 0 l 1
 734 304 l 1
 50 304 l 1
 50 465 l 1
 730 1434 l 1
 934 1434 l 1
 934 480 l 1
 1097 480 l 1
EndSplineSet
Colour: ffff00
EndChar

StartChar: five
Encoding: 53 53 144
Width: 1112
VWidth: 1816
Flags: HMW
LayerCount: 2
Fore
SplineSet
50 401 m 1
 250 401 l 1
 250 240 341 152 498 152 c 0
 710 152 817 241 817 501 c 0
 817 736 704 850 498 850 c 0
 401 850 286 793 195 735 c 1
 65 800 l 1
 126 1434 l 1
 992 1434 l 1
 992 1258 l 1
 310 1258 l 1
 284 987 l 1
 357 1013 428 1024 498 1024 c 0
 836 1024 1017 794 1017 501 c 0
 1017 179 830 -22 498 -22 c 0
 217 -22 50 168 50 401 c 1
EndSplineSet
Colour: ffff00
EndChar

StartChar: six
Encoding: 54 54 145
Width: 1095
VWidth: 1816
Flags: HMW
LayerCount: 2
Fore
SplineSet
564 748 m 0
 472 748 355 707 251 615 c 1
 262 331 335 152 563 152 c 0
 733 152 845 287 845 436 c 0
 845 653 711 748 564 748 c 0
50 689 m 0
 50 1121 241 1434 593 1434 c 0
 758 1434 899 1380 1014 1280 c 1
 874 1156 l 1
 791 1228 708 1258 593 1258 c 0
 442 1258 298 1146 259 843 c 1
 358 896 463 924 564 924 c 0
 837 924 1045 727 1045 436 c 0
 1045 221 875 -22 563 -22 c 0
 106 -22 50 397 50 689 c 0
EndSplineSet
Colour: ffff00
EndChar

StartChar: seven
Encoding: 55 55 146
Width: 1059
VWidth: 1816
Flags: HMW
LayerCount: 2
Fore
SplineSet
120 1258 m 1
 120 1434 l 1
 994 1434 l 1
 1045 1294 l 1
 447 -32 l 1
 261 32 l 1
 814 1258 l 1
 120 1258 l 1
EndSplineSet
Colour: ffff00
EndChar

StartChar: eight
Encoding: 56 56 147
Width: 1057
VWidth: 1816
Flags: HMW
LayerCount: 2
Fore
SplineSet
743 1064 m 0
 743 1166 682 1258 529 1258 c 0
 376 1258 314 1165 314 1064 c 0
 314 912 371 852 528 852 c 0
 684 852 743 912 743 1064 c 0
250 386 m 0
 250 245 345 152 529 152 c 0
 713 152 807 244 807 386 c 0
 807 555 672 678 528 678 c 0
 378 678 250 559 250 386 c 0
765 764 m 1
 887 697 1007 536 1007 386 c 0
 1007 154 815 -22 529 -22 c 0
 243 -22 50 153 50 386 c 0
 50 537 168 698 290 765 c 1
 203 815 114 942 114 1064 c 0
 114 1233 244 1434 529 1434 c 0
 814 1434 943 1232 943 1064 c 0
 943 941 853 814 765 764 c 1
EndSplineSet
Colour: ffff00
EndChar

StartChar: nine
Encoding: 57 57 148
Width: 1095
VWidth: 1816
Flags: HMW
LayerCount: 2
Fore
SplineSet
531 662 m 0
 623 662 739 704 844 796 c 1
 833 1080 760 1258 532 1258 c 0
 362 1258 250 1124 250 975 c 0
 250 758 384 662 531 662 c 0
1045 722 m 0
 1045 271 851 -22 502 -22 c 0
 337 -22 196 31 81 131 c 1
 221 255 l 1
 304 183 387 152 502 152 c 0
 658 152 798 253 836 568 c 1
 737 515 632 488 531 488 c 0
 258 488 50 684 50 975 c 0
 50 1190 220 1434 532 1434 c 0
 989 1434 1045 1014 1045 722 c 0
EndSplineSet
Colour: ffff00
EndChar

StartChar: uni0643
Encoding: 1603 1603 168
Width: 1585
VWidth: 1854
Flags: HMW
AnchorPoint: "Anchor-5" 810 971 basechar 0
AnchorPoint: "Anchor-3" 868 0 basechar 0
LayerCount: 2
Fore
SplineSet
1265 1411 m 1
 1465 1411 l 1
 1465 517 l 2
 1465 358 1443 220 1358 116 c 0
 1240 -27 1054 -25 868 -25 c 0
 484 -25 78 14 78 400 c 0
 78 484 94 578 112 653 c 1
 306 607 l 1
 291 544 278 458 278 400 c 0
 278 232 436 175 868 175 c 0
 1068 175 1162 193 1204 244 c 0
 1241 288 1265 374 1265 517 c 2
 1265 1411 l 1
EndSplineSet
Refer: 25 1620 N 1 0 0 1 811 -892 2
Substitution2: "'init' Initial Forms in Arabic lookup 4 subtable" uniFEDB
Substitution2: "'medi' Medial Forms in Arabic lookup 3 subtable" uniFEDC
Substitution2: "'fina' Terminal Forms in Arabic lookup 2 subtable" uniFEDA
Colour: ffff
EndChar

StartChar: uniFEEE
Encoding: 65262 65262 194
Width: 898
VWidth: 1854
Flags: HMW
AnchorPoint: "Anchor-3" 412 -502 basechar 0
AnchorPoint: "Anchor-5" 440 726 basechar 0
LayerCount: 2
Fore
SplineSet
617 175 m 1
 602 389 528 551 440 551 c 0
 384 551 282 450 282 304 c 0
 282 206 321 175 458 175 c 2
 617 175 l 1
807 -25 m 1
 749 -288 509 -446 148 -538 c 1
 98 -344 l 1
 406 -265 551 -153 599 -25 c 1
 458 -25 l 2
 273 -25 82 66 82 304 c 0
 82 508 216 751 440 751 c 0
 754 751 807 354 818 175 c 1
 898 175 l 1
 898 -25 l 1
 807 -25 l 1
EndSplineSet
PairPos2: "'kern' Horizontal Kerning in Arabic lookup 2 per glyph data 1" uni063A dx=-200 dy=0 dh=-200 dv=0 dx=0 dy=0 dh=0 dv=0
PairPos2: "'kern' Horizontal Kerning in Arabic lookup 2 per glyph data 1" uni0639 dx=-200 dy=0 dh=-200 dv=0 dx=0 dy=0 dh=0 dv=0
PairPos2: "'kern' Horizontal Kerning in Arabic lookup 2 per glyph data 3" uniFEDB dx=-262 dy=0 dh=-262 dv=0 dx=0 dy=0 dh=0 dv=0
PairPos2: "'kern' Horizontal Kerning in Arabic lookup 2 per glyph data 3" uniFB94 dx=-262 dy=0 dh=-262 dv=0 dx=0 dy=0 dh=0 dv=0
PairPos2: "'kern' Horizontal Kerning in Arabic lookup 2 per glyph data 3" uniFB90 dx=-262 dy=0 dh=-262 dv=0 dx=0 dy=0 dh=0 dv=0
PairPos2: "'kern' Horizontal Kerning in Arabic lookup 2 per glyph data 3" uni06AF dx=-262 dy=0 dh=-262 dv=0 dx=0 dy=0 dh=0 dv=0
PairPos2: "'kern' Horizontal Kerning in Arabic lookup 2 per glyph data 3" uni06A9 dx=-262 dy=0 dh=-262 dv=0 dx=0 dy=0 dh=0 dv=0
Colour: ffff
EndChar

StartChar: uniFEDA
Encoding: 65242 65242 232
Width: 1748
VWidth: 1854
Flags: HMW
AnchorPoint: "Anchor-5" 809 971 basechar 0
AnchorPoint: "Anchor-3" 868 0 basechar 0
LayerCount: 2
Fore
SplineSet
1366 126 m 1
 1250 -24 1060 -25 868 -25 c 0
 484 -25 78 14 78 400 c 0
 78 484 94 578 112 653 c 1
 306 607 l 1
 291 544 278 458 278 400 c 0
 278 232 436 175 868 175 c 0
 1068 175 1162 193 1204 244 c 0
 1251 301 1265 401 1265 517 c 2
 1265 1411 l 1
 1465 1411 l 1
 1465 517 l 2
 1465 402 1479 304 1525 247 c 0
 1558 205 1615 175 1748 175 c 1
 1748 -25 l 1
 1585 -25 1450 18 1366 126 c 1
EndSplineSet
Refer: 25 1620 N 1 0 0 1 824 -892 2
Colour: ffff
EndChar

StartChar: uniFB8F
Encoding: 64399 64399 239
Width: 1744
VWidth: 1854
Flags: HMW
AnchorPoint: "Anchor-3" 868 0 basechar 0
AnchorPoint: "Anchor-5" 1304 1258 basechar 0
LayerCount: 2
Fore
SplineSet
1678 1394 m 1
 1718 1198 l 1
 1491 1151 1256 1062 1057 945 c 1
 1234 800 1432 592 1481 390 c 1
 1536 238 1561 175 1744 175 c 1
 1744 -25 l 1
 1589 -25 1488 26 1419 99 c 1
 1297 -26 1051 -25 891 -25 c 0
 509 -25 79 11 79 400 c 0
 79 519 113 625 142 710 c 1
 332 648 l 1
 305 565 279 479 279 400 c 0
 279 235 457 175 891 175 c 0
 1179 175 1293 211 1293 298 c 0
 1293 408 1091 672 884 827 c 2
 844 857 l 1
 844 1048 l 1
 890 1077 l 2
 1127 1228 1404 1338 1678 1394 c 1
EndSplineSet
Colour: ffff
EndChar

StartChar: exclam
Encoding: 33 33 247
Width: 613
VWidth: 1647
Flags: HMW
LayerCount: 2
Fore
SplineSet
406 391 m 1
 206 391 l 1
 206 1411 l 1
 406 1411 l 1
 406 391 l 1
EndSplineSet
Refer: 0 46 N 1 0 0 1 80 0 2
Colour: ffff
EndChar

StartChar: uni066B
Encoding: 1643 1643 248
Width: 787
VWidth: 1854
Flags: HMW
LayerCount: 2
Fore
SplineSet
267 -303 m 1
 81 -231 l 1
 529 913 l 1
 715 841 l 1
 267 -303 l 1
EndSplineSet
PairPos2: "'kern' Horizontal Kerning in Arabic lookup 3 per glyph data 1" uni06F7 dx=-100 dy=0 dh=-100 dv=0 dx=0 dy=0 dh=0 dv=0
PairPos2: "'kern' Horizontal Kerning in Arabic lookup 3 per glyph data 1" uni06F0 dx=-50 dy=0 dh=-50 dv=0 dx=0 dy=0 dh=0 dv=0
PairPos2: "'kern' Horizontal Kerning in Arabic lookup 3 per glyph data 1" uni06F3 dx=-75 dy=0 dh=-75 dv=0 dx=0 dy=0 dh=0 dv=0
PairPos2: "'kern' Horizontal Kerning in Arabic lookup 3 per glyph data 1" uni06F2 dx=-100 dy=0 dh=-100 dv=0 dx=0 dy=0 dh=0 dv=0
PairPos2: "'kern' Horizontal Kerning in Arabic lookup 3 per glyph data 1" uni066B dx=-50 dy=0 dh=-50 dv=0 dx=0 dy=0 dh=0 dv=0
PairPos2: "'kern' Horizontal Kerning in Arabic lookup 3 per glyph data 0" uni0663 dx=-150 dy=0 dh=-150 dv=0 dx=0 dy=0 dh=0 dv=0
PairPos2: "'kern' Horizontal Kerning in Arabic lookup 3 per glyph data 0" uni0662 dx=-100 dy=0 dh=-100 dv=0 dx=0 dy=0 dh=0 dv=0
PairPos2: "'kern' Horizontal Kerning in Arabic lookup 3 per glyph data 0" uni0667 dx=-100 dy=0 dh=-100 dv=0 dx=0 dy=0 dh=0 dv=0
Colour: ffff
EndChar

StartChar: uniE000
Encoding: 57344 57344 249
Width: 120
VWidth: 2374
Flags: HMW
LayerCount: 2
Fore
SplineSet
0 175 m 2
 120 175 l 1
 120 -25 l 1
 0 -25 l 2
 -55 -25 -100 20 -100 75 c 0
 -100 130 -55 175 0 175 c 2
EndSplineSet
Colour: ffff
EndChar

StartChar: uniE001
Encoding: 57345 57345 250
Width: 320
VWidth: 0
Flags: HMW
LayerCount: 2
Fore
SplineSet
0 175 m 2
 320 175 l 1
 320 -25 l 1
 0 -25 l 2
 -55 -25 -100 20 -100 75 c 0
 -100 130 -55 175 0 175 c 2
EndSplineSet
Colour: ffff
EndChar

StartChar: uniE002
Encoding: 57346 57346 251
Width: 450
VWidth: 0
Flags: HMW
LayerCount: 2
Fore
SplineSet
0 175 m 2
 450 175 l 1
 450 -25 l 1
 0 -25 l 2
 -55 -25 -100 20 -100 75 c 0
 -100 130 -55 175 0 175 c 2
EndSplineSet
Colour: ffff
EndChar

StartChar: simpledot
Encoding: 1114131 -1 252
Width: 2374
VWidth: 1854
Flags: HMW
LayerCount: 2
Fore
SplineSet
1029 132 m 1
 1187 290 l 1
 1345 132 l 1
 1187 -26 l 1
 1029 132 l 1
EndSplineSet
Colour: ff0000
EndChar

StartChar: hyphen
Encoding: 45 45 253
Width: 993
VWidth: 1647
Flags: HMW
LayerCount: 2
Fore
SplineSet
873 598 m 1
 873 422 l 1
 120 422 l 1
 120 598 l 1
 873 598 l 1
EndSplineSet
Colour: ffff00
EndChar

StartChar: numbersign
Encoding: 35 35 255
Width: 1683
VWidth: 1819
Flags: HMW
LayerCount: 2
Fore
SplineSet
444 -23 m 1
 250 23 l 1
 367 404 l 1
 120 404 l 1
 120 578 l 1
 420 578 l 1
 509 868 l 1
 212 868 l 1
 212 1044 l 1
 562 1044 l 1
 681 1434 l 1
 875 1388 l 1
 769 1044 l 1
 1110 1044 l 1
 1229 1434 l 1
 1423 1388 l 1
 1317 1044 l 1
 1563 1044 l 1
 1563 868 l 1
 1264 868 l 1
 1175 578 l 1
 1471 578 l 1
 1471 404 l 1
 1122 404 l 1
 992 -23 l 1
 798 23 l 1
 915 404 l 1
 574 404 l 1
 444 -23 l 1
1057 868 m 1
 716 868 l 1
 627 578 l 1
 968 578 l 1
 1057 868 l 1
EndSplineSet
Colour: ffff00
EndChar

StartChar: dollar
Encoding: 36 36 256
Width: 1146
VWidth: 1819
Flags: HMW
LayerCount: 2
Fore
SplineSet
498 1615 m 1
 648 1615 l 1
 648 -142 l 1
 498 -142 l 1
 498 1615 l 1
EndSplineSet
Refer: 283 83 N 1 0 0 1 0 0 2
EndChar

StartChar: percent
Encoding: 37 37 257
Width: 1454
VWidth: 1819
Flags: HMW
LayerCount: 2
Fore
SplineSet
1179 238 m 0
 1179 306 1128 362 1063 362 c 0
 998 362 946 305 946 238 c 0
 946 171 998 119 1063 119 c 0
 1127 119 1179 171 1179 238 c 0
1329 238 m 0
 1329 91 1213 -31 1063 -31 c 0
 914 -31 796 91 796 238 c 0
 796 379 906 512 1063 512 c 0
 1220 512 1329 378 1329 238 c 0
508 1137 m 0
 508 1205 457 1261 392 1261 c 0
 327 1261 275 1204 275 1137 c 0
 275 1070 327 1018 392 1018 c 0
 456 1018 508 1070 508 1137 c 0
658 1137 m 0
 658 990 542 868 392 868 c 0
 243 868 125 990 125 1137 c 0
 125 1278 235 1411 392 1411 c 0
 549 1411 658 1277 658 1137 c 0
EndSplineSet
Refer: 1 47 N 1 0 0 1 202 0 2
Colour: ffff
EndChar

StartChar: ampersand
Encoding: 38 38 258
Width: 1138
VWidth: 1819
Flags: HMW
LayerCount: 2
Fore
SplineSet
458 859 m 1
 604 937 689 996 689 1113 c 0
 689 1191 631 1258 519 1258 c 0
 403 1258 340 1187 340 1083 c 0
 340 1029 357 994 391 949 c 2
 458 859 l 1
716 194 m 1
 400 617 l 1
 307 555 250 492 250 376 c 0
 250 232 344 152 520 152 c 0
 600 152 665 168 716 194 c 1
974 169 m 1
 1065 48 l 1
 897 -48 l 1
 826 48 l 1
 739 2 634 -22 520 -22 c 0
 250 -22 50 136 50 376 c 0
 50 564 166 684 290 764 c 1
 225 851 l 1
 166 923 140 1003 140 1083 c 0
 140 1257 273 1434 519 1434 c 0
 747 1434 889 1277 889 1113 c 0
 889 898 711 789 568 712 c 1
 851 334 l 1
 874 384 888 445 888 516 c 1
 1088 516 l 1
 1088 383 1050 263 974 169 c 1
EndSplineSet
Colour: ffff00
EndChar

StartChar: quotesingle
Encoding: 39 39 259
Width: 400
VWidth: 1819
Flags: HMW
LayerCount: 2
Fore
SplineSet
150 1411 m 1
 250 1411 l 1
 250 896 l 1
 150 896 l 1
 150 1411 l 1
EndSplineSet
Colour: ff00
EndChar

StartChar: plus
Encoding: 43 43 260
Width: 993
VWidth: 1647
Flags: HMW
LayerCount: 2
Fore
SplineSet
873 598 m 1
 873 422 l 1
 596 422 l 1
 596 134 l 1
 396 134 l 1
 396 422 l 1
 120 422 l 1
 120 598 l 1
 396 598 l 1
 396 886 l 1
 596 886 l 1
 596 598 l 1
 873 598 l 1
EndSplineSet
Colour: ffff00
EndChar

StartChar: comma
Encoding: 44 44 261
Width: 502
VWidth: 1854
Flags: HMW
LayerCount: 2
Fore
SplineSet
213 -316 m 1
 146 -264 l 1
 178 -228 270 -121 270 0 c 1
 172 0 120 44 120 134 c 0
 120 209 175 260 242 260 c 0
 328 260 382 203 382 89 c 0
 382 -102 286 -227 213 -316 c 1
EndSplineSet
EndChar

StartChar: question
Encoding: 63 63 263
Width: 1067
VWidth: 1854
Flags: HMW
LayerCount: 2
Fore
SplineSet
304 960 m 1
 106 936 l 1
 101 967 100 997 100 1024 c 0
 100 1236 242 1434 528 1434 c 0
 811 1434 967 1215 967 983 c 0
 967 821 863 730 771 670 c 0
 684 612 613 563 613 405 c 1
 413 405 l 1
 413 631 549 742 651 810 c 0
 728 861 767 893 767 983 c 0
 767 1159 667 1258 528 1258 c 0
 374 1258 300 1174 300 1024 c 0
 300 1001 301 981 304 960 c 1
EndSplineSet
Refer: 0 46 N 1 0 0 1 289 0 2
Colour: ffff00
EndChar

StartChar: at
Encoding: 64 64 264
Width: 2061
VWidth: 1819
Flags: HMW
LayerCount: 2
Fore
SplineSet
1046 1088 m 0
 1239 1088 1358 1023 1445 953 c 2
 1480 925 l 1
 1426 304 l 2
 1425 296 1425 290 1425 279 c 0
 1425 171 1473 132 1554 132 c 0
 1689 132 1811 289 1811 530 c 0
 1811 978 1450 1324 1031 1324 c 0
 612 1324 250 978 250 530 c 0
 250 82 611 -262 1031 -262 c 0
 1104 -262 1174 -252 1242 -233 c 1
 1304 -399 l 1
 1218 -424 1126 -438 1031 -438 c 0
 479 -438 50 6 50 530 c 0
 50 1054 478 1498 1031 1498 c 0
 1584 1498 2011 1054 2011 530 c 0
 2011 273 1879 -44 1554 -44 c 0
 1427 -44 1335 11 1281 90 c 1
 1195 3 1083 -44 963 -44 c 0
 728 -44 502 112 502 452 c 0
 502 845 742 1088 1046 1088 c 0
1046 912 m 0
 886 912 702 789 702 452 c 0
 702 188 842 132 963 132 c 0
 1068 132 1215 205 1241 479 c 1
 1241 483 l 1
 1273 851 l 1
 1220 887 1165 912 1046 912 c 0
EndSplineSet
Colour: ffff00
EndChar

StartChar: A
Encoding: 65 65 265
Width: 1343
VWidth: 1819
Flags: HMW
LayerCount: 2
Fore
SplineSet
430 542 m 1
 913 542 l 1
 672 1183 l 1
 430 542 l 1
226 1 m 1
 14 1 l 1
 577 1434 l 1
 767 1434 l 1
 1329 1 l 1
 1117 1 l 1
 979 368 l 1
 364 368 l 1
 226 1 l 1
EndSplineSet
Colour: ffff00
EndChar

StartChar: B
Encoding: 66 66 266
Width: 1286
VWidth: 1819
Flags: HMW
LayerCount: 2
Fore
SplineSet
120 1434 m 1
 685 1434 l 2
 931 1434 1123 1253 1123 1024 c 0
 1123 905 1072 801 988 728 c 1
 1109 655 1186 526 1186 381 c 0
 1186 151 992 -22 748 -22 c 2
 120 -22 l 1
 120 1434 l 1
320 618 m 1
 320 152 l 1
 748 152 l 2
 876 152 986 239 986 381 c 0
 986 525 873 618 748 618 c 2
 320 618 l 1
685 794 m 2
 813 794 923 882 923 1024 c 0
 923 1167 811 1258 685 1258 c 2
 320 1258 l 1
 320 794 l 1
 685 794 l 2
EndSplineSet
Colour: ffff00
EndChar

StartChar: C
Encoding: 67 67 267
Width: 1303
VWidth: 1819
Flags: HMW
LayerCount: 2
Fore
SplineSet
1031 1151 m 1
 956 1219 860 1258 731 1258 c 0
 415 1258 250 1046 250 706 c 0
 250 366 415 152 731 152 c 0
 860 152 955 193 1031 261 c 1
 1175 139 l 1
 1065 39 912 -22 731 -22 c 0
 265 -22 50 322 50 706 c 0
 50 1090 265 1434 731 1434 c 0
 912 1434 1064 1373 1175 1273 c 1
 1031 1151 l 1
EndSplineSet
Colour: ffff00
EndChar

StartChar: D
Encoding: 68 68 268
Width: 1292
VWidth: 1819
Flags: HMW
LayerCount: 2
Fore
SplineSet
560 1434 m 2
 1031 1434 1242 1096 1242 706 c 0
 1242 316 1031 -22 560 -22 c 2
 120 -22 l 1
 120 1434 l 1
 560 1434 l 2
560 1258 m 2
 320 1258 l 1
 320 152 l 1
 560 152 l 2
 883 152 1042 360 1042 706 c 0
 1042 1052 883 1258 560 1258 c 2
EndSplineSet
Colour: ffff00
EndChar

StartChar: E
Encoding: 69 69 269
Width: 1151
VWidth: 1819
Flags: HMW
LayerCount: 2
Fore
SplineSet
1001 152 m 1
 1001 -22 l 1
 120 -22 l 1
 120 1434 l 1
 1001 1434 l 1
 1001 1258 l 1
 320 1258 l 1
 320 794 l 1
 1001 794 l 1
 1001 618 l 1
 320 618 l 1
 320 152 l 1
 1001 152 l 1
EndSplineSet
Colour: ffff00
EndChar

StartChar: F
Encoding: 70 70 270
Width: 1151
VWidth: 1819
Flags: HMW
LayerCount: 2
Fore
SplineSet
320 0 m 1
 120 0 l 1
 120 1434 l 1
 1001 1434 l 1
 1001 1258 l 1
 320 1258 l 1
 320 794 l 1
 885 794 l 1
 885 618 l 1
 320 618 l 1
 320 0 l 1
EndSplineSet
Colour: ffff00
EndChar

StartChar: G
Encoding: 71 71 271
Width: 1400
VWidth: 1819
Flags: HMW
LayerCount: 2
Fore
SplineSet
1202 1273 m 1
 1058 1151 l 1
 988 1214 863 1258 731 1258 c 0
 415 1258 250 1046 250 706 c 0
 250 366 415 152 731 152 c 0
 1027 152 1080 266 1080 460 c 2
 1080 630 l 1
 753 629 l 1
 751 803 l 1
 1280 806 l 1
 1280 460 l 2
 1280 210 1145 -22 731 -22 c 0
 265 -22 50 322 50 706 c 0
 50 1090 265 1434 731 1434 c 0
 909 1434 1086 1378 1202 1273 c 1
EndSplineSet
Colour: ffff00
EndChar

StartChar: H
Encoding: 72 72 272
Width: 1309
VWidth: 1819
Flags: HMW
LayerCount: 2
Fore
SplineSet
989 1411 m 1
 1189 1411 l 1
 1189 0 l 1
 989 0 l 1
 989 640 l 1
 320 640 l 1
 320 0 l 1
 120 0 l 1
 120 1411 l 1
 320 1411 l 1
 320 816 l 1
 989 816 l 1
 989 1411 l 1
EndSplineSet
Colour: ffff00
EndChar

StartChar: I
Encoding: 73 73 273
Width: 440
VWidth: 1819
Flags: HMW
LayerCount: 2
Fore
SplineSet
320 0 m 1
 120 0 l 1
 120 1411 l 1
 320 1411 l 1
 320 0 l 1
EndSplineSet
Colour: ffff00
EndChar

StartChar: J
Encoding: 74 74 274
Width: 840
VWidth: 1819
Flags: HMW
LayerCount: 2
Fore
SplineSet
48 31 m 1
 152 181 l 1
 186 163 231 152 286 152 c 0
 422 152 520 196 520 400 c 2
 520 1411 l 1
 720 1411 l 1
 720 400 l 2
 720 112 520 -22 286 -22 c 0
 203 -22 120 -7 48 31 c 1
EndSplineSet
Colour: ffff00
EndChar

StartChar: K
Encoding: 75 75 275
Width: 1276
VWidth: 1819
Flags: HMW
LayerCount: 2
Fore
SplineSet
946 1411 m 1
 1206 1411 l 1
 569 734 l 1
 1202 0 l 1
 950 0 l 1
 438 595 l 1
 320 470 l 1
 320 0 l 1
 120 0 l 1
 120 1411 l 1
 320 1411 l 1
 320 745 l 1
 946 1411 l 1
EndSplineSet
Colour: ffff00
EndChar

StartChar: L
Encoding: 76 76 276
Width: 1101
VWidth: 1819
Flags: HMW
LayerCount: 2
Fore
SplineSet
1001 152 m 1
 1001 -22 l 1
 120 -22 l 1
 120 1411 l 1
 320 1411 l 1
 320 152 l 1
 1001 152 l 1
EndSplineSet
Colour: ffff00
EndChar

StartChar: M
Encoding: 77 77 277
Width: 1755
VWidth: 1819
Flags: HMW
LayerCount: 2
Fore
SplineSet
320 0 m 1
 120 0 l 1
 120 1434 l 1
 337 1434 l 1
 855 202 l 1
 1420 1434 l 1
 1635 1434 l 1
 1635 0 l 1
 1435 0 l 1
 1435 1055 l 1
 954 0 l 1
 748 0 l 1
 320 1027 l 1
 320 0 l 1
EndSplineSet
Colour: ffff00
EndChar

StartChar: N
Encoding: 78 78 278
Width: 1356
VWidth: 1819
Flags: HMW
LayerCount: 2
Fore
SplineSet
1036 1411 m 1
 1236 1411 l 1
 1236 -22 l 1
 1029 -22 l 1
 320 1131 l 1
 320 0 l 1
 120 0 l 1
 120 1434 l 1
 327 1434 l 1
 1036 280 l 1
 1036 1411 l 1
EndSplineSet
Colour: ffff00
EndChar

StartChar: O
Encoding: 79 79 279
Width: 1462
VWidth: 1819
Flags: HMW
LayerCount: 2
Fore
SplineSet
731 1434 m 0
 1197 1434 1412 1090 1412 706 c 0
 1412 322 1197 -22 731 -22 c 0
 265 -22 50 322 50 706 c 0
 50 1090 265 1434 731 1434 c 0
731 1258 m 0
 415 1258 250 1046 250 706 c 0
 250 366 415 152 731 152 c 0
 1047 152 1212 366 1212 706 c 0
 1212 1046 1047 1258 731 1258 c 0
EndSplineSet
Colour: ffff00
EndChar

StartChar: P
Encoding: 80 80 280
Width: 1173
VWidth: 1819
Flags: HMW
LayerCount: 2
Fore
SplineSet
320 0 m 1
 120 0 l 1
 120 1434 l 1
 685 1434 l 2
 931 1434 1123 1253 1123 1024 c 0
 1123 794 929 618 685 618 c 2
 320 618 l 1
 320 0 l 1
320 1258 m 1
 320 794 l 1
 685 794 l 2
 813 794 923 882 923 1024 c 0
 923 1167 811 1258 685 1258 c 2
 320 1258 l 1
EndSplineSet
Colour: ffff00
EndChar

StartChar: Q
Encoding: 81 81 281
Width: 1462
VWidth: 1819
Flags: HMW
LayerCount: 2
Fore
SplineSet
1369 19 m 1
 1255 -77 l 1
 786 483 l 1
 900 579 l 1
 1369 19 l 1
EndSplineSet
Refer: 279 79 N 1 0 0 1 0 0 2
Colour: ffff00
EndChar

StartChar: R
Encoding: 82 82 282
Width: 1223
VWidth: 1819
Flags: HMW
LayerCount: 2
Fore
SplineSet
120 1434 m 1
 685 1434 l 2
 931 1434 1123 1253 1123 1024 c 0
 1123 892 1060 778 959 705 c 1
 1060 629 1123 512 1123 381 c 2
 1123 0 l 1
 923 0 l 1
 923 381 l 2
 923 525 810 618 685 618 c 2
 320 618 l 1
 320 0 l 1
 120 0 l 1
 120 1434 l 1
320 794 m 1
 685 794 l 2
 813 794 923 882 923 1024 c 0
 923 1167 811 1258 685 1258 c 2
 320 1258 l 1
 320 794 l 1
EndSplineSet
Colour: ffff00
EndChar

StartChar: S
Encoding: 83 83 283
Width: 1146
VWidth: 1819
Flags: HMW
LayerCount: 2
Fore
SplineSet
1066 995 m 1
 866 995 l 1
 866 1166 729 1258 560 1258 c 0
 395 1258 280 1184 280 1023 c 0
 280 901 397 853 612 795 c 0
 806 743 1096 664 1096 389 c 0
 1096 104 827 -22 587 -22 c 0
 335 -22 50 122 50 416 c 1
 250 416 l 1
 250 244 409 152 587 152 c 0
 761 152 896 226 896 389 c 0
 896 522 773 571 552 629 c 0
 363 679 80 757 80 1023 c 0
 80 1290 311 1434 560 1434 c 0
 821 1434 1066 1270 1066 995 c 1
EndSplineSet
Colour: ffff00
EndChar

StartChar: T
Encoding: 84 84 284
Width: 1300
VWidth: 1819
Flags: HMW
LayerCount: 2
Fore
SplineSet
750 0 m 1
 550 0 l 1
 550 1258 l 1
 100 1258 l 1
 100 1434 l 1
 1200 1434 l 1
 1200 1258 l 1
 750 1258 l 1
 750 0 l 1
EndSplineSet
Colour: ffff00
EndChar

StartChar: U
Encoding: 85 85 285
Width: 1316
VWidth: 1819
Flags: HMW
LayerCount: 2
Fore
SplineSet
996 1411 m 1
 1196 1411 l 1
 1196 478 l 2
 1196 183 954 -22 658 -22 c 0
 362 -22 120 183 120 478 c 2
 120 1411 l 1
 320 1411 l 1
 320 478 l 2
 320 271 474 152 658 152 c 0
 842 152 996 271 996 478 c 2
 996 1411 l 1
EndSplineSet
Colour: ffff00
EndChar

StartChar: V
Encoding: 86 86 286
Width: 1343
VWidth: 1819
Flags: HMW
LayerCount: 2
Fore
SplineSet
1117 1411 m 1
 1329 1411 l 1
 766 -22 l 1
 576 -22 l 1
 14 1411 l 1
 226 1411 l 1
 671 229 l 1
 1117 1411 l 1
EndSplineSet
Colour: ffff00
EndChar

StartChar: W
Encoding: 87 87 287
Width: 1932
VWidth: 1819
Flags: HMW
LayerCount: 2
Fore
SplineSet
1709 1411 m 1
 1915 1411 l 1
 1501 0 l 1
 1284 0 l 1
 966 1123 l 1
 647 0 l 1
 430 0 l 1
 17 1411 l 1
 223 1411 l 1
 539 288 l 1
 858 1411 l 1
 1074 1411 l 1
 1392 288 l 1
 1709 1411 l 1
EndSplineSet
Colour: ffff00
EndChar

StartChar: X
Encoding: 88 88 288
Width: 1186
VWidth: 1819
Flags: HMW
LayerCount: 2
Fore
SplineSet
1181 0 m 1
 951 0 l 1
 593 578 l 1
 235 0 l 1
 5 0 l 1
 477 705 l 1
 5 1411 l 1
 235 1411 l 1
 593 833 l 1
 951 1411 l 1
 1181 1411 l 1
 709 705 l 1
 1181 0 l 1
EndSplineSet
Colour: ffff00
EndChar

StartChar: Y
Encoding: 89 89 289
Width: 1186
VWidth: 1819
Flags: HMW
LayerCount: 2
Fore
SplineSet
952 1411 m 1
 1180 1411 l 1
 693 648 l 1
 693 0 l 1
 493 0 l 1
 493 648 l 1
 5 1411 l 1
 234 1411 l 1
 593 805 l 1
 952 1411 l 1
EndSplineSet
Colour: ffff00
EndChar

StartChar: Z
Encoding: 90 90 290
Width: 1400
VWidth: 1819
Flags: HMW
LayerCount: 2
Fore
SplineSet
150 1258 m 1
 150 1434 l 1
 1250 1434 l 1
 1250 1269 l 1
 358 152 l 1
 1250 152 l 1
 1250 -22 l 1
 150 -22 l 1
 150 142 l 1
 1042 1258 l 1
 150 1258 l 1
EndSplineSet
Colour: ffff00
EndChar

StartChar: bracketleft
Encoding: 91 91 291
Width: 642
VWidth: 1819
Flags: HMW
LayerCount: 2
Fore
SplineSet
542 152 m 1
 542 -22 l 1
 120 -22 l 1
 120 1434 l 1
 542 1434 l 1
 542 1258 l 1
 320 1258 l 1
 320 152 l 1
 542 152 l 1
EndSplineSet
Colour: ffff00
EndChar

StartChar: backslash
Encoding: 92 92 292
Width: 1019
VWidth: 1819
Flags: HMW
LayerCount: 2
Fore
SplineSet
958 45 m 1
 780 -45 l 1
 61 1366 l 1
 239 1456 l 1
 958 45 l 1
EndSplineSet
Colour: ffff
EndChar

StartChar: bracketright
Encoding: 93 93 293
Width: 642
VWidth: 1819
Flags: HMW
LayerCount: 2
Fore
SplineSet
100 1258 m 1
 100 1434 l 1
 522 1434 l 1
 522 -22 l 1
 100 -22 l 1
 100 152 l 1
 322 152 l 1
 322 1258 l 1
 100 1258 l 1
EndSplineSet
Colour: ffff00
EndChar

StartChar: asciicircum
Encoding: 94 94 294
Width: 704
VWidth: 1819
Flags: HMW
LayerCount: 2
Fore
SplineSet
623 1174 m 1
 545 1112 l 1
 352 1356 l 1
 159 1112 l 1
 81 1174 l 1
 308 1461 l 1
 396 1461 l 1
 623 1174 l 1
EndSplineSet
Colour: ff00
EndChar

StartChar: underscore
Encoding: 95 95 295
Width: 666
VWidth: 1819
Flags: HMW
LayerCount: 2
Fore
SplineSet
666 175 m 1
 666 -25 l 1
 0 -25 l 1
 0 175 l 1
 666 175 l 1
EndSplineSet
Colour: ffff
EndChar

StartChar: grave
Encoding: 96 96 296
Width: 524
VWidth: 1819
Flags: HMW
LayerCount: 2
Fore
SplineSet
403 1194 m 1
 319 1140 l 1
 121 1456 l 1
 205 1510 l 1
 403 1194 l 1
EndSplineSet
Colour: ff00
EndChar

StartChar: a
Encoding: 97 97 297
Width: 1056
VWidth: 1819
Flags: HMW
LayerCount: 2
Fore
SplineSet
320 731 m 1
 120 731 l 1
 120 956 337 1066 527 1066 c 0
 718 1066 936 956 936 731 c 2
 936 322 l 2
 936 191 952 87 971 22 c 1
 777 -22 l 1
 765 18 755 66 748 120 c 1
 655 26 521 -22 423 -22 c 0
 233 -22 102 86 102 270 c 0
 102 543 391 632 635 632 c 0
 669 632 703 630 736 627 c 1
 736 731 l 2
 736 836 646 890 527 890 c 0
 409 890 320 836 320 731 c 1
736 376 m 2
 736 469 l 1
 702 473 666 476 635 476 c 0
 470 476 296 419 296 287 c 0
 296 183 362 152 463 152 c 0
 589 152 736 236 736 376 c 2
EndSplineSet
Colour: ffff00
EndChar

StartChar: b
Encoding: 98 98 298
Width: 1158
VWidth: 1819
Flags: HMW
LayerCount: 2
Fore
SplineSet
320 0 m 1
 120 0 l 1
 120 1411 l 1
 320 1411 l 1
 320 905 l 1
 395 1001 505 1066 654 1066 c 0
 1003 1066 1108 787 1108 521 c 0
 1108 255 1002 -22 654 -22 c 0
 506 -22 395 42 320 138 c 1
 320 0 l 1
320 521 m 0
 320 291 426 152 614 152 c 0
 802 152 908 291 908 521 c 0
 908 751 801 890 614 890 c 0
 427 890 320 751 320 521 c 0
EndSplineSet
Colour: ffff00
EndChar

StartChar: c
Encoding: 99 99 299
Width: 1074
VWidth: 1819
Flags: HMW
LayerCount: 2
Fore
SplineSet
784 291 m 1
 964 215 l 1
 889 78 744 -22 544 -22 c 0
 196 -22 50 255 50 521 c 0
 50 787 195 1066 544 1066 c 0
 743 1066 889 966 964 830 c 1
 784 754 l 1
 735 842 661 890 544 890 c 0
 357 890 250 751 250 521 c 0
 250 291 356 152 544 152 c 0
 662 152 735 202 784 291 c 1
EndSplineSet
Colour: ffff00
EndChar

StartChar: d
Encoding: 100 100 300
Width: 1158
VWidth: 1819
Flags: HMW
LayerCount: 2
Fore
SplineSet
1038 0 m 1
 838 0 l 1
 838 138 l 1
 763 42 653 -23 504 -23 c 0
 155 -23 50 256 50 522 c 0
 50 788 156 1065 504 1065 c 0
 652 1065 763 1001 838 905 c 1
 838 1411 l 1
 1038 1411 l 1
 1038 0 l 1
838 522 m 0
 838 752 732 891 544 891 c 0
 356 891 250 752 250 522 c 0
 250 292 357 153 544 153 c 0
 731 153 838 292 838 522 c 0
EndSplineSet
Colour: ffff00
EndChar

StartChar: e
Encoding: 101 101 301
Width: 1095
VWidth: 1819
Flags: HMW
LayerCount: 2
Fore
SplineSet
256 608 m 1
 838 608 l 1
 810 787 710 890 544 890 c 0
 379 890 283 788 256 608 c 1
256 434 m 1
 286 242 402 152 570 152 c 0
 656 152 763 176 884 231 c 1
 976 75 l 1
 833 10 696 -22 570 -22 c 0
 247 -22 50 208 50 521 c 0
 50 787 195 1066 544 1066 c 0
 891 1066 1045 789 1045 521 c 2
 1045 434 l 1
 782 434 519 434 256 434 c 1
EndSplineSet
Colour: ffff00
EndChar

StartChar: f
Encoding: 102 102 302
Width: 784
VWidth: 1819
Flags: HMW
LayerCount: 2
Fore
SplineSet
683 1434 m 1
 683 1258 l 1
 496 1258 l 2
 465 1258 420 1229 420 1171 c 2
 420 1053 l 1
 684 1053 l 1
 684 903 l 1
 420 903 l 1
 420 0 l 1
 220 0 l 1
 220 903 l 1
 100 903 l 1
 100 1053 l 1
 220 1053 l 1
 220 1171 l 2
 220 1307 333 1434 496 1434 c 2
 683 1434 l 1
EndSplineSet
Colour: ffff00
EndChar

StartChar: g
Encoding: 103 103 303
Width: 1158
VWidth: 1819
Flags: HMW
LayerCount: 2
Fore
SplineSet
838 1043 m 1
 1038 1043 l 1
 1038 82 l 2
 1038 -276 795 -442 517 -442 c 0
 370 -442 218 -397 85 -321 c 1
 195 -175 l 1
 300 -235 416 -266 517 -266 c 0
 691 -266 838 -194 838 82 c 2
 838 138 l 1
 763 42 653 -23 504 -23 c 0
 155 -23 50 256 50 522 c 0
 50 788 156 1065 504 1065 c 0
 652 1065 763 1001 838 905 c 1
 838 1043 l 1
838 522 m 0
 838 752 732 891 544 891 c 0
 356 891 250 752 250 522 c 0
 250 292 357 153 544 153 c 0
 731 153 838 292 838 522 c 0
EndSplineSet
Colour: ffff00
EndChar

StartChar: h
Encoding: 104 104 304
Width: 1108
VWidth: 1819
Flags: HMW
LayerCount: 2
Fore
SplineSet
320 0 m 1
 120 0 l 1
 120 1411 l 1
 320 1411 l 1
 320 929 l 1
 401 1014 516 1066 644 1066 c 0
 958 1066 988 814 988 677 c 2
 988 0 l 1
 788 0 l 1
 788 677 l 2
 788 792 748 890 604 890 c 0
 432 890 320 792 320 623 c 2
 320 0 l 1
EndSplineSet
Colour: ffff00
EndChar

StartChar: k
Encoding: 107 107 307
Width: 1000
VWidth: 1819
Flags: HMW
LayerCount: 2
Fore
SplineSet
750 1043 m 1
 1004 1043 l 1
 530 521 l 1
 970 0 l 1
 722 0 l 1
 401 379 l 1
 320 289 l 1
 320 0 l 1
 120 0 l 1
 120 1411 l 1
 320 1411 l 1
 320 571 l 1
 750 1043 l 1
EndSplineSet
Colour: ffff00
EndChar

StartChar: l
Encoding: 108 108 308
Width: 440
VWidth: 1819
Flags: HMW
LayerCount: 2
Fore
SplineSet
320 0 m 1
 120 0 l 1
 120 1411 l 1
 320 1411 l 1
 320 0 l 1
EndSplineSet
Colour: ffff00
EndChar

StartChar: m
Encoding: 109 109 309
Width: 1576
VWidth: 1819
Flags: HMW
LayerCount: 2
Fore
SplineSet
120 1043 m 1
 320 1043 l 1
 320 948 l 1
 391 1018 488 1066 594 1066 c 0
 747 1066 820 996 855 912 c 1
 927 1000 1038 1066 1162 1066 c 0
 1450 1066 1456 818 1456 692 c 2
 1456 0 l 1
 1256 0 l 1
 1256 692 l 2
 1256 818 1222 890 1122 890 c 0
 991 890 888 772 888 692 c 2
 888 0 l 1
 688 0 l 1
 688 692 l 2
 688 818 654 890 554 890 c 0
 423 890 320 772 320 692 c 2
 320 0 l 1
 120 0 l 1
 120 1043 l 1
EndSplineSet
Colour: ffff00
EndChar

StartChar: n
Encoding: 110 110 310
Width: 1108
VWidth: 1819
Flags: HMW
LayerCount: 2
Fore
SplineSet
320 0 m 1
 120 0 l 1
 120 1043 l 1
 320 1043 l 1
 320 929 l 1
 401 1014 516 1066 644 1066 c 0
 958 1066 988 814 988 677 c 2
 988 0 l 1
 788 0 l 1
 788 677 l 2
 788 792 748 890 604 890 c 0
 432 890 320 792 320 623 c 2
 320 0 l 1
EndSplineSet
Colour: ffff00
EndChar

StartChar: o
Encoding: 111 111 311
Width: 1088
VWidth: 1819
Flags: HMW
LayerCount: 2
Fore
SplineSet
544 890 m 0
 357 890 250 751 250 521 c 0
 250 291 356 152 544 152 c 0
 732 152 838 291 838 521 c 0
 838 751 731 890 544 890 c 0
544 1066 m 0
 893 1066 1038 787 1038 521 c 0
 1038 255 892 -22 544 -22 c 0
 196 -22 50 255 50 521 c 0
 50 787 195 1066 544 1066 c 0
EndSplineSet
Colour: ffff00
EndChar

StartChar: p
Encoding: 112 112 312
Width: 1158
VWidth: 1819
Flags: HMW
LayerCount: 2
Fore
SplineSet
120 1043 m 1
 320 1043 l 1
 320 905 l 1
 395 1001 505 1066 654 1066 c 0
 1003 1066 1108 787 1108 521 c 0
 1108 255 1002 -22 654 -22 c 0
 506 -22 395 42 320 138 c 1
 320 -419 l 1
 120 -419 l 1
 120 1043 l 1
320 521 m 0
 320 291 426 152 614 152 c 0
 802 152 908 291 908 521 c 0
 908 751 801 890 614 890 c 0
 427 890 320 751 320 521 c 0
EndSplineSet
Colour: ffff00
EndChar

StartChar: q
Encoding: 113 113 313
Width: 1158
VWidth: 1819
Flags: HMW
LayerCount: 2
Fore
SplineSet
838 1043 m 1
 1038 1043 l 1
 1038 -419 l 1
 838 -419 l 1
 838 138 l 1
 763 42 653 -23 504 -23 c 0
 155 -23 50 256 50 522 c 0
 50 788 156 1065 504 1065 c 0
 652 1065 763 1001 838 905 c 1
 838 1043 l 1
838 522 m 0
 838 752 732 891 544 891 c 0
 356 891 250 752 250 522 c 0
 250 292 357 153 544 153 c 0
 731 153 838 292 838 522 c 0
EndSplineSet
Colour: ffff00
EndChar

StartChar: r
Encoding: 114 114 314
Width: 774
VWidth: 1819
Flags: HMW
LayerCount: 2
Fore
SplineSet
120 1043 m 1
 320 1043 l 1
 320 909 l 1
 392 1002 498 1066 641 1066 c 2
 674 1066 l 1
 674 890 l 1
 601 890 l 2
 426 890 320 742 320 531 c 2
 320 0 l 1
 120 0 l 1
 120 1043 l 1
EndSplineSet
Colour: ffff00
EndChar

StartChar: s
Encoding: 115 115 315
Width: 959
VWidth: 1819
Flags: HMW
LayerCount: 2
Fore
SplineSet
892 734 m 1
 692 734 l 1
 692 845 606 890 479 890 c 0
 351 890 265 845 265 734 c 0
 265 664 314 649 491 627 c 0
 640 609 909 572 909 322 c 0
 909 77 673 -22 479 -22 c 0
 285 -22 50 77 50 322 c 1
 250 322 l 1
 250 203 345 152 479 152 c 0
 613 152 709 203 709 322 c 0
 709 414 642 431 463 453 c 0
 323 470 65 502 65 734 c 0
 65 971 293 1066 479 1066 c 0
 666 1066 892 971 892 734 c 1
EndSplineSet
Colour: ffff00
EndChar

StartChar: t
Encoding: 116 116 316
Width: 784
VWidth: 1819
Flags: HMW
LayerCount: 2
Fore
SplineSet
656 152 m 1
 656 -22 l 1
 496 -22 l 2
 333 -22 220 104 220 240 c 2
 220 903 l 1
 100 903 l 1
 100 1053 l 1
 220 1053 l 1
 220 1279 l 1
 420 1279 l 1
 420 1053 l 1
 684 1053 l 1
 684 903 l 1
 420 903 l 1
 420 240 l 2
 420 182 465 152 496 152 c 2
 656 152 l 1
EndSplineSet
Colour: ffff00
EndChar

StartChar: u
Encoding: 117 117 317
Width: 1108
VWidth: 1819
Flags: HMW
LayerCount: 2
Fore
SplineSet
788 1066 m 1
 988 1066 l 1
 988 23 l 1
 788 23 l 1
 788 137 l 1
 707 52 592 0 464 0 c 0
 150 0 120 252 120 389 c 2
 120 1066 l 1
 320 1066 l 1
 320 389 l 2
 320 274 360 176 504 176 c 0
 676 176 788 274 788 443 c 2
 788 1066 l 1
EndSplineSet
Colour: ffff00
EndChar

StartChar: v
Encoding: 118 118 318
Width: 1041
VWidth: 1819
Flags: HMW
LayerCount: 2
Fore
SplineSet
827 1043 m 1
 1038 1043 l 1
 625 0 l 1
 418 0 l 1
 3 1043 l 1
 214 1043 l 1
 521 227 l 1
 827 1043 l 1
EndSplineSet
Colour: ffff00
EndChar

StartChar: w
Encoding: 119 119 319
Width: 1459
VWidth: 1819
Flags: HMW
LayerCount: 2
Fore
SplineSet
1244 1043 m 1
 1451 1043 l 1
 1141 -22 l 1
 938 -22 l 1
 730 746 l 1
 522 -22 l 1
 319 -22 l 1
 8 1043 l 1
 215 1043 l 1
 420 295 l 1
 621 1043 l 1
 838 1043 l 1
 1040 295 l 1
 1244 1043 l 1
EndSplineSet
Colour: ffff00
EndChar

StartChar: x
Encoding: 120 120 320
Width: 1127
VWidth: 1819
Flags: HMW
LayerCount: 2
Fore
SplineSet
879 1043 m 1
 1124 1043 l 1
 686 506 l 1
 1099 0 l 1
 854 0 l 1
 564 401 l 1
 273 0 l 1
 27 0 l 1
 441 506 l 1
 3 1043 l 1
 248 1043 l 1
 564 612 l 1
 879 1043 l 1
EndSplineSet
Colour: ffff00
EndChar

StartChar: y
Encoding: 121 121 321
Width: 1057
VWidth: 1819
Flags: HMW
LayerCount: 2
Fore
SplineSet
843 1043 m 1
 1055 1043 l 1
 660 37 l 2
 577 -177 474 -442 154 -442 c 2
 100 -442 l 1
 100 -266 l 1
 154 -266 l 2
 291 -266 359 -176 435 5 c 1
 20 1043 l 1
 232 1043 l 1
 540 227 l 1
 843 1043 l 1
EndSplineSet
Colour: ffff00
EndChar

StartChar: z
Encoding: 122 122 322
Width: 1021
VWidth: 1819
Flags: HMW
LayerCount: 2
Fore
SplineSet
100 890 m 1
 100 1066 l 1
 921 1066 l 1
 921 902 l 1
 313 152 l 1
 921 152 l 1
 921 -22 l 1
 100 -22 l 1
 100 142 l 1
 707 890 l 1
 100 890 l 1
EndSplineSet
Colour: ffff00
EndChar

StartChar: bar
Encoding: 124 124 323
Width: 440
VWidth: 1819
Flags: HMW
LayerCount: 2
Fore
SplineSet
120 1411 m 1
 320 1411 l 1
 320 -419 l 1
 120 -419 l 1
 120 1411 l 1
EndSplineSet
Colour: ffff
EndChar

StartChar: asciitilde
Encoding: 126 126 324
Width: 868
VWidth: 1819
Flags: HMW
LayerCount: 2
Fore
SplineSet
709 1362 m 1
 801 1322 l 1
 748 1198 663 1134 581 1134 c 0
 515 1134 461 1158 404 1202 c 0
 352 1241 331 1249 288 1249 c 0
 259 1249 204 1230 160 1127 c 1
 68 1167 l 1
 122 1294 209 1349 288 1349 c 0
 353 1349 404 1327 464 1282 c 0
 515 1244 539 1234 581 1234 c 0
 607 1234 664 1258 709 1362 c 1
EndSplineSet
Colour: ff00
EndChar

StartChar: cent
Encoding: 162 162 326
Width: 1074
VWidth: 1819
Flags: HMW
LayerCount: 2
Fore
SplineSet
644 978 m 1
 444 978 l 1
 444 1411 l 1
 644 1411 l 1
 644 978 l 1
644 -364 m 1
 444 -364 l 1
 444 65 l 1
 644 65 l 1
 644 -364 l 1
EndSplineSet
Refer: 299 99 N 1 0 0 1 0 0 2
Colour: ffff00
EndChar

StartChar: sterling
Encoding: 163 163 327
Width: 1254
VWidth: 1819
Flags: HMW
LayerCount: 2
Fore
SplineSet
729 1139 m 1
 715 1214 653 1258 594 1258 c 0
 529 1258 457 1202 457 1108 c 2
 457 593 l 1
 704 593 l 1
 704 443 l 1
 457 443 l 1
 457 282 l 2
 457 237 450 193 433 152 c 1
 1134 152 l 1
 1134 -22 l 1
 120 -22 l 1
 120 152 l 1
 165 152 191 161 208 170 c 0
 235 185 257 215 257 282 c 2
 257 443 l 1
 120 443 l 1
 120 593 l 1
 257 593 l 1
 257 1108 l 2
 257 1278 395 1434 594 1434 c 0
 769 1434 901 1312 927 1167 c 1
 729 1139 l 1
EndSplineSet
Colour: ffff00
EndChar

StartChar: currency
Encoding: 164 164 328
Width: 1263
VWidth: 1819
Flags: HMW
LayerCount: 2
Fore
SplineSet
429 917 m 1
 271 811 l 1
 41 1074 l 1
 199 1180 l 1
 429 917 l 1
271 230 m 1
 429 124 l 1
 199 -139 l 1
 41 -33 l 1
 271 230 l 1
992 811 m 1
 834 917 l 1
 1064 1180 l 1
 1222 1074 l 1
 992 811 l 1
834 124 m 1
 992 230 l 1
 1222 -33 l 1
 1064 -139 l 1
 834 124 l 1
EndSplineSet
Refer: 311 111 N 1 0 0 1 88 0 2
Colour: ffff00
EndChar

StartChar: yen
Encoding: 165 165 329
Width: 1186
VWidth: 1819
Flags: HMW
LayerCount: 2
Fore
SplineSet
256 596 m 1
 256 746 l 1
 930 746 l 1
 930 596 l 1
 256 596 l 1
256 270 m 1
 256 420 l 1
 930 420 l 1
 930 270 l 1
 256 270 l 1
EndSplineSet
Refer: 289 89 N 1 0 0 1 0 0 2
EndChar

StartChar: brokenbar
Encoding: 166 166 330
Width: 440
VWidth: 1819
Flags: HMW
LayerCount: 2
Fore
SplineSet
320 875 m 1
 120 875 l 1
 120 1411 l 1
 320 1411 l 1
 320 875 l 1
320 0 m 1
 120 0 l 1
 120 519 l 1
 320 519 l 1
 320 0 l 1
EndSplineSet
Colour: ffff
EndChar

StartChar: section
Encoding: 167 167 331
Width: 952
VWidth: 1819
Flags: HMW
LayerCount: 2
Fore
SplineSet
52 276 m 1
 252 276 l 1
 252 159 344 110 476 110 c 0
 609 110 702 160 702 276 c 0
 702 328 639 357 460 382 c 0
 307 403 50 444 50 682 c 0
 50 794 100 878 174 935 c 1
 103 975 50 1037 50 1136 c 0
 50 1378 283 1476 476 1476 c 0
 669 1476 901 1378 901 1136 c 1
 701 1136 l 1
 701 1252 609 1302 476 1302 c 0
 343 1302 250 1252 250 1136 c 0
 250 1084 314 1055 493 1028 c 0
 649 1005 902 958 902 718 c 0
 902 608 854 528 783 474 c 1
 851 434 902 372 902 276 c 0
 902 34 669 -66 476 -66 c 0
 282 -66 52 35 52 276 c 1
468 854 m 1
 343 852 250 798 250 682 c 0
 250 601 309 580 484 556 c 1
 615 558 702 605 702 718 c 0
 702 806 641 828 468 854 c 1
EndSplineSet
Colour: ffff00
EndChar

StartChar: copyright
Encoding: 169 169 333
Width: 1670
VWidth: 1819
Flags: HMW
LayerCount: 2
Fore
SplineSet
250 728 m 0
 250 388 523 132 835 132 c 0
 1147 132 1420 388 1420 728 c 0
 1420 1067 1147 1324 835 1324 c 0
 523 1324 250 1067 250 728 c 0
50 728 m 0
 50 1145 391 1498 835 1498 c 0
 1279 1498 1620 1145 1620 728 c 0
 1620 312 1279 -44 835 -44 c 0
 391 -44 50 312 50 728 c 0
1020 564 m 1
 1182 462 l 1
 1099 361 970 302 835 302 c 0
 571 302 395 510 395 729 c 0
 395 948 570 1158 835 1158 c 0
 970 1158 1099 1098 1182 997 c 1
 1020 895 l 1
 973 952 902 982 835 982 c 0
 708 982 595 876 595 729 c 0
 595 582 707 476 835 476 c 0
 902 476 973 507 1020 564 c 1
EndSplineSet
Colour: ffff00
EndChar

StartChar: ordfeminine
Encoding: 170 170 334
Width: 747
VWidth: 1819
Flags: HMW
LayerCount: 2
Fore
SplineSet
628 932 m 1
 566 854 l 1
 546 870 527 892 514 922 c 1
 461 871 391 844 310 844 c 0
 189 844 100 922 100 1031 c 0
 100 1196 251 1253 411 1253 c 0
 439 1253 464 1251 490 1248 c 1
 490 1307 l 2
 490 1372 437 1405 350 1405 c 0
 264 1405 213 1373 213 1307 c 1
 113 1307 l 1
 113 1453 244 1505 350 1505 c 0
 455 1505 590 1454 590 1307 c 2
 590 1052 l 2
 590 970 613 944 628 932 c 1
490 1061 m 1
 490 1148 l 1
 462 1152 439 1153 411 1153 c 0
 261 1153 200 1110 200 1031 c 0
 200 984 231 944 310 944 c 0
 398 944 456 980 490 1061 c 1
EndSplineSet
Colour: ff00
EndChar

StartChar: logicalnot
Encoding: 172 172 335
Width: 1073
VWidth: 1819
Flags: HMW
LayerCount: 2
Fore
SplineSet
100 422 m 1
 100 598 l 1
 953 598 l 1
 953 238 l 1
 753 238 l 1
 753 422 l 1
 100 422 l 1
EndSplineSet
Colour: ffff00
EndChar

StartChar: registered
Encoding: 174 174 337
Width: 1670
VWidth: 1819
Flags: HMW
LayerCount: 2
Fore
SplineSet
1185 396 m 1
 1023 294 l 1
 815 548 l 1
 720 548 l 1
 720 345 l 1
 520 345 l 1
 520 1162 l 1
 866 1162 l 2
 1057 1162 1217 1033 1217 854 c 0
 1217 730 1140 632 1032 583 c 1
 1185 396 l 1
720 722 m 1
 866 722 l 2
 953 722 1017 772 1017 854 c 0
 1017 937 953 988 866 988 c 2
 720 988 l 1
 720 722 l 1
250 728 m 0
 250 388 523 132 835 132 c 0
 1147 132 1420 388 1420 728 c 0
 1420 1067 1147 1324 835 1324 c 0
 523 1324 250 1067 250 728 c 0
50 728 m 0
 50 1145 391 1498 835 1498 c 0
 1279 1498 1620 1145 1620 728 c 0
 1620 312 1279 -44 835 -44 c 0
 391 -44 50 312 50 728 c 0
EndSplineSet
Colour: ffff00
EndChar

StartChar: degree
Encoding: 176 176 339
Width: 646
VWidth: 1819
Flags: HMW
LayerCount: 2
Fore
SplineSet
465 1428 m 0
 465 1508 403 1570 323 1570 c 0
 243 1570 181 1508 181 1428 c 0
 181 1348 243 1286 323 1286 c 0
 403 1286 465 1348 465 1428 c 0
565 1428 m 0
 565 1294 457 1186 323 1186 c 0
 189 1186 81 1294 81 1428 c 0
 81 1562 189 1670 323 1670 c 0
 457 1670 565 1562 565 1428 c 0
EndSplineSet
Colour: ff00
EndChar

StartChar: uni00B2
Encoding: 178 178 341
Width: 658
VWidth: 1819
Flags: HMW
LayerCount: 2
Fore
SplineSet
100 869 m 1
 100 969 l 1
 378 1214 l 2
 406 1242 418 1256 418 1303 c 0
 418 1373 370 1405 309 1405 c 0
 248 1405 200 1373 200 1303 c 1
 100 1303 l 1
 100 1439 210 1505 309 1505 c 0
 408 1505 518 1439 518 1303 c 0
 518 1226 482 1178 448 1144 c 2
 243 969 l 1
 508 969 l 1
 508 869 l 1
 100 869 l 1
EndSplineSet
Colour: ff00
EndChar

StartChar: uni00B3
Encoding: 179 179 342
Width: 606
VWidth: 1819
Flags: HMW
LayerCount: 2
Fore
SplineSet
200 1321 m 1
 100 1321 l 1
 100 1429 197 1505 303 1505 c 0
 409 1505 506 1429 506 1321 c 0
 506 1267 480 1219 442 1187 c 1
 479 1156 506 1107 506 1053 c 0
 506 945 409 869 303 869 c 0
 197 869 100 945 100 1053 c 1
 200 1053 l 1
 200 1011 241 969 303 969 c 0
 365 969 406 1011 406 1053 c 0
 406 1095 365 1137 303 1137 c 2
 242 1137 l 1
 242 1237 l 1
 303 1237 l 2
 365 1237 406 1279 406 1321 c 0
 406 1363 365 1405 303 1405 c 0
 241 1405 200 1363 200 1321 c 1
EndSplineSet
Colour: ff00
EndChar

StartChar: acute
Encoding: 180 180 343
Width: 517
VWidth: 1819
Flags: HMW
LayerCount: 2
Fore
SplineSet
315 1509 m 1
 399 1457 l 1
 202 1141 l 1
 118 1193 l 1
 315 1509 l 1
EndSplineSet
Colour: ff00
EndChar

StartChar: mu
Encoding: 181 181 344
Width: 1108
VWidth: 1819
Flags: HMW
LayerCount: 2
Fore
SplineSet
788 1043 m 1
 988 1043 l 1
 988 0 l 1
 788 0 l 1
 788 114 l 1
 707 29 592 -23 464 -23 c 0
 407 -23 360 -14 320 -0 c 1
 320 -787 l 1
 120 -787 l 1
 120 -177 120 433 120 1043 c 1
 320 1043 l 1
 320 366 l 2
 320 251 360 153 504 153 c 0
 676 153 788 251 788 420 c 2
 788 1043 l 1
EndSplineSet
EndChar

StartChar: paragraph
Encoding: 182 182 345
Width: 1236
VWidth: 1819
Flags: HMW
LayerCount: 2
Fore
SplineSet
1116 -419 m 1
 946 -419 l 1
 946 1258 l 1
 828 1258 l 1
 828 -419 l 1
 658 -419 l 1
 658 470 l 1
 516 470 l 2
 246 470 50 687 50 951 c 0
 50 1215 246 1434 516 1434 c 2
 1116 1434 l 1
 1116 -419 l 1
658 1258 m 1
 516 1258 l 2
 386 1258 250 1147 250 951 c 0
 250 755 386 644 516 644 c 2
 658 644 l 1
 658 1258 l 1
EndSplineSet
Colour: ffff00
EndChar

StartChar: cedilla
Encoding: 184 184 347
Width: 723
VWidth: 1819
Flags: HMW
LayerCount: 2
Fore
SplineSet
242 -346 m 1
 252 -367 281 -386 334 -386 c 0
 419 -386 473 -341 473 -299 c 0
 473 -160 400 -114 309 -80 c 1
 389 80 l 1
 520 30 673 -78 673 -299 c 0
 673 -477 481 -560 334 -560 c 0
 231 -560 110 -521 58 -416 c 1
 242 -346 l 1
EndSplineSet
Colour: ffff00
EndChar

StartChar: uni00B9
Encoding: 185 185 348
Width: 457
VWidth: 1819
Flags: HMW
LayerCount: 2
Fore
SplineSet
89 1263 m 1
 89 1363 l 1
 229 1363 l 1
 230 1455 l 1
 330 1455 l 1
 330 829 l 1
 230 829 l 1
 230 1263 l 1
 89 1263 l 1
EndSplineSet
Colour: ff00
EndChar

StartChar: onequarter
Encoding: 188 188 350
Width: 1965
VWidth: 1819
Flags: HMW
LayerCount: 2
Fore
SplineSet
650 -4 m 1
 484 92 l 1
 1514 1459 l 1
 1680 1363 l 1
 650 -4 l 1
1519 24 m 1
 1519 449 l 1
 1234 24 l 1
 1519 24 l 1
1815 24 m 1
 1815 -152 l 1
 1719 -152 l 1
 1719 -358 l 1
 1519 -358 l 1
 1519 -152 l 1
 1005 -152 l 1
 1005 -5 l 1
 1523 788 l 1
 1719 788 l 1
 1719 24 l 1
 1815 24 l 1
150 1214 m 1
 150 1388 l 1
 182 1388 l 2
 353 1388 371 1398 371 1590 c 1
 571 1590 l 1
 571 530 l 1
 371 530 l 1
 371 1238 l 1
 315 1220 252 1214 182 1214 c 2
 150 1214 l 1
EndSplineSet
Colour: ffff00
EndChar

StartChar: onehalf
Encoding: 189 189 351
Width: 2096
VWidth: 1819
Flags: HMW
LayerCount: 2
Fore
SplineSet
1946 -230 m 1
 1946 -406 l 1
 1219 -406 l 1
 1219 -247 l 1
 1722 229 l 2
 1777 280 1806 316 1806 418 c 0
 1806 567 1707 620 1612 620 c 0
 1518 620 1420 568 1420 418 c 1
 1220 418 l 1
 1220 658 1412 794 1612 794 c 0
 1811 794 2006 659 2006 418 c 0
 2006 272 1941 178 1868 109 c 2
 1509 -230 l 1
 1946 -230 l 1
647 -4 m 1
 481 92 l 1
 1512 1459 l 1
 1678 1363 l 1
 647 -4 l 1
150 1214 m 1
 150 1388 l 1
 182 1388 l 2
 353 1388 371 1398 371 1590 c 1
 571 1590 l 1
 571 530 l 1
 371 530 l 1
 371 1238 l 1
 315 1220 252 1214 182 1214 c 2
 150 1214 l 1
EndSplineSet
Colour: ffff00
EndChar

StartChar: threequarters
Encoding: 190 190 352
Width: 2140
VWidth: 2047
Flags: HMW
LayerCount: 2
Fore
SplineSet
825 -4 m 1
 659 92 l 1
 1690 1459 l 1
 1856 1363 l 1
 825 -4 l 1
426 954 m 2
 340 954 l 1
 340 1130 l 1
 426 1130 l 2
 565 1130 635 1167 635 1303 c 0
 635 1392 548 1468 443 1468 c 0
 349 1468 250 1415 250 1265 c 1
 50 1265 l 1
 50 1505 243 1642 443 1642 c 0
 656 1642 835 1492 835 1303 c 0
 835 1195 797 1104 720 1042 c 1
 795 981 835 890 835 782 c 0
 835 593 656 442 443 442 c 0
 243 442 50 579 50 819 c 1
 250 819 l 1
 250 669 349 618 443 618 c 0
 548 618 635 693 635 782 c 0
 635 917 566 954 426 954 c 2
1694 24 m 1
 1694 449 l 1
 1409 24 l 1
 1694 24 l 1
1990 24 m 1
 1990 -152 l 1
 1894 -152 l 1
 1894 -358 l 1
 1694 -358 l 1
 1694 -152 l 1
 1180 -152 l 1
 1180 -5 l 1
 1698 788 l 1
 1894 788 l 1
 1894 24 l 1
 1990 24 l 1
EndSplineSet
Colour: ffff00
EndChar

StartChar: AE
Encoding: 198 198 360
Width: 1904
VWidth: 1819
Flags: HMW
LayerCount: 2
Fore
SplineSet
1754 152 m 1
 1754 -22 l 1
 820 -22 l 1
 820 332 l 1
 391 332 l 1
 229 0 l 1
 11 0 l 1
 710 1434 l 1
 1754 1434 l 1
 1754 1258 l 1
 1020 1258 l 1
 1020 780 l 1
 1754 780 l 1
 1754 606 l 1
 1020 606 l 1
 1020 152 l 1
 1754 152 l 1
820 1213 m 1
 476 508 l 1
 820 508 l 1
 820 1213 l 1
EndSplineSet
Colour: ffff00
EndChar

StartChar: Oslash
Encoding: 216 216 378
Width: 1762
VWidth: 1819
Flags: HMW
LayerCount: 2
Fore
SplineSet
1560 1465 m 1
 1664 1357 l 1
 202 -54 l 1
 98 54 l 1
 1560 1465 l 1
EndSplineSet
Refer: 279 79 N 1 0 0 1 150 0 2
EndChar

StartChar: Thorn
Encoding: 222 222 384
Width: 1079
VWidth: 1819
Flags: HMW
LayerCount: 2
Fore
SplineSet
300 0 m 1
 100 0 l 1
 100 1411 l 1
 300 1411 l 1
 300 1130 l 1
 537 1130 l 2
 789 1130 1029 988 1029 707 c 0
 1029 426 789 284 537 284 c 2
 300 284 l 1
 300 0 l 1
300 458 m 1
 537 458 l 2
 707 458 829 532 829 707 c 0
 829 882 707 956 537 956 c 2
 300 956 l 1
 300 458 l 1
EndSplineSet
Colour: ffff00
EndChar

StartChar: germandbls
Encoding: 223 223 385
Width: 1099
VWidth: 1819
Flags: HMW
LayerCount: 2
Fore
SplineSet
517 -22 m 1
 517 152 l 1
 825 152 849 171 849 251 c 0
 849 322 807 363 735 414 c 0
 663 465 554 545 554 690 c 0
 554 818 622 890 669 933 c 0
 698 959 715 978 715 1032 c 0
 715 1179 644 1258 507 1258 c 0
 365 1258 300 1181 300 1032 c 2
 300 0 l 1
 100 0 l 1
 100 1032 l 2
 100 1233 225 1434 507 1434 c 0
 782 1434 915 1235 915 1032 c 0
 915 928 868 852 813 811 c 0
 772 780 754 766 754 690 c 0
 754 631 787 603 861 550 c 0
 941 493 1049 402 1049 251 c 0
 1049 -3 783 -22 517 -22 c 1
EndSplineSet
Colour: ffff00
EndChar

StartChar: ae
Encoding: 230 230 392
Width: 1830
VWidth: 1819
Flags: HMW
LayerCount: 2
Fore
SplineSet
736 469 m 1
 702 473 666 476 635 476 c 0
 470 476 296 419 296 287 c 0
 296 183 362 152 463 152 c 0
 589 152 736 236 736 376 c 2
 736 469 l 1
941 434 m 1
 971 242 1087 152 1255 152 c 0
 1341 152 1448 176 1569 231 c 1
 1661 75 l 1
 1518 10 1381 -22 1255 -22 c 0
 1054 -22 901 67 815 210 c 1
 734 57 549 -22 423 -22 c 0
 233 -22 102 86 102 270 c 0
 102 543 391 632 635 632 c 0
 669 632 703 630 736 627 c 1
 736 731 l 2
 736 836 646 890 527 890 c 0
 409 890 320 836 320 731 c 1
 120 731 l 1
 120 956 337 1066 527 1066 c 0
 654 1066 793 1017 872 918 c 1
 952 1007 1069 1066 1229 1066 c 0
 1576 1066 1730 789 1730 521 c 2
 1730 434 l 1
 1467 434 1204 434 941 434 c 1
941 608 m 1
 1523 608 l 1
 1495 787 1395 890 1229 890 c 0
 1064 890 968 788 941 608 c 1
EndSplineSet
EndChar

StartChar: eth
Encoding: 240 240 402
Width: 1088
VWidth: 1819
Flags: HMW
LayerCount: 2
Fore
SplineSet
257 1411 m 0
 623 1343 929 837 937 555 c 1024
355 1099 m 1
 740 1411 l 1025
EndSplineSet
Refer: 311 111 N 1 0 0 1 0 0 2
EndChar

StartChar: oslash
Encoding: 248 248 410
Width: 1088
VWidth: 1819
Flags: HMW
LayerCount: 2
Fore
SplineSet
209 -46 m 1
 91 46 l 1
 879 1059 l 1
 997 967 l 1
 209 -46 l 1
EndSplineSet
Refer: 311 111 N 1 0 0 1 0 0 2
EndChar

StartChar: thorn
Encoding: 254 254 416
Width: 1158
VWidth: 1819
Flags: HMW
LayerCount: 2
Fore
SplineSet
614 890 m 0
 427 890 320 751 320 521 c 0
 320 291 426 152 614 152 c 0
 802 152 908 291 908 521 c 0
 908 751 801 890 614 890 c 0
654 1066 m 0
 1003 1066 1108 787 1108 521 c 0
 1108 255 1002 -22 654 -22 c 0
 346 -22 200 255 200 521 c 0
 200 787 345 1066 654 1066 c 0
EndSplineSet
Refer: 323 124 N 1 0 0 1 0 0 2
EndChar

StartChar: dotlessi
Encoding: 305 305 418
Width: 400
VWidth: 1819
Flags: HMW
LayerCount: 2
Fore
SplineSet
100 1043 m 1
 300 1043 l 1
 300 0 l 1
 100 0 l 1
 100 1043 l 1
EndSplineSet
Colour: ffff00
EndChar

StartChar: OE
Encoding: 338 338 419
Width: 1685
VWidth: 1819
Flags: HMW
LayerCount: 2
Fore
SplineSet
1535 1434 m 1
 1535 1258 l 1
 854 1258 l 1
 854 794 l 1
 1535 794 l 1
 1535 618 l 1
 854 618 l 1
 854 152 l 1
 1535 152 l 1
 1535 -22 l 1
 731 -22 l 2
 265 -22 50 322 50 706 c 0
 50 1090 265 1434 731 1434 c 2
 1535 1434 l 1
654 157 m 1
 654 1254 l 1
 388 1222 250 1017 250 706 c 0
 250 395 388 190 654 157 c 1
EndSplineSet
Colour: ffff00
EndChar

StartChar: uniE007
Encoding: 57351 57351 426
Width: 425
VWidth: 1854
Flags: HMW
LayerCount: 2
Fore
SplineSet
517 1877 m 1
 671 1749 l 1
 568 1627 443 1580 330 1580 c 0
 257 1580 197 1600 147 1618 c 0
 100 1634 66 1644 31 1644 c 0
 15 1644 -59 1599 -116 1529 c 1
 -272 1655 l 1
 -209 1733 -107 1844 31 1844 c 0
 104 1844 164 1824 213 1806 c 0
 259 1790 295 1780 330 1780 c 0
 389 1780 450 1797 517 1877 c 1
EndSplineSet
Colour: ffff
EndChar

StartChar: uni0237
Encoding: 567 567 429
Width: 400
VWidth: 1819
Flags: HMW
LayerCount: 2
Fore
SplineSet
-55 -500 m 1
 -55 -326 l 1
 23 -326 l 2
 54 -326 100 -295 100 -238 c 2
 100 1043 l 1
 300 1043 l 1
 300 -238 l 2
 300 -373 186 -500 23 -500 c 2
 -55 -500 l 1
EndSplineSet
Colour: ffff00
EndChar

StartChar: quoteright
Encoding: 8217 8217 437
Width: 598
VWidth: 1854
Flags: HMW
LayerCount: 2
Fore
SplineSet
322 746 m 1
 256 794 l 1
 309 855 358 971 358 1066 c 0
 358 1177 120 1045 120 1231 c 0
 120 1330 169 1411 290 1411 c 0
 413 1411 478 1316 478 1179 c 0
 478 999 401 845 322 746 c 1
EndSplineSet
EndChar

StartChar: quoteleft
Encoding: 8216 8216 438
Width: 598
VWidth: 1854
Flags: HMW
LayerCount: 2
Fore
SplineSet
276 746 m 1
 197 845 120 999 120 1179 c 0
 120 1316 185 1411 308 1411 c 0
 429 1411 478 1330 478 1231 c 0
 478 1045 240 1177 240 1066 c 0
 240 971 289 855 342 794 c 1
 276 746 l 1
EndSplineSet
EndChar

